<?xml version="1.0" encoding="utf-8" standalone="no"?>
<!DOCTYPE svg PUBLIC "-//W3C//DTD SVG 1.1//EN"
  "http://www.w3.org/Graphics/SVG/1.1/DTD/svg11.dtd">
<svg xmlns:xlink="http://www.w3.org/1999/xlink" width="640.808437pt" height="366.44295pt" viewBox="0 0 640.808437 366.44295" xmlns="http://www.w3.org/2000/svg" version="1.1">
 <metadata>
  <rdf:RDF xmlns:dc="http://purl.org/dc/elements/1.1/" xmlns:cc="http://creativecommons.org/ns#" xmlns:rdf="http://www.w3.org/1999/02/22-rdf-syntax-ns#">
   <cc:Work>
    <dc:type rdf:resource="http://purl.org/dc/dcmitype/StillImage"/>
    <dc:date>2026-05-29T16:00:48.485820</dc:date>
    <dc:format>image/svg+xml</dc:format>
    <dc:creator>
     <cc:Agent>
      <dc:title>Matplotlib v3.10.9, https://matplotlib.org/</dc:title>
     </cc:Agent>
    </dc:creator>
   </cc:Work>
  </rdf:RDF>
 </metadata>
 <defs>
  <style type="text/css">*{stroke-linejoin: round; stroke-linecap: butt}</style>
 </defs>
 <g id="figure_1">
  <g id="patch_1">
   <path d="M 0 366.44295 
L 640.808437 366.44295 
L 640.808437 0 
L 0 0 
z
" style="fill: #ffffff"/>
  </g>
  <g id="axes_1">
   <g id="patch_2">
    <path d="M 44.570938 325.57295 
L 628.058438 325.57295 
L 628.058438 46.92175 
L 44.570938 46.92175 
z
" style="fill: #ffffff"/>
   </g>
   <g id="patch_3">
    <path d="M 277.965938 325.57295 
L 628.058438 325.57295 
L 628.058438 46.92175 
L 277.965938 46.92175 
z
" clip-path="url(#pccc8c74bc3)" style="fill: #f0ad4e; opacity: 0.12; stroke: #f0ad4e; stroke-linejoin: miter"/>
   </g>
   <g id="matplotlib.axis_1">
    <g id="xtick_1">
     <g id="line2d_1">
      <path d="M 44.570938 325.57295 
L 44.570938 46.92175 
" clip-path="url(#pccc8c74bc3)" style="fill: none; stroke-dasharray: 0.8,1.32; stroke-dashoffset: 0; stroke: #b0b0b0; stroke-opacity: 0.25; stroke-width: 0.8"/>
     </g>
     <g id="line2d_2">
      <defs>
       <path id="mbb053f8047" d="M 0 0 
L 0 3.5 
" style="stroke: #000000; stroke-width: 0.8"/>
      </defs>
      <g>
       <use xlink:href="#mbb053f8047" x="44.570938" y="325.57295" style="stroke: #000000; stroke-width: 0.8"/>
      </g>
     </g>
     <g id="text_1">
      <!-- 0 -->
      <g transform="translate(41.795938 340.532325) scale(0.1 -0.1)">
       <defs>
        <path id="NotoSansCJKjp-Regular-30" d="M 1779 -83 
C 2669 -83 3238 723 3238 2362 
C 3238 3987 2669 4774 1779 4774 
C 883 4774 320 3987 320 2362 
C 320 723 883 -83 1779 -83 
z
M 1779 390 
C 1248 390 883 986 883 2362 
C 883 3731 1248 4314 1779 4314 
C 2310 4314 2675 3731 2675 2362 
C 2675 986 2310 390 1779 390 
z
" transform="scale(0.015625)"/>
       </defs>
       <use xlink:href="#NotoSansCJKjp-Regular-30"/>
      </g>
     </g>
    </g>
    <g id="xtick_2">
     <g id="line2d_3">
      <path d="M 117.506875 325.57295 
L 117.506875 46.92175 
" clip-path="url(#pccc8c74bc3)" style="fill: none; stroke-dasharray: 0.8,1.32; stroke-dashoffset: 0; stroke: #b0b0b0; stroke-opacity: 0.25; stroke-width: 0.8"/>
     </g>
     <g id="line2d_4">
      <g>
       <use xlink:href="#mbb053f8047" x="117.506875" y="325.57295" style="stroke: #000000; stroke-width: 0.8"/>
      </g>
     </g>
     <g id="text_2">
      <!-- 10 -->
      <g transform="translate(111.956875 340.532325) scale(0.1 -0.1)">
       <defs>
        <path id="NotoSansCJKjp-Regular-31" d="M 563 0 
L 3136 0 
L 3136 486 
L 2195 486 
L 2195 4691 
L 1747 4691 
C 1491 4544 1190 4435 774 4358 
L 774 3987 
L 1613 3987 
L 1613 486 
L 563 486 
L 563 0 
z
" transform="scale(0.015625)"/>
       </defs>
       <use xlink:href="#NotoSansCJKjp-Regular-31"/>
       <use xlink:href="#NotoSansCJKjp-Regular-30" transform="translate(55.499985 0)"/>
      </g>
     </g>
    </g>
    <g id="xtick_3">
     <g id="line2d_5">
      <path d="M 190.442813 325.57295 
L 190.442813 46.92175 
" clip-path="url(#pccc8c74bc3)" style="fill: none; stroke-dasharray: 0.8,1.32; stroke-dashoffset: 0; stroke: #b0b0b0; stroke-opacity: 0.25; stroke-width: 0.8"/>
     </g>
     <g id="line2d_6">
      <g>
       <use xlink:href="#mbb053f8047" x="190.442813" y="325.57295" style="stroke: #000000; stroke-width: 0.8"/>
      </g>
     </g>
     <g id="text_3">
      <!-- 20 -->
      <g transform="translate(184.892813 340.532325) scale(0.1 -0.1)">
       <defs>
        <path id="NotoSansCJKjp-Regular-32" d="M 282 0 
L 3232 0 
L 3232 506 
L 1933 506 
C 1696 506 1408 480 1165 461 
C 2266 1504 3008 2458 3008 3398 
C 3008 4230 2477 4774 1638 4774 
C 1043 4774 634 4506 256 4090 
L 595 3757 
C 858 4070 1184 4301 1568 4301 
C 2150 4301 2432 3910 2432 3373 
C 2432 2566 1754 1632 282 346 
L 282 0 
z
" transform="scale(0.015625)"/>
       </defs>
       <use xlink:href="#NotoSansCJKjp-Regular-32"/>
       <use xlink:href="#NotoSansCJKjp-Regular-30" transform="translate(55.499985 0)"/>
      </g>
     </g>
    </g>
    <g id="xtick_4">
     <g id="line2d_7">
      <path d="M 263.37875 325.57295 
L 263.37875 46.92175 
" clip-path="url(#pccc8c74bc3)" style="fill: none; stroke-dasharray: 0.8,1.32; stroke-dashoffset: 0; stroke: #b0b0b0; stroke-opacity: 0.25; stroke-width: 0.8"/>
     </g>
     <g id="line2d_8">
      <g>
       <use xlink:href="#mbb053f8047" x="263.37875" y="325.57295" style="stroke: #000000; stroke-width: 0.8"/>
      </g>
     </g>
     <g id="text_4">
      <!-- 30 -->
      <g transform="translate(257.82875 340.532325) scale(0.1 -0.1)">
       <defs>
        <path id="NotoSansCJKjp-Regular-33" d="M 1683 -83 
C 2522 -83 3194 416 3194 1254 
C 3194 1901 2752 2310 2202 2445 
L 2202 2477 
C 2701 2650 3034 3034 3034 3603 
C 3034 4346 2458 4774 1664 4774 
C 1126 4774 710 4538 358 4218 
L 672 3846 
C 941 4115 1267 4301 1645 4301 
C 2138 4301 2438 4006 2438 3558 
C 2438 3053 2112 2662 1139 2662 
L 1139 2214 
C 2227 2214 2598 1843 2598 1274 
C 2598 736 2208 403 1645 403 
C 1114 403 762 659 486 941 
L 186 563 
C 493 224 954 -83 1683 -83 
z
" transform="scale(0.015625)"/>
       </defs>
       <use xlink:href="#NotoSansCJKjp-Regular-33"/>
       <use xlink:href="#NotoSansCJKjp-Regular-30" transform="translate(55.499985 0)"/>
      </g>
     </g>
    </g>
    <g id="xtick_5">
     <g id="line2d_9">
      <path d="M 336.314688 325.57295 
L 336.314688 46.92175 
" clip-path="url(#pccc8c74bc3)" style="fill: none; stroke-dasharray: 0.8,1.32; stroke-dashoffset: 0; stroke: #b0b0b0; stroke-opacity: 0.25; stroke-width: 0.8"/>
     </g>
     <g id="line2d_10">
      <g>
       <use xlink:href="#mbb053f8047" x="336.314688" y="325.57295" style="stroke: #000000; stroke-width: 0.8"/>
      </g>
     </g>
     <g id="text_5">
      <!-- 40 -->
      <g transform="translate(330.764688 340.532325) scale(0.1 -0.1)">
       <defs>
        <path id="NotoSansCJKjp-Regular-34" d="M 2176 0 
L 2726 0 
L 2726 1293 
L 3354 1293 
L 3354 1760 
L 2726 1760 
L 2726 4691 
L 2080 4691 
L 128 1677 
L 128 1293 
L 2176 1293 
L 2176 0 
z
M 2176 1760 
L 736 1760 
L 1805 3360 
C 1939 3590 2067 3827 2182 4051 
L 2208 4051 
C 2195 3814 2176 3430 2176 3200 
L 2176 1760 
z
" transform="scale(0.015625)"/>
       </defs>
       <use xlink:href="#NotoSansCJKjp-Regular-34"/>
       <use xlink:href="#NotoSansCJKjp-Regular-30" transform="translate(55.499985 0)"/>
      </g>
     </g>
    </g>
    <g id="xtick_6">
     <g id="line2d_11">
      <path d="M 409.250625 325.57295 
L 409.250625 46.92175 
" clip-path="url(#pccc8c74bc3)" style="fill: none; stroke-dasharray: 0.8,1.32; stroke-dashoffset: 0; stroke: #b0b0b0; stroke-opacity: 0.25; stroke-width: 0.8"/>
     </g>
     <g id="line2d_12">
      <g>
       <use xlink:href="#mbb053f8047" x="409.250625" y="325.57295" style="stroke: #000000; stroke-width: 0.8"/>
      </g>
     </g>
     <g id="text_6">
      <!-- 50 -->
      <g transform="translate(403.700625 340.532325) scale(0.1 -0.1)">
       <defs>
        <path id="NotoSansCJKjp-Regular-35" d="M 1677 -83 
C 2464 -83 3213 499 3213 1523 
C 3213 2560 2573 3021 1798 3021 
C 1517 3021 1306 2950 1094 2835 
L 1216 4192 
L 2982 4192 
L 2982 4691 
L 704 4691 
L 550 2502 
L 864 2304 
C 1133 2483 1331 2579 1645 2579 
C 2234 2579 2618 2182 2618 1510 
C 2618 826 2176 403 1619 403 
C 1075 403 730 653 467 922 
L 173 538 
C 493 224 941 -83 1677 -83 
z
" transform="scale(0.015625)"/>
       </defs>
       <use xlink:href="#NotoSansCJKjp-Regular-35"/>
       <use xlink:href="#NotoSansCJKjp-Regular-30" transform="translate(55.499985 0)"/>
      </g>
     </g>
    </g>
    <g id="xtick_7">
     <g id="line2d_13">
      <path d="M 482.186563 325.57295 
L 482.186563 46.92175 
" clip-path="url(#pccc8c74bc3)" style="fill: none; stroke-dasharray: 0.8,1.32; stroke-dashoffset: 0; stroke: #b0b0b0; stroke-opacity: 0.25; stroke-width: 0.8"/>
     </g>
     <g id="line2d_14">
      <g>
       <use xlink:href="#mbb053f8047" x="482.186563" y="325.57295" style="stroke: #000000; stroke-width: 0.8"/>
      </g>
     </g>
     <g id="text_7">
      <!-- 60 -->
      <g transform="translate(476.636563 340.532325) scale(0.1 -0.1)">
       <defs>
        <path id="NotoSansCJKjp-Regular-36" d="M 1926 -83 
C 2656 -83 3277 531 3277 1440 
C 3277 2426 2765 2912 1971 2912 
C 1606 2912 1197 2701 909 2349 
C 934 3802 1466 4294 2118 4294 
C 2400 4294 2682 4154 2861 3936 
L 3194 4294 
C 2931 4576 2579 4774 2093 4774 
C 1184 4774 358 4077 358 2240 
C 358 691 1030 -83 1926 -83 
z
M 922 1882 
C 1229 2317 1587 2477 1875 2477 
C 2445 2477 2720 2074 2720 1440 
C 2720 800 2374 378 1926 378 
C 1338 378 986 909 922 1882 
z
" transform="scale(0.015625)"/>
       </defs>
       <use xlink:href="#NotoSansCJKjp-Regular-36"/>
       <use xlink:href="#NotoSansCJKjp-Regular-30" transform="translate(55.499985 0)"/>
      </g>
     </g>
    </g>
    <g id="xtick_8">
     <g id="line2d_15">
      <path d="M 555.1225 325.57295 
L 555.1225 46.92175 
" clip-path="url(#pccc8c74bc3)" style="fill: none; stroke-dasharray: 0.8,1.32; stroke-dashoffset: 0; stroke: #b0b0b0; stroke-opacity: 0.25; stroke-width: 0.8"/>
     </g>
     <g id="line2d_16">
      <g>
       <use xlink:href="#mbb053f8047" x="555.1225" y="325.57295" style="stroke: #000000; stroke-width: 0.8"/>
      </g>
     </g>
     <g id="text_8">
      <!-- 70 -->
      <g transform="translate(549.5725 340.532325) scale(0.1 -0.1)">
       <defs>
        <path id="NotoSansCJKjp-Regular-37" d="M 1267 0 
L 1875 0 
C 1952 1837 2150 2931 3251 4339 
L 3251 4691 
L 314 4691 
L 314 4192 
L 2592 4192 
C 1670 2912 1350 1779 1267 0 
z
" transform="scale(0.015625)"/>
       </defs>
       <use xlink:href="#NotoSansCJKjp-Regular-37"/>
       <use xlink:href="#NotoSansCJKjp-Regular-30" transform="translate(55.499985 0)"/>
      </g>
     </g>
    </g>
    <g id="xtick_9">
     <g id="line2d_17">
      <path d="M 628.058438 325.57295 
L 628.058438 46.92175 
" clip-path="url(#pccc8c74bc3)" style="fill: none; stroke-dasharray: 0.8,1.32; stroke-dashoffset: 0; stroke: #b0b0b0; stroke-opacity: 0.25; stroke-width: 0.8"/>
     </g>
     <g id="line2d_18">
      <g>
       <use xlink:href="#mbb053f8047" x="628.058438" y="325.57295" style="stroke: #000000; stroke-width: 0.8"/>
      </g>
     </g>
     <g id="text_9">
      <!-- 80 -->
      <g transform="translate(622.508438 340.532325) scale(0.1 -0.1)">
       <defs>
        <path id="NotoSansCJKjp-Regular-38" d="M 1792 -83 
C 2669 -83 3258 448 3258 1126 
C 3258 1773 2880 2125 2470 2362 
L 2470 2394 
C 2746 2611 3091 3034 3091 3526 
C 3091 4250 2605 4762 1805 4762 
C 1075 4762 518 4282 518 3571 
C 518 3078 813 2726 1152 2490 
L 1152 2464 
C 723 2234 294 1792 294 1165 
C 294 442 922 -83 1792 -83 
z
M 2112 2547 
C 1555 2765 1050 3014 1050 3571 
C 1050 4026 1363 4326 1798 4326 
C 2298 4326 2592 3962 2592 3494 
C 2592 3149 2426 2829 2112 2547 
z
M 1798 352 
C 1235 352 813 717 813 1216 
C 813 1664 1082 2035 1459 2278 
C 2125 2010 2701 1779 2701 1146 
C 2701 678 2342 352 1798 352 
z
" transform="scale(0.015625)"/>
       </defs>
       <use xlink:href="#NotoSansCJKjp-Regular-38"/>
       <use xlink:href="#NotoSansCJKjp-Regular-30" transform="translate(55.499985 0)"/>
      </g>
     </g>
    </g>
    <g id="text_10">
     <!-- 模型参数量 N（十亿 / B） -->
     <g transform="translate(267.649375 356.4942) scale(0.12 -0.12)">
      <defs>
       <path id="NotoSansCJKjp-Regular-6a21" d="M 3021 2669 
L 5248 2669 
L 5248 2208 
L 3021 2208 
L 3021 2669 
z
M 3021 3469 
L 5248 3469 
L 5248 3021 
L 3021 3021 
L 3021 3469 
z
M 4685 5376 
L 4685 4845 
L 3699 4845 
L 3699 5376 
L 3245 5376 
L 3245 4845 
L 2304 4845 
L 2304 4435 
L 3245 4435 
L 3245 3955 
L 3699 3955 
L 3699 4435 
L 4685 4435 
L 4685 3955 
L 5152 3955 
L 5152 4435 
L 6048 4435 
L 6048 4845 
L 5152 4845 
L 5152 5376 
L 4685 5376 
z
M 2573 3834 
L 2573 1850 
L 3878 1850 
C 3853 1658 3827 1485 3782 1318 
L 2176 1318 
L 2176 909 
L 3642 909 
C 3398 416 2938 77 1997 -128 
C 2086 -224 2208 -403 2253 -512 
C 3366 -243 3885 218 4141 896 
C 4461 192 5056 -288 5888 -512 
C 5952 -390 6080 -211 6182 -115 
C 5459 38 4909 390 4602 909 
L 6035 909 
L 6035 1318 
L 4262 1318 
C 4294 1485 4326 1664 4346 1850 
L 5715 1850 
L 5715 3834 
L 2573 3834 
z
M 1120 5376 
L 1120 4141 
L 320 4141 
L 320 3693 
L 1120 3693 
L 1120 3686 
C 947 2816 576 1798 205 1261 
C 288 1146 403 934 461 794 
C 704 1171 934 1754 1120 2381 
L 1120 -506 
L 1581 -506 
L 1581 2790 
C 1754 2451 1952 2042 2035 1830 
L 2342 2176 
C 2234 2374 1747 3174 1581 3424 
L 1581 3693 
L 2240 3693 
L 2240 4141 
L 1581 4141 
L 1581 5376 
L 1120 5376 
z
" transform="scale(0.015625)"/>
       <path id="NotoSansCJKjp-Regular-578b" d="M 4064 5011 
L 4064 2867 
L 4506 2867 
L 4506 5011 
L 4064 5011 
z
M 5261 5338 
L 5261 2477 
C 5261 2394 5235 2368 5133 2362 
C 5037 2355 4717 2355 4352 2368 
C 4422 2240 4486 2054 4512 1926 
C 4966 1926 5280 1933 5472 2010 
C 5664 2080 5715 2202 5715 2470 
L 5715 5338 
L 5261 5338 
z
M 2483 4691 
L 2483 3808 
L 1690 3808 
L 1690 3846 
L 1690 4691 
L 2483 4691 
z
M 429 3808 
L 429 3379 
L 1210 3379 
C 1139 2950 928 2515 378 2176 
C 467 2112 627 1933 691 1843 
C 1344 2246 1587 2822 1658 3379 
L 2483 3379 
L 2483 2003 
L 2938 2003 
L 2938 3379 
L 3667 3379 
L 3667 3808 
L 2938 3808 
L 2938 4691 
L 3533 4691 
L 3533 5114 
L 640 5114 
L 640 4691 
L 1248 4691 
L 1248 3853 
L 1248 3808 
L 429 3808 
z
M 2989 2125 
L 2989 1414 
L 966 1414 
L 966 973 
L 2989 973 
L 2989 160 
L 301 160 
L 301 -288 
L 6093 -288 
L 6093 160 
L 3482 160 
L 3482 973 
L 5427 973 
L 5427 1414 
L 3482 1414 
L 3482 2125 
L 2989 2125 
z
" transform="scale(0.015625)"/>
       <path id="NotoSansCJKjp-Regular-53c2" d="M 3386 2579 
C 2976 2272 2214 1990 1594 1837 
C 1696 1754 1811 1626 1882 1542 
C 2522 1715 3283 2022 3770 2394 
L 3386 2579 
z
M 4051 1830 
C 3501 1408 2464 1062 1568 890 
C 1664 794 1773 646 1837 538 
C 2784 755 3814 1139 4435 1645 
L 4051 1830 
z
M 4890 1107 
C 4186 410 2752 19 1203 -147 
C 1286 -256 1382 -422 1427 -550 
C 3059 -339 4518 102 5306 909 
L 4890 1107 
z
M 339 3302 
L 339 2880 
L 1907 2880 
C 1440 2330 826 1907 122 1613 
C 230 1530 403 1338 474 1242 
C 1267 1626 1971 2163 2496 2880 
L 3930 2880 
C 4410 2208 5171 1600 5894 1274 
C 5965 1389 6106 1562 6214 1651 
C 5574 1894 4909 2362 4461 2880 
L 6080 2880 
L 6080 3302 
L 2771 3302 
C 2880 3488 2976 3686 3066 3891 
L 5056 3968 
C 5229 3808 5382 3654 5491 3526 
L 5894 3789 
C 5549 4192 4838 4749 4256 5107 
L 3885 4877 
C 4115 4723 4358 4544 4595 4358 
L 2182 4294 
C 2413 4576 2662 4922 2867 5229 
L 2349 5376 
C 2189 5050 1901 4614 1651 4282 
L 582 4262 
L 640 3827 
L 2541 3878 
C 2451 3674 2342 3482 2227 3302 
L 339 3302 
z
" transform="scale(0.015625)"/>
       <path id="NotoSansCJKjp-Regular-6570" d="M 2803 5254 
C 2688 4998 2483 4627 2317 4403 
L 2643 4243 
C 2816 4454 3027 4781 3219 5075 
L 2803 5254 
z
M 531 5075 
C 704 4806 870 4454 928 4230 
L 1312 4397 
C 1248 4627 1075 4973 890 5222 
L 531 5075 
z
M 4026 5382 
C 3846 4243 3507 3162 2970 2490 
C 3078 2413 3283 2246 3360 2163 
C 3533 2394 3693 2669 3827 2970 
C 3974 2310 4160 1709 4410 1184 
C 4090 698 3667 314 3110 19 
C 2912 166 2656 326 2374 480 
C 2598 774 2746 1126 2829 1562 
L 3398 1562 
L 3398 1958 
L 1677 1958 
L 1894 2413 
L 1779 2438 
L 2061 2438 
L 2061 3398 
C 2374 3168 2771 2854 2938 2701 
L 3206 3046 
C 3034 3174 2336 3616 2061 3776 
L 2061 3802 
L 3373 3802 
L 3373 4198 
L 2061 4198 
L 2061 5382 
L 1613 5382 
L 1613 4198 
L 288 4198 
L 288 3802 
L 1485 3802 
C 1171 3379 678 2982 218 2784 
C 314 2694 422 2528 480 2419 
C 870 2637 1293 2989 1613 3373 
L 1613 2477 
L 1440 2515 
L 1178 1958 
L 250 1958 
L 250 1562 
L 979 1562 
C 806 1222 627 896 486 653 
L 909 506 
L 1005 678 
C 1222 589 1434 493 1638 384 
C 1306 147 858 -13 269 -109 
C 352 -211 448 -384 480 -512 
C 1171 -365 1683 -154 2061 160 
C 2355 -13 2611 -186 2810 -352 
L 2963 -192 
C 3046 -301 3136 -448 3174 -531 
C 3802 -205 4288 205 4666 710 
C 4979 192 5370 -224 5862 -512 
C 5939 -378 6093 -192 6208 -96 
C 5690 173 5280 614 4960 1165 
C 5350 1856 5594 2707 5754 3750 
L 6144 3750 
L 6144 4198 
L 4262 4198 
C 4358 4557 4442 4928 4506 5312 
L 4026 5382 
z
M 1478 1562 
L 2368 1562 
C 2285 1216 2157 928 1965 698 
C 1715 819 1459 934 1197 1030 
L 1478 1562 
z
M 4134 3750 
L 5254 3750 
C 5139 2950 4966 2266 4698 1696 
C 4435 2298 4250 3002 4134 3750 
z
" transform="scale(0.015625)"/>
       <path id="NotoSansCJKjp-Regular-91cf" d="M 1600 4256 
L 4781 4256 
L 4781 3904 
L 1600 3904 
L 1600 4256 
z
M 1600 4883 
L 4781 4883 
L 4781 4538 
L 1600 4538 
L 1600 4883 
z
M 1133 5171 
L 1133 3616 
L 5261 3616 
L 5261 5171 
L 1133 5171 
z
M 333 3341 
L 333 2976 
L 6074 2976 
L 6074 3341 
L 333 3341 
z
M 1472 1747 
L 2957 1747 
L 2957 1376 
L 1472 1376 
L 1472 1747 
z
M 3424 1747 
L 4973 1747 
L 4973 1376 
L 3424 1376 
L 3424 1747 
z
M 1472 2387 
L 2957 2387 
L 2957 2029 
L 1472 2029 
L 1472 2387 
z
M 3424 2387 
L 4973 2387 
L 4973 2029 
L 3424 2029 
L 3424 2387 
z
M 301 19 
L 301 -352 
L 6112 -352 
L 6112 19 
L 3424 19 
L 3424 390 
L 5587 390 
L 5587 730 
L 3424 730 
L 3424 1082 
L 5446 1082 
L 5446 2688 
L 1018 2688 
L 1018 1082 
L 2957 1082 
L 2957 730 
L 838 730 
L 838 390 
L 2957 390 
L 2957 19 
L 301 19 
z
" transform="scale(0.015625)"/>
       <path id="NotoSansCJKjp-Regular-20" transform="scale(0.015625)"/>
       <path id="NotoSansCJKjp-Regular-4e" d="M 646 0 
L 1203 0 
L 1203 2464 
C 1203 2957 1158 3456 1133 3930 
L 1158 3930 
L 1664 2963 
L 3373 0 
L 3981 0 
L 3981 4691 
L 3418 4691 
L 3418 2253 
C 3418 1766 3462 1235 3501 768 
L 3469 768 
L 2963 1734 
L 1248 4691 
L 646 4691 
L 646 0 
z
" transform="scale(0.015625)"/>
       <path id="NotoSansCJKjp-Regular-ff08" d="M 4448 2432 
C 4448 1184 4954 166 5722 -614 
L 6106 -416 
C 5370 346 4915 1293 4915 2432 
C 4915 3571 5370 4518 6106 5280 
L 5722 5478 
C 4954 4698 4448 3680 4448 2432 
z
" transform="scale(0.015625)"/>
       <path id="NotoSansCJKjp-Regular-5341" d="M 2950 5370 
L 2950 2982 
L 352 2982 
L 352 2490 
L 2950 2490 
L 2950 -512 
L 3469 -512 
L 3469 2490 
L 6093 2490 
L 6093 2982 
L 3469 2982 
L 3469 5370 
L 2950 5370 
z
" transform="scale(0.015625)"/>
       <path id="NotoSansCJKjp-Regular-4ebf" d="M 2496 4710 
L 2496 4250 
L 4966 4250 
C 2483 1389 2362 928 2362 531 
C 2362 64 2714 -224 3475 -224 
L 5088 -224 
C 5734 -224 5933 26 6003 1370 
C 5869 1395 5690 1459 5562 1530 
C 5530 442 5453 237 5114 237 
L 3443 243 
C 3085 243 2842 339 2842 582 
C 2842 883 3008 1331 5805 4480 
C 5830 4512 5856 4538 5875 4570 
L 5568 4730 
L 5453 4710 
L 2496 4710 
z
M 1792 5363 
C 1427 4390 832 3424 198 2810 
C 288 2701 429 2445 474 2330 
C 717 2579 947 2874 1171 3194 
L 1171 -499 
L 1632 -499 
L 1632 3930 
C 1862 4346 2074 4781 2240 5222 
L 1792 5363 
z
" transform="scale(0.015625)"/>
       <path id="NotoSansCJKjp-Regular-2f" d="M 70 -1146 
L 499 -1146 
L 2413 5082 
L 1990 5082 
L 70 -1146 
z
" transform="scale(0.015625)"/>
       <path id="NotoSansCJKjp-Regular-42" d="M 646 0 
L 2138 0 
C 3187 0 3917 454 3917 1376 
C 3917 2016 3520 2387 2963 2496 
L 2963 2528 
C 3405 2669 3648 3078 3648 3546 
C 3648 4371 2982 4691 2035 4691 
L 646 4691 
L 646 0 
z
M 1235 2701 
L 1235 4224 
L 1958 4224 
C 2694 4224 3066 4019 3066 3469 
C 3066 2989 2739 2701 1933 2701 
L 1235 2701 
z
M 1235 474 
L 1235 2240 
L 2054 2240 
C 2880 2240 3334 1978 3334 1395 
C 3334 762 2861 474 2054 474 
L 1235 474 
z
" transform="scale(0.015625)"/>
       <path id="NotoSansCJKjp-Regular-ff09" d="M 1952 2432 
C 1952 3680 1446 4698 678 5478 
L 294 5280 
C 1030 4518 1485 3571 1485 2432 
C 1485 1293 1030 346 294 -416 
L 678 -614 
C 1446 166 1952 1184 1952 2432 
z
" transform="scale(0.015625)"/>
      </defs>
      <use xlink:href="#NotoSansCJKjp-Regular-6a21"/>
      <use xlink:href="#NotoSansCJKjp-Regular-578b" transform="translate(99.999985 0)"/>
      <use xlink:href="#NotoSansCJKjp-Regular-53c2" transform="translate(199.999969 0)"/>
      <use xlink:href="#NotoSansCJKjp-Regular-6570" transform="translate(299.999954 0)"/>
      <use xlink:href="#NotoSansCJKjp-Regular-91cf" transform="translate(399.999939 0)"/>
      <use xlink:href="#NotoSansCJKjp-Regular-20" transform="translate(499.999924 0)"/>
      <use xlink:href="#NotoSansCJKjp-Regular-4e" transform="translate(522.399918 0)"/>
      <use xlink:href="#NotoSansCJKjp-Regular-ff08" transform="translate(594.699905 0)"/>
      <use xlink:href="#NotoSansCJKjp-Regular-5341" transform="translate(694.69989 0)"/>
      <use xlink:href="#NotoSansCJKjp-Regular-4ebf" transform="translate(794.699875 0)"/>
      <use xlink:href="#NotoSansCJKjp-Regular-20" transform="translate(894.69986 0)"/>
      <use xlink:href="#NotoSansCJKjp-Regular-2f" transform="translate(917.099854 0)"/>
      <use xlink:href="#NotoSansCJKjp-Regular-20" transform="translate(956.29985 0)"/>
      <use xlink:href="#NotoSansCJKjp-Regular-42" transform="translate(978.699844 0)"/>
      <use xlink:href="#NotoSansCJKjp-Regular-ff09" transform="translate(1044.399841 0)"/>
     </g>
    </g>
   </g>
   <g id="matplotlib.axis_2">
    <g id="ytick_1">
     <g id="line2d_19">
      <path d="M 44.570938 325.57295 
L 628.058438 325.57295 
" clip-path="url(#pccc8c74bc3)" style="fill: none; stroke-dasharray: 0.8,1.32; stroke-dashoffset: 0; stroke: #b0b0b0; stroke-opacity: 0.25; stroke-width: 0.8"/>
     </g>
     <g id="line2d_20">
      <defs>
       <path id="ma9266ec55a" d="M 0 0 
L -3.5 0 
" style="stroke: #000000; stroke-width: 0.8"/>
      </defs>
      <g>
       <use xlink:href="#ma9266ec55a" x="44.570938" y="325.57295" style="stroke: #000000; stroke-width: 0.8"/>
      </g>
     </g>
     <g id="text_11">
      <!-- 0.0 -->
      <g transform="translate(23.69125 329.552637) scale(0.1 -0.1)">
       <defs>
        <path id="NotoSansCJKjp-Regular-2e" d="M 890 -83 
C 1120 -83 1312 96 1312 358 
C 1312 627 1120 806 890 806 
C 653 806 467 627 467 358 
C 467 96 653 -83 890 -83 
z
" transform="scale(0.015625)"/>
       </defs>
       <use xlink:href="#NotoSansCJKjp-Regular-30"/>
       <use xlink:href="#NotoSansCJKjp-Regular-2e" transform="translate(55.499985 0)"/>
       <use xlink:href="#NotoSansCJKjp-Regular-30" transform="translate(83.299973 0)"/>
      </g>
     </g>
    </g>
    <g id="ytick_2">
     <g id="line2d_21">
      <path d="M 44.570938 273.970876 
L 628.058438 273.970876 
" clip-path="url(#pccc8c74bc3)" style="fill: none; stroke-dasharray: 0.8,1.32; stroke-dashoffset: 0; stroke: #b0b0b0; stroke-opacity: 0.25; stroke-width: 0.8"/>
     </g>
     <g id="line2d_22">
      <g>
       <use xlink:href="#ma9266ec55a" x="44.570938" y="273.970876" style="stroke: #000000; stroke-width: 0.8"/>
      </g>
     </g>
     <g id="text_12">
      <!-- 0.2 -->
      <g transform="translate(23.69125 277.950563) scale(0.1 -0.1)">
       <use xlink:href="#NotoSansCJKjp-Regular-30"/>
       <use xlink:href="#NotoSansCJKjp-Regular-2e" transform="translate(55.499985 0)"/>
       <use xlink:href="#NotoSansCJKjp-Regular-32" transform="translate(83.299973 0)"/>
      </g>
     </g>
    </g>
    <g id="ytick_3">
     <g id="line2d_23">
      <path d="M 44.570938 222.368802 
L 628.058438 222.368802 
" clip-path="url(#pccc8c74bc3)" style="fill: none; stroke-dasharray: 0.8,1.32; stroke-dashoffset: 0; stroke: #b0b0b0; stroke-opacity: 0.25; stroke-width: 0.8"/>
     </g>
     <g id="line2d_24">
      <g>
       <use xlink:href="#ma9266ec55a" x="44.570938" y="222.368802" style="stroke: #000000; stroke-width: 0.8"/>
      </g>
     </g>
     <g id="text_13">
      <!-- 0.4 -->
      <g transform="translate(23.69125 226.348489) scale(0.1 -0.1)">
       <use xlink:href="#NotoSansCJKjp-Regular-30"/>
       <use xlink:href="#NotoSansCJKjp-Regular-2e" transform="translate(55.499985 0)"/>
       <use xlink:href="#NotoSansCJKjp-Regular-34" transform="translate(83.299973 0)"/>
      </g>
     </g>
    </g>
    <g id="ytick_4">
     <g id="line2d_25">
      <path d="M 44.570938 170.766728 
L 628.058438 170.766728 
" clip-path="url(#pccc8c74bc3)" style="fill: none; stroke-dasharray: 0.8,1.32; stroke-dashoffset: 0; stroke: #b0b0b0; stroke-opacity: 0.25; stroke-width: 0.8"/>
     </g>
     <g id="line2d_26">
      <g>
       <use xlink:href="#ma9266ec55a" x="44.570938" y="170.766728" style="stroke: #000000; stroke-width: 0.8"/>
      </g>
     </g>
     <g id="text_14">
      <!-- 0.6 -->
      <g transform="translate(23.69125 174.746415) scale(0.1 -0.1)">
       <use xlink:href="#NotoSansCJKjp-Regular-30"/>
       <use xlink:href="#NotoSansCJKjp-Regular-2e" transform="translate(55.499985 0)"/>
       <use xlink:href="#NotoSansCJKjp-Regular-36" transform="translate(83.299973 0)"/>
      </g>
     </g>
    </g>
    <g id="ytick_5">
     <g id="line2d_27">
      <path d="M 44.570938 119.164654 
L 628.058438 119.164654 
" clip-path="url(#pccc8c74bc3)" style="fill: none; stroke-dasharray: 0.8,1.32; stroke-dashoffset: 0; stroke: #b0b0b0; stroke-opacity: 0.25; stroke-width: 0.8"/>
     </g>
     <g id="line2d_28">
      <g>
       <use xlink:href="#ma9266ec55a" x="44.570938" y="119.164654" style="stroke: #000000; stroke-width: 0.8"/>
      </g>
     </g>
     <g id="text_15">
      <!-- 0.8 -->
      <g transform="translate(23.69125 123.144341) scale(0.1 -0.1)">
       <use xlink:href="#NotoSansCJKjp-Regular-30"/>
       <use xlink:href="#NotoSansCJKjp-Regular-2e" transform="translate(55.499985 0)"/>
       <use xlink:href="#NotoSansCJKjp-Regular-38" transform="translate(83.299973 0)"/>
      </g>
     </g>
    </g>
    <g id="ytick_6">
     <g id="line2d_29">
      <path d="M 44.570938 67.56258 
L 628.058438 67.56258 
" clip-path="url(#pccc8c74bc3)" style="fill: none; stroke-dasharray: 0.8,1.32; stroke-dashoffset: 0; stroke: #b0b0b0; stroke-opacity: 0.25; stroke-width: 0.8"/>
     </g>
     <g id="line2d_30">
      <g>
       <use xlink:href="#ma9266ec55a" x="44.570938" y="67.56258" style="stroke: #000000; stroke-width: 0.8"/>
      </g>
     </g>
     <g id="text_16">
      <!-- 1.0 -->
      <g transform="translate(23.69125 71.542267) scale(0.1 -0.1)">
       <use xlink:href="#NotoSansCJKjp-Regular-31"/>
       <use xlink:href="#NotoSansCJKjp-Regular-2e" transform="translate(55.499985 0)"/>
       <use xlink:href="#NotoSansCJKjp-Regular-30" transform="translate(83.299973 0)"/>
      </g>
     </g>
    </g>
    <g id="text_17">
     <!-- RL 学习效率 k(N) -->
     <g transform="translate(16.9425 231.709537) rotate(-90) scale(0.12 -0.12)">
      <defs>
       <path id="NotoSansCJKjp-Regular-52" d="M 1235 2464 
L 1235 4211 
L 2022 4211 
C 2758 4211 3162 3994 3162 3379 
C 3162 2765 2758 2464 2022 2464 
L 1235 2464 
z
M 3219 0 
L 3885 0 
L 2694 2054 
C 3328 2208 3750 2643 3750 3379 
C 3750 4352 3066 4691 2112 4691 
L 646 4691 
L 646 0 
L 1235 0 
L 1235 1990 
L 2080 1990 
L 3219 0 
z
" transform="scale(0.015625)"/>
       <path id="NotoSansCJKjp-Regular-4c" d="M 646 0 
L 3290 0 
L 3290 506 
L 1235 506 
L 1235 4691 
L 646 4691 
L 646 0 
z
" transform="scale(0.015625)"/>
       <path id="NotoSansCJKjp-Regular-5b66" d="M 2963 2221 
L 2963 1760 
L 384 1760 
L 384 1306 
L 2963 1306 
L 2963 70 
C 2963 -19 2931 -51 2803 -58 
C 2669 -64 2234 -64 1741 -51 
C 1824 -186 1914 -384 1952 -518 
C 2534 -518 2899 -512 3136 -442 
C 3373 -365 3450 -230 3450 64 
L 3450 1306 
L 6048 1306 
L 6048 1760 
L 3450 1760 
L 3450 1926 
C 4019 2195 4614 2605 5018 3008 
L 4704 3238 
L 4602 3213 
L 1459 3213 
L 1459 2790 
L 4122 2790 
C 3853 2586 3526 2374 3213 2221 
L 2963 2221 
z
M 2598 5248 
C 2790 4966 2989 4589 3072 4314 
L 1766 4314 
L 1971 4416 
C 1869 4666 1600 5030 1357 5299 
L 954 5114 
C 1152 4870 1370 4557 1498 4314 
L 512 4314 
L 512 2880 
L 973 2880 
L 973 3878 
L 5459 3878 
L 5459 2880 
L 5939 2880 
L 5939 4314 
L 4941 4314 
C 5158 4570 5395 4877 5594 5165 
L 5088 5338 
C 4934 5030 4646 4608 4403 4314 
L 3277 4314 
L 3539 4416 
C 3456 4691 3232 5101 3014 5408 
L 2598 5248 
z
" transform="scale(0.015625)"/>
       <path id="NotoSansCJKjp-Regular-4e60" d="M 1478 3603 
C 2054 3206 2810 2624 3174 2266 
L 3514 2630 
C 3130 2982 2368 3539 1805 3917 
L 1478 3603 
z
M 659 858 
L 832 378 
C 1818 717 3270 1216 4589 1683 
L 4499 2131 
C 3104 1651 1581 1139 659 858 
z
M 762 4909 
L 762 4454 
L 5197 4454 
C 5158 1485 5101 320 4896 96 
C 4832 13 4762 -13 4640 -6 
C 4467 -6 4070 -6 3622 26 
C 3712 -102 3770 -301 3776 -435 
C 4147 -461 4563 -467 4813 -442 
C 5050 -422 5203 -352 5350 -141 
C 5594 186 5645 1267 5683 4634 
C 5683 4704 5683 4909 5683 4909 
L 762 4909 
z
" transform="scale(0.015625)"/>
       <path id="NotoSansCJKjp-Regular-6548" d="M 1050 3859 
C 864 3392 557 2925 218 2598 
C 326 2534 518 2394 602 2317 
C 934 2669 1286 3213 1504 3744 
L 1050 3859 
z
M 2195 3661 
C 2470 3354 2771 2918 2893 2643 
L 3277 2874 
C 3149 3155 2842 3565 2560 3866 
L 2195 3661 
z
M 1626 5350 
L 1626 4506 
L 275 4506 
L 275 4070 
L 3482 4070 
L 3482 4506 
L 2093 4506 
L 2093 5350 
L 1626 5350 
z
M 774 2182 
C 1075 1933 1389 1632 1677 1331 
C 1312 717 845 211 269 -147 
C 378 -237 563 -422 634 -518 
C 1171 -134 1632 365 2010 966 
C 2278 659 2509 358 2656 109 
L 3046 435 
C 2867 717 2586 1062 2259 1408 
C 2445 1773 2605 2170 2733 2592 
L 2259 2701 
C 2163 2368 2048 2054 1907 1760 
C 1651 2016 1382 2253 1126 2464 
L 774 2182 
z
M 4166 3738 
L 5261 3738 
C 5146 2931 4966 2246 4691 1677 
C 4442 2266 4262 2944 4141 3661 
L 4166 3738 
z
M 4064 5376 
C 3885 4256 3571 3162 3053 2470 
C 3168 2400 3360 2227 3437 2144 
C 3590 2368 3731 2624 3859 2912 
C 4000 2278 4179 1696 4416 1184 
C 4051 634 3558 205 2886 -109 
C 2982 -211 3123 -416 3168 -525 
C 3795 -198 4282 211 4659 717 
C 4973 198 5357 -224 5843 -518 
C 5920 -390 6067 -211 6176 -122 
C 5664 154 5261 595 4947 1158 
C 5338 1850 5581 2694 5741 3738 
L 6150 3738 
L 6150 4186 
L 4294 4186 
C 4390 4544 4467 4922 4538 5306 
L 4064 5376 
z
" transform="scale(0.015625)"/>
       <path id="NotoSansCJKjp-Regular-7387" d="M 5376 4038 
C 5139 3782 4704 3437 4384 3226 
L 4736 3014 
C 5056 3226 5472 3520 5798 3821 
L 5376 4038 
z
M 320 1997 
L 557 1613 
C 986 1798 1517 2048 2022 2291 
L 1933 2656 
C 1338 2406 730 2150 320 1997 
z
M 544 3680 
C 902 3482 1344 3174 1555 2957 
L 1888 3258 
C 1670 3469 1222 3757 864 3949 
L 544 3680 
z
M 4262 2458 
C 4768 2202 5408 1811 5715 1542 
L 6067 1850 
C 5734 2112 5094 2490 4595 2733 
L 4262 2458 
z
M 3526 2707 
C 3654 2566 3782 2400 3904 2227 
L 2810 2176 
C 3264 2618 3763 3168 4147 3642 
L 3770 3827 
C 3590 3571 3347 3270 3091 2976 
C 2957 3098 2784 3226 2598 3347 
C 2810 3578 3046 3878 3251 4154 
L 3110 4211 
L 5882 4211 
L 5882 4659 
L 3424 4659 
L 3424 5376 
L 2938 5376 
L 2938 4659 
L 538 4659 
L 538 4211 
L 2771 4211 
C 2643 4000 2470 3750 2310 3546 
L 2131 3654 
L 1894 3373 
C 2202 3174 2579 2906 2822 2682 
C 2650 2490 2470 2310 2304 2150 
L 1811 2131 
L 1882 1715 
L 4128 1882 
C 4211 1747 4275 1626 4320 1517 
L 4691 1709 
C 4550 2035 4192 2515 3872 2874 
L 3526 2707 
z
M 346 1222 
L 346 774 
L 2938 774 
L 2938 -531 
L 3424 -531 
L 3424 774 
L 6061 774 
L 6061 1222 
L 3424 1222 
L 3424 1722 
L 2938 1722 
L 2938 1222 
L 346 1222 
z
" transform="scale(0.015625)"/>
       <path id="NotoSansCJKjp-Regular-6b" d="M 589 0 
L 1165 0 
L 1165 915 
L 1818 1677 
L 2835 0 
L 3469 0 
L 2157 2074 
L 3315 3475 
L 2662 3475 
L 1190 1645 
L 1165 1645 
L 1165 5094 
L 589 5094 
L 589 0 
z
" transform="scale(0.015625)"/>
       <path id="NotoSansCJKjp-Regular-28" d="M 1530 -1254 
L 1888 -1094 
C 1338 -186 1075 902 1075 1990 
C 1075 3072 1338 4154 1888 5069 
L 1530 5235 
C 941 4275 589 3245 589 1990 
C 589 730 941 -301 1530 -1254 
z
" transform="scale(0.015625)"/>
       <path id="NotoSansCJKjp-Regular-29" d="M 634 -1254 
C 1222 -301 1574 730 1574 1990 
C 1574 3245 1222 4275 634 5235 
L 269 5069 
C 819 4154 1094 3072 1094 1990 
C 1094 902 819 -186 269 -1094 
L 634 -1254 
z
" transform="scale(0.015625)"/>
      </defs>
      <use xlink:href="#NotoSansCJKjp-Regular-52"/>
      <use xlink:href="#NotoSansCJKjp-Regular-4c" transform="translate(63.499985 0)"/>
      <use xlink:href="#NotoSansCJKjp-Regular-20" transform="translate(117.799973 0)"/>
      <use xlink:href="#NotoSansCJKjp-Regular-5b66" transform="translate(140.199966 0)"/>
      <use xlink:href="#NotoSansCJKjp-Regular-4e60" transform="translate(240.199951 0)"/>
      <use xlink:href="#NotoSansCJKjp-Regular-6548" transform="translate(340.199936 0)"/>
      <use xlink:href="#NotoSansCJKjp-Regular-7387" transform="translate(440.199921 0)"/>
      <use xlink:href="#NotoSansCJKjp-Regular-20" transform="translate(540.199905 0)"/>
      <use xlink:href="#NotoSansCJKjp-Regular-6b" transform="translate(562.599899 0)"/>
      <use xlink:href="#NotoSansCJKjp-Regular-28" transform="translate(617.799896 0)"/>
      <use xlink:href="#NotoSansCJKjp-Regular-4e" transform="translate(651.599884 0)"/>
      <use xlink:href="#NotoSansCJKjp-Regular-29" transform="translate(723.899872 0)"/>
     </g>
    </g>
   </g>
   <g id="line2d_31">
    <path d="M 44.570938 67.56258 
L 628.058438 67.56258 
" clip-path="url(#pccc8c74bc3)" style="fill: none; stroke-dasharray: 5.18,2.24; stroke-dashoffset: 0; stroke: #c0392b; stroke-opacity: 0.8; stroke-width: 1.4"/>
   </g>
   <g id="patch_4">
    <path d="M 44.570938 325.57295 
L 44.570938 46.92175 
" style="fill: none; stroke: #000000; stroke-width: 0.8; stroke-linejoin: miter; stroke-linecap: square"/>
   </g>
   <g id="patch_5">
    <path d="M 44.570938 325.57295 
L 628.058438 325.57295 
" style="fill: none; stroke: #000000; stroke-width: 0.8; stroke-linejoin: miter; stroke-linecap: square"/>
   </g>
   <g id="line2d_32">
    <path d="M 46.759016 310.968589 
L 49.088873 297.132094 
L 51.41873 284.784066 
L 53.748588 273.696581 
L 56.078445 263.685991 
L 58.408303 254.602669 
L 60.73816 246.323479 
L 63.068017 238.746165 
L 65.397875 231.785104 
L 67.727732 225.368055 
L 70.05759 219.433642 
L 72.387447 213.929391 
L 75.882233 206.38253 
L 79.377019 199.575761 
L 82.871805 193.405304 
L 86.366591 187.78592 
L 89.861378 182.646939 
L 93.356164 177.929284 
L 96.85095 173.583179 
L 100.345736 169.566394 
L 103.840522 165.842866 
L 107.335308 162.381609 
L 111.995023 158.128833 
L 116.654738 154.241168 
L 121.314452 150.673531 
L 125.974167 147.387967 
L 130.633882 144.352296 
L 135.293597 141.539053 
L 141.11824 138.299676 
L 146.942884 135.332098 
L 152.767527 132.603487 
L 159.7571 129.605823 
L 166.746672 126.872303 
L 173.736244 124.369487 
L 181.890745 121.703983 
L 190.045246 119.277411 
L 199.364675 116.757551 
L 208.684105 114.471847 
L 219.168463 112.1417 
L 229.652822 110.032092 
L 241.302109 107.910559 
L 254.116324 105.808935 
L 268.095469 103.752524 
L 283.239542 101.760556 
L 299.548544 99.846872 
L 317.022474 98.020721 
L 336.826262 96.185784 
L 357.794979 94.46944 
L 381.093553 92.788723 
L 406.721984 91.166858 
L 434.680273 89.619811 
L 466.133348 88.105134 
L 501.081209 86.648846 
L 540.688785 85.22943 
L 584.956076 83.873689 
L 628.058438 82.73966 
L 628.058438 82.73966 
" clip-path="url(#pccc8c74bc3)" style="fill: none; stroke: #2c6fbb; stroke-width: 2.8; stroke-linecap: square"/>
   </g>
   <g id="text_18">
    <!-- K_max（学习效率理论上限） -->
    <g style="fill: #c0392b" transform="translate(468.360625 86.638307) scale(0.11 -0.11)">
     <defs>
      <path id="NotoSansCJKjp-Regular-4b" d="M 646 0 
L 1235 0 
L 1235 1485 
L 2042 2445 
L 3450 0 
L 4109 0 
L 2413 2912 
L 3885 4691 
L 3213 4691 
L 1248 2336 
L 1235 2336 
L 1235 4691 
L 646 4691 
L 646 0 
z
" transform="scale(0.015625)"/>
      <path id="NotoSansCJKjp-Regular-5f" d="M 83 -896 
L 3488 -896 
L 3488 -512 
L 83 -512 
L 83 -896 
z
" transform="scale(0.015625)"/>
      <path id="NotoSansCJKjp-Regular-6d" d="M 589 0 
L 1178 0 
L 1178 2522 
C 1491 2880 1786 3053 2048 3053 
C 2490 3053 2694 2778 2694 2125 
L 2694 0 
L 3277 0 
L 3277 2522 
C 3603 2880 3885 3053 4154 3053 
C 4595 3053 4800 2778 4800 2125 
L 4800 0 
L 5382 0 
L 5382 2202 
C 5382 3085 5043 3565 4333 3565 
C 3904 3565 3546 3290 3181 2899 
C 3040 3309 2758 3565 2221 3565 
C 1805 3565 1446 3302 1139 2970 
L 1126 2970 
L 1069 3475 
L 589 3475 
L 589 0 
z
" transform="scale(0.015625)"/>
      <path id="NotoSansCJKjp-Regular-61" d="M 1389 -83 
C 1818 -83 2208 141 2541 416 
L 2560 416 
L 2611 0 
L 3091 0 
L 3091 2138 
C 3091 3002 2739 3565 1888 3565 
C 1325 3565 838 3315 525 3110 
L 749 2707 
C 1024 2893 1389 3078 1792 3078 
C 2362 3078 2509 2650 2509 2202 
C 1030 2035 378 1658 378 902 
C 378 275 806 -83 1389 -83 
z
M 1555 390 
C 1210 390 941 544 941 941 
C 941 1389 1338 1677 2509 1811 
L 2509 845 
C 2170 544 1888 390 1555 390 
z
" transform="scale(0.015625)"/>
      <path id="NotoSansCJKjp-Regular-78" d="M 96 0 
L 710 0 
L 1178 813 
C 1299 1024 1408 1235 1530 1434 
L 1562 1434 
C 1696 1235 1824 1024 1939 813 
L 2451 0 
L 3091 0 
L 1946 1754 
L 3002 3475 
L 2394 3475 
L 1965 2714 
C 1856 2515 1760 2330 1658 2131 
L 1626 2131 
C 1510 2330 1389 2515 1286 2714 
L 819 3475 
L 186 3475 
L 1242 1811 
L 96 0 
z
" transform="scale(0.015625)"/>
      <path id="NotoSansCJKjp-Regular-7406" d="M 3046 3456 
L 4026 3456 
L 4026 2630 
L 3046 2630 
L 3046 3456 
z
M 4442 3456 
L 5421 3456 
L 5421 2630 
L 4442 2630 
L 4442 3456 
z
M 3046 4659 
L 4026 4659 
L 4026 3846 
L 3046 3846 
L 3046 4659 
z
M 4442 4659 
L 5421 4659 
L 5421 3846 
L 4442 3846 
L 4442 4659 
z
M 2035 141 
L 2035 -301 
L 6189 -301 
L 6189 141 
L 4480 141 
L 4480 1024 
L 5971 1024 
L 5971 1459 
L 4480 1459 
L 4480 2214 
L 5882 2214 
L 5882 5082 
L 2605 5082 
L 2605 2214 
L 3987 2214 
L 3987 1459 
L 2528 1459 
L 2528 1024 
L 3987 1024 
L 3987 141 
L 2035 141 
z
M 224 640 
L 346 154 
C 909 339 1645 589 2336 819 
L 2253 1286 
L 1549 1050 
L 1549 2643 
L 2195 2643 
L 2195 3091 
L 1549 3091 
L 1549 4493 
L 2291 4493 
L 2291 4941 
L 294 4941 
L 294 4493 
L 1088 4493 
L 1088 3091 
L 358 3091 
L 358 2643 
L 1088 2643 
L 1088 902 
C 762 800 467 710 224 640 
z
" transform="scale(0.015625)"/>
      <path id="NotoSansCJKjp-Regular-8bba" d="M 685 4915 
C 1075 4595 1568 4141 1798 3846 
L 2125 4211 
C 1882 4493 1376 4934 986 5235 
L 685 4915 
z
M 3981 5389 
C 3667 4621 3008 3680 2016 3021 
C 2125 2944 2272 2771 2342 2662 
C 3142 3226 3731 3930 4147 4627 
C 4621 3885 5306 3142 5914 2714 
C 5990 2835 6144 3008 6253 3091 
C 5587 3501 4819 4307 4384 5062 
L 4499 5299 
L 3981 5389 
z
M 5158 2733 
C 4704 2400 4006 2010 3424 1722 
L 3424 3021 
L 2944 3021 
L 2944 397 
C 2944 -186 3136 -339 3827 -339 
C 3974 -339 5005 -339 5158 -339 
C 5773 -339 5920 -96 5984 794 
C 5850 819 5651 902 5542 986 
C 5504 230 5453 96 5133 96 
C 4902 96 4032 96 3859 96 
C 3488 96 3424 141 3424 390 
L 3424 1235 
C 4064 1523 4883 1946 5478 2330 
L 5158 2733 
z
M 1216 -384 
L 1216 -378 
C 1306 -243 1485 -102 2534 742 
C 2477 832 2400 1018 2355 1146 
L 1722 653 
L 1722 3366 
L 256 3366 
L 256 2899 
L 1261 2899 
L 1261 582 
C 1261 269 1062 58 954 -38 
C 1030 -109 1165 -282 1216 -384 
z
" transform="scale(0.015625)"/>
      <path id="NotoSansCJKjp-Regular-4e0a" d="M 2733 5280 
L 2733 275 
L 326 275 
L 326 -205 
L 6080 -205 
L 6080 275 
L 3238 275 
L 3238 2822 
L 5638 2822 
L 5638 3302 
L 3238 3302 
L 3238 5280 
L 2733 5280 
z
" transform="scale(0.015625)"/>
      <path id="NotoSansCJKjp-Regular-9650" d="M 3309 3482 
L 5261 3482 
L 5261 2675 
L 3309 2675 
L 3309 3482 
z
M 3309 3885 
L 3309 4672 
L 5261 4672 
L 5261 3885 
L 3309 3885 
z
M 5632 2106 
C 5414 1862 5082 1562 4774 1325 
C 4634 1613 4518 1926 4422 2253 
L 5734 2253 
L 5734 5094 
L 2842 5094 
L 2842 179 
L 2118 45 
L 2278 -422 
C 2906 -282 3757 -90 4570 96 
L 4531 512 
L 3309 269 
L 3309 2253 
L 4000 2253 
C 4314 992 4896 -6 5850 -493 
C 5920 -371 6061 -186 6170 -96 
C 5670 128 5274 506 4966 986 
C 5299 1222 5696 1536 6003 1830 
L 5632 2106 
z
M 525 5101 
L 525 -512 
L 979 -512 
L 979 4666 
L 1920 4666 
C 1766 4224 1555 3635 1350 3168 
C 1856 2662 1990 2240 1990 1888 
C 1990 1696 1952 1530 1850 1459 
C 1779 1414 1702 1402 1619 1389 
C 1504 1389 1363 1389 1197 1408 
C 1274 1280 1318 1088 1325 966 
C 1485 960 1664 954 1805 973 
C 1939 992 2067 1024 2163 1094 
C 2349 1222 2438 1485 2432 1843 
C 2432 2240 2310 2694 1792 3226 
C 2035 3731 2298 4390 2502 4922 
L 2182 5120 
L 2106 5101 
L 525 5101 
z
" transform="scale(0.015625)"/>
     </defs>
     <use xlink:href="#NotoSansCJKjp-Regular-4b"/>
     <use xlink:href="#NotoSansCJKjp-Regular-5f" transform="translate(64.599991 0)"/>
     <use xlink:href="#NotoSansCJKjp-Regular-6d" transform="translate(120.499985 0)"/>
     <use xlink:href="#NotoSansCJKjp-Regular-61" transform="translate(213.099976 0)"/>
     <use xlink:href="#NotoSansCJKjp-Regular-78" transform="translate(269.399963 0)"/>
     <use xlink:href="#NotoSansCJKjp-Regular-ff08" transform="translate(319.199951 0)"/>
     <use xlink:href="#NotoSansCJKjp-Regular-5b66" transform="translate(419.199936 0)"/>
     <use xlink:href="#NotoSansCJKjp-Regular-4e60" transform="translate(519.199921 0)"/>
     <use xlink:href="#NotoSansCJKjp-Regular-6548" transform="translate(619.199905 0)"/>
     <use xlink:href="#NotoSansCJKjp-Regular-7387" transform="translate(719.19989 0)"/>
     <use xlink:href="#NotoSansCJKjp-Regular-7406" transform="translate(819.199875 0)"/>
     <use xlink:href="#NotoSansCJKjp-Regular-8bba" transform="translate(919.19986 0)"/>
     <use xlink:href="#NotoSansCJKjp-Regular-4e0a" transform="translate(1019.199844 0)"/>
     <use xlink:href="#NotoSansCJKjp-Regular-9650" transform="translate(1119.199829 0)"/>
     <use xlink:href="#NotoSansCJKjp-Regular-ff09" transform="translate(1219.199814 0)"/>
    </g>
   </g>
   <g id="text_19">
    <!-- 0.5B -->
    <g style="fill: #333333" transform="translate(56.217734 294.117462) scale(0.105 -0.105)">
     <use xlink:href="#NotoSansCJKjp-Regular-30"/>
     <use xlink:href="#NotoSansCJKjp-Regular-2e" transform="translate(55.499985 0)"/>
     <use xlink:href="#NotoSansCJKjp-Regular-35" transform="translate(83.299973 0)"/>
     <use xlink:href="#NotoSansCJKjp-Regular-42" transform="translate(138.799957 0)"/>
    </g>
   </g>
   <g id="text_20">
    <!-- 7B -->
    <g style="fill: #333333" transform="translate(103.626094 191.066901) scale(0.105 -0.105)">
     <use xlink:href="#NotoSansCJKjp-Regular-37"/>
     <use xlink:href="#NotoSansCJKjp-Regular-42" transform="translate(55.499985 0)"/>
    </g>
   </g>
   <g id="text_21">
    <!-- 32B -->
    <g style="fill: #333333" transform="translate(285.965938 120.428846) scale(0.105 -0.105)">
     <use xlink:href="#NotoSansCJKjp-Regular-33"/>
     <use xlink:href="#NotoSansCJKjp-Regular-32" transform="translate(55.499985 0)"/>
     <use xlink:href="#NotoSansCJKjp-Regular-42" transform="translate(110.999969 0)"/>
    </g>
   </g>
   <g id="text_22">
    <!-- 72B -->
    <g style="fill: #333333" transform="translate(577.709688 102.3165) scale(0.105 -0.105)">
     <use xlink:href="#NotoSansCJKjp-Regular-37"/>
     <use xlink:href="#NotoSansCJKjp-Regular-32" transform="translate(55.499985 0)"/>
     <use xlink:href="#NotoSansCJKjp-Regular-42" transform="translate(110.999969 0)"/>
    </g>
   </g>
   <g id="text_23">
    <!-- 32B 之后 -->
    <g style="fill: #a06a00" transform="translate(413.897188 244.632276) scale(0.12 -0.12)">
     <defs>
      <path id="NotoSansCJKjp-Bold-33" d="M 1747 -90 
C 2656 -90 3418 410 3418 1280 
C 3418 1907 3008 2304 2477 2451 
L 2477 2483 
C 2976 2682 3264 3053 3264 3565 
C 3264 4378 2643 4826 1728 4826 
C 1171 4826 717 4602 307 4250 
L 794 3667 
C 1069 3930 1344 4083 1683 4083 
C 2086 4083 2317 3866 2317 3494 
C 2317 3066 2035 2771 1171 2771 
L 1171 2093 
C 2195 2093 2470 1805 2470 1338 
C 2470 915 2144 678 1664 678 
C 1229 678 890 890 608 1165 
L 166 570 
C 499 192 1005 -90 1747 -90 
z
" transform="scale(0.015625)"/>
      <path id="NotoSansCJKjp-Bold-32" d="M 275 0 
L 3450 0 
L 3450 794 
L 2426 794 
C 2202 794 1888 768 1645 736 
C 2509 1587 3226 2509 3226 3366 
C 3226 4250 2630 4826 1734 4826 
C 1088 4826 666 4576 224 4102 
L 749 3597 
C 986 3859 1267 4083 1613 4083 
C 2067 4083 2323 3789 2323 3322 
C 2323 2586 1568 1696 275 544 
L 275 0 
z
" transform="scale(0.015625)"/>
      <path id="NotoSansCJKjp-Bold-42" d="M 582 0 
L 2272 0 
C 3315 0 4102 442 4102 1395 
C 4102 2029 3731 2394 3219 2515 
L 3219 2541 
C 3622 2688 3866 3130 3866 3571 
C 3866 4454 3123 4742 2150 4742 
L 582 4742 
L 582 0 
z
M 1530 2810 
L 1530 4013 
L 2093 4013 
C 2662 4013 2944 3846 2944 3430 
C 2944 3053 2688 2810 2086 2810 
L 1530 2810 
z
M 1530 730 
L 1530 2112 
L 2189 2112 
C 2842 2112 3181 1914 3181 1453 
C 3181 960 2829 730 2189 730 
L 1530 730 
z
" transform="scale(0.015625)"/>
      <path id="NotoSansCJKjp-Bold-20" transform="scale(0.015625)"/>
      <path id="NotoSansCJKjp-Bold-4e4b" d="M 883 -563 
C 1120 -198 1350 224 1549 627 
C 2214 -250 3200 -461 4506 -461 
L 5952 -461 
C 5990 -243 6106 122 6221 294 
C 5837 288 4858 282 4563 288 
C 3917 288 3322 339 2842 538 
C 4006 1421 5190 2714 5907 3923 
L 5325 4288 
L 5171 4250 
L 3584 4250 
L 3584 5434 
L 2790 5434 
L 2790 4250 
L 595 4250 
L 595 3494 
L 4646 3494 
C 4045 2637 3104 1651 2182 986 
C 2074 1101 1984 1235 1907 1389 
L 2080 1792 
L 1306 2074 
C 1069 1370 595 448 128 -96 
L 883 -563 
z
" transform="scale(0.015625)"/>
      <path id="NotoSansCJKjp-Bold-540e" d="M 5094 5421 
C 4237 5178 2867 4998 1555 4890 
L 870 4992 
L 870 3072 
C 870 2118 813 838 128 -64 
C 320 -147 621 -416 736 -582 
C 1517 403 1638 1920 1645 2944 
L 6214 2944 
L 6214 3674 
L 1645 3674 
L 1645 4218 
C 3040 4314 4570 4499 5722 4806 
L 5094 5421 
z
M 2022 2234 
L 2022 -570 
L 2765 -570 
L 2765 -282 
L 4915 -282 
L 4915 -550 
L 5690 -550 
L 5690 2234 
L 2022 2234 
z
M 2765 429 
L 2765 1523 
L 4915 1523 
L 4915 429 
L 2765 429 
z
" transform="scale(0.015625)"/>
     </defs>
     <use xlink:href="#NotoSansCJKjp-Bold-33"/>
     <use xlink:href="#NotoSansCJKjp-Bold-32" transform="translate(58.999985 0)"/>
     <use xlink:href="#NotoSansCJKjp-Bold-42" transform="translate(117.999969 0)"/>
     <use xlink:href="#NotoSansCJKjp-Bold-20" transform="translate(186.09996 0)"/>
     <use xlink:href="#NotoSansCJKjp-Bold-4e4b" transform="translate(208.799957 0)"/>
     <use xlink:href="#NotoSansCJKjp-Bold-540e" transform="translate(308.799942 0)"/>
    </g>
    <!-- 增长几乎停滞 -->
    <g style="fill: #a06a00" transform="translate(402.425 258.703026) scale(0.12 -0.12)">
     <defs>
      <path id="NotoSansCJKjp-Bold-589e" d="M 3046 3309 
C 3130 3110 3213 2842 3245 2669 
L 3686 2816 
C 3654 2970 3565 3232 3469 3424 
L 3046 3309 
z
M 4595 3430 
C 4557 3251 4467 2989 4397 2797 
L 4781 2682 
C 4877 2848 4986 3072 5107 3302 
L 4595 3430 
z
M 2861 5094 
C 2643 4634 2253 4186 1843 3891 
L 1850 3885 
L 1562 3885 
L 1562 5338 
L 819 5338 
L 819 3885 
L 230 3885 
L 230 3155 
L 819 3155 
L 819 1408 
C 557 1293 314 1197 115 1126 
L 371 358 
C 947 621 1658 954 2310 1280 
L 2118 1971 
L 1562 1722 
L 1562 3155 
L 2048 3155 
L 2048 3693 
C 2163 3571 2278 3437 2342 3354 
L 2381 3386 
L 2381 2042 
L 5811 2042 
L 5811 3450 
C 5920 3635 6138 3904 6285 4032 
C 5779 4314 5267 4813 4992 5306 
L 3437 5306 
L 3437 4928 
L 2861 5094 
z
M 2624 1818 
L 2624 -576 
L 3354 -576 
L 3354 -378 
L 4832 -378 
L 4832 -557 
L 5600 -557 
L 5600 1818 
L 2624 1818 
z
M 3354 192 
L 3354 480 
L 4832 480 
L 4832 192 
L 3354 192 
z
M 3354 986 
L 3354 1267 
L 4832 1267 
L 4832 986 
L 3354 986 
z
M 2976 3526 
L 3776 3526 
L 3776 2592 
L 2976 2592 
L 2976 3526 
z
M 4314 3526 
L 5184 3526 
L 5184 2592 
L 4314 2592 
L 4314 3526 
z
M 3027 4077 
C 3181 4275 3322 4486 3437 4698 
L 3437 4659 
L 4608 4659 
C 4749 4461 4909 4262 5082 4077 
L 3027 4077 
z
" transform="scale(0.015625)"/>
      <path id="NotoSansCJKjp-Bold-957f" d="M 4813 5325 
C 4288 4749 3386 4224 2522 3917 
C 2714 3770 3008 3450 3149 3283 
C 3981 3667 4966 4301 5594 4979 
L 4813 5325 
z
M 326 3027 
L 326 2259 
L 1427 2259 
L 1427 627 
C 1427 352 1254 211 1114 141 
C 1222 -6 1363 -326 1408 -512 
C 1606 -390 1914 -294 3680 134 
C 3642 314 3610 646 3610 877 
L 2234 576 
L 2234 2259 
L 3034 2259 
C 3546 954 4352 70 5696 -365 
C 5811 -141 6054 198 6234 371 
C 5069 666 4275 1331 3834 2259 
L 6080 2259 
L 6080 3027 
L 2234 3027 
L 2234 5414 
L 1427 5414 
L 1427 3027 
L 326 3027 
z
" transform="scale(0.015625)"/>
      <path id="NotoSansCJKjp-Bold-51e0" d="M 1485 5165 
L 1485 3162 
C 1485 2131 1376 826 173 -38 
C 346 -147 666 -442 787 -602 
C 2099 339 2298 1990 2298 3149 
L 2298 4410 
L 3962 4410 
L 3962 678 
C 3962 -192 4166 -442 4781 -442 
C 4890 -442 5267 -442 5389 -442 
C 6003 -442 6176 0 6240 1165 
C 6029 1216 5702 1363 5517 1517 
C 5491 563 5466 307 5306 307 
C 5235 307 4986 307 4928 307 
C 4781 307 4762 352 4762 672 
L 4762 5165 
L 1485 5165 
z
" transform="scale(0.015625)"/>
      <path id="NotoSansCJKjp-Bold-4e4e" d="M 915 3859 
C 1133 3437 1370 2886 1440 2541 
L 2144 2816 
C 2054 3168 1805 3699 1568 4102 
L 915 3859 
z
M 4864 4243 
C 4736 3795 4486 3194 4269 2803 
L 4909 2566 
C 5146 2918 5427 3469 5690 3981 
L 4864 4243 
z
M 294 2451 
L 294 1664 
L 2854 1664 
L 2854 384 
C 2854 250 2797 211 2650 205 
C 2502 205 1971 205 1504 230 
C 1632 13 1773 -346 1824 -570 
C 2477 -570 2944 -550 3258 -429 
C 3571 -307 3686 -96 3686 378 
L 3686 1664 
L 6118 1664 
L 6118 2451 
L 3686 2451 
L 3686 4384 
C 4390 4461 5056 4563 5626 4698 
L 5242 5402 
C 4070 5126 2266 4960 666 4902 
C 742 4717 832 4416 851 4211 
C 1491 4224 2176 4256 2854 4307 
L 2854 2451 
L 294 2451 
z
" transform="scale(0.015625)"/>
      <path id="NotoSansCJKjp-Bold-505c" d="M 3226 3482 
L 4973 3482 
L 4973 3130 
L 3226 3130 
L 3226 3482 
z
M 2502 3987 
L 2502 2624 
L 5741 2624 
L 5741 3987 
L 2502 3987 
z
M 1933 2381 
L 1933 1139 
L 2605 1139 
L 2605 1798 
L 5542 1798 
L 5542 1146 
L 6246 1146 
L 6246 2381 
L 1933 2381 
z
M 1517 5414 
C 1190 4499 640 3584 58 3008 
C 186 2822 397 2400 467 2208 
C 614 2362 762 2534 902 2726 
L 902 -563 
L 1632 -563 
L 1632 3866 
C 1798 4166 1952 4486 2086 4800 
L 2086 4224 
L 6163 4224 
L 6163 4870 
L 4467 4870 
L 4467 5427 
L 3699 5427 
L 3699 4870 
L 2118 4870 
L 2240 5184 
L 1517 5414 
z
M 2822 1530 
L 2822 922 
L 3699 922 
L 3699 198 
C 3699 128 3667 102 3565 102 
C 3469 96 3098 96 2790 115 
C 2886 -90 2982 -371 3008 -582 
C 3494 -582 3859 -582 4128 -480 
C 4397 -378 4461 -186 4461 173 
L 4461 922 
L 5363 922 
L 5363 1530 
L 2822 1530 
z
" transform="scale(0.015625)"/>
      <path id="NotoSansCJKjp-Bold-6ede" d="M 179 3104 
C 544 2944 1005 2669 1216 2464 
L 1670 3085 
C 1434 3290 966 3533 602 3674 
L 179 3104 
z
M 275 -83 
L 973 -506 
C 1261 128 1562 870 1811 1562 
L 1190 1984 
C 915 1229 544 422 275 -83 
z
M 2419 5350 
L 2419 4870 
L 1869 4870 
L 1869 4832 
C 1626 5030 1197 5254 870 5402 
L 442 4845 
C 806 4666 1261 4378 1472 4160 
L 1869 4691 
L 1869 4237 
L 2419 4237 
L 2419 3219 
L 5568 3219 
L 5568 4237 
L 6189 4237 
L 6189 4870 
L 5568 4870 
L 5568 5350 
L 4864 5350 
L 4864 4870 
L 4333 4870 
L 4333 5440 
L 3622 5440 
L 3622 4870 
L 3085 4870 
L 3085 5350 
L 2419 5350 
z
M 3622 4237 
L 3622 3834 
L 3085 3834 
L 3085 4237 
L 3622 4237 
z
M 4333 4237 
L 4864 4237 
L 4864 3834 
L 4333 3834 
L 4333 4237 
z
M 3603 2285 
L 3603 1818 
L 2618 1818 
L 2618 2285 
L 3603 2285 
z
M 4333 2285 
L 5370 2285 
L 5370 1818 
L 4333 1818 
L 4333 2285 
z
M 1914 2931 
L 1914 1600 
L 2317 1600 
L 2317 -141 
L 3014 -141 
L 3014 1171 
L 3603 1171 
L 3603 -602 
L 4333 -602 
L 4333 1171 
L 4973 1171 
L 4973 550 
C 4973 486 4954 474 4890 474 
C 4826 467 4634 467 4454 480 
C 4531 294 4614 38 4634 -160 
C 4979 -160 5242 -154 5434 -51 
C 5632 51 5683 230 5683 531 
L 5683 1600 
L 6106 1600 
L 6106 2931 
L 1914 2931 
z
" transform="scale(0.015625)"/>
     </defs>
     <use xlink:href="#NotoSansCJKjp-Bold-589e"/>
     <use xlink:href="#NotoSansCJKjp-Bold-957f" transform="translate(99.999985 0)"/>
     <use xlink:href="#NotoSansCJKjp-Bold-51e0" transform="translate(199.999969 0)"/>
     <use xlink:href="#NotoSansCJKjp-Bold-4e4e" transform="translate(299.999954 0)"/>
     <use xlink:href="#NotoSansCJKjp-Bold-505c" transform="translate(399.999939 0)"/>
     <use xlink:href="#NotoSansCJKjp-Bold-6ede" transform="translate(499.999924 0)"/>
    </g>
   </g>
   <g id="patch_6">
    <path d="M 128.104941 224.895625 
Q 98.27741 226.793764 69.900389 228.599597 
" style="fill: none; stroke: #1a5276; stroke-width: 1.3; stroke-linecap: round"/>
    <path d="M 74.431226 230.515718 
L 69.900389 228.599597 
L 74.151788 226.1246 
" style="fill: none; stroke: #1a5276; stroke-width: 1.3; stroke-linecap: round"/>
   </g>
   <g id="text_24">
    <!-- 小模型阶段：模型越大，RL 越高效 -->
    <g style="fill: #1a5276" transform="translate(132.094063 222.368802) scale(0.11 -0.11)">
     <defs>
      <path id="NotoSansCJKjp-Regular-5c0f" d="M 2970 5286 
L 2970 154 
C 2970 26 2918 -13 2790 -19 
C 2656 -26 2195 -32 1728 -13 
C 1805 -147 1894 -378 1926 -512 
C 2528 -518 2925 -506 3162 -422 
C 3392 -346 3488 -198 3488 154 
L 3488 5286 
L 2970 5286 
z
M 4512 3654 
C 5062 2733 5581 1536 5728 774 
L 6246 986 
C 6080 1754 5536 2931 4973 3827 
L 4512 3654 
z
M 1293 3782 
C 1133 2925 774 1818 205 1139 
C 339 1082 550 966 659 883 
C 1242 1594 1619 2752 1830 3693 
L 1293 3782 
z
" transform="scale(0.015625)"/>
      <path id="NotoSansCJKjp-Regular-9636" d="M 4736 2893 
L 4736 -493 
L 5203 -493 
L 5203 2893 
L 4736 2893 
z
M 3194 2886 
L 3194 1939 
C 3194 1203 3104 390 2310 -256 
C 2445 -320 2643 -442 2746 -538 
C 3571 173 3654 1088 3654 1933 
L 3654 2886 
L 3194 2886 
z
M 4006 5408 
C 3776 4640 3226 3725 2278 3110 
C 2387 3027 2528 2854 2598 2746 
C 3328 3251 3840 3904 4179 4570 
C 4621 3853 5248 3206 5869 2835 
C 5946 2957 6093 3123 6202 3219 
C 5504 3571 4794 4294 4403 5050 
L 4506 5331 
L 4006 5408 
z
M 512 5114 
L 512 -518 
L 986 -518 
L 986 4659 
L 1869 4659 
C 1696 4230 1466 3680 1242 3226 
C 1818 2720 1971 2291 1978 1933 
C 1978 1734 1933 1568 1818 1498 
C 1754 1453 1664 1440 1574 1434 
C 1453 1427 1299 1427 1126 1446 
C 1203 1312 1254 1126 1261 1005 
C 1427 992 1619 992 1766 1011 
C 1907 1030 2035 1062 2138 1133 
C 2342 1274 2432 1542 2432 1894 
C 2432 2298 2304 2758 1728 3290 
C 1984 3789 2272 4397 2496 4922 
L 2163 5133 
L 2093 5114 
L 512 5114 
z
" transform="scale(0.015625)"/>
      <path id="NotoSansCJKjp-Regular-6bb5" d="M 5254 2099 
C 5062 1638 4781 1248 4435 922 
C 4115 1254 3866 1651 3699 2099 
L 5254 2099 
z
M 3002 2534 
L 3002 2099 
L 3597 2099 
L 3264 2003 
C 3462 1472 3738 1011 4083 627 
C 3622 288 3078 45 2509 -102 
C 2598 -205 2720 -397 2771 -525 
C 3373 -346 3936 -83 4422 294 
C 4832 -64 5318 -333 5882 -506 
C 5952 -378 6086 -186 6195 -83 
C 5651 58 5178 294 4787 608 
C 5267 1069 5638 1670 5862 2432 
L 5555 2554 
L 5466 2534 
L 3002 2534 
z
M 2528 5370 
C 2176 5171 1568 4960 998 4806 
L 742 4890 
L 742 979 
L 218 902 
L 301 429 
L 742 506 
L 742 -506 
L 1203 -506 
L 1203 589 
L 2918 902 
L 2899 1344 
L 1203 1056 
L 1203 2035 
L 2733 2035 
L 2733 2483 
L 1203 2483 
L 1203 3264 
L 2675 3264 
L 2675 3712 
L 1203 3712 
L 1203 4448 
C 1805 4595 2458 4794 2938 5030 
L 2528 5370 
z
M 3366 5107 
L 3366 4198 
C 3366 3776 3290 3309 2707 2950 
C 2803 2893 2976 2720 3040 2624 
C 3693 3034 3814 3661 3814 4186 
L 3814 4685 
L 4826 4685 
L 4826 3558 
C 4826 3194 4858 3091 4954 3008 
C 5043 2931 5184 2899 5312 2899 
C 5382 2899 5555 2899 5638 2899 
C 5741 2899 5869 2918 5939 2957 
C 6035 3002 6099 3066 6131 3174 
C 6170 3277 6189 3565 6202 3814 
C 6074 3853 5920 3930 5830 4006 
C 5824 3744 5818 3546 5805 3456 
C 5786 3379 5766 3328 5734 3309 
C 5709 3296 5651 3290 5600 3290 
C 5542 3290 5459 3290 5414 3290 
C 5370 3290 5331 3296 5312 3309 
C 5280 3334 5280 3405 5280 3526 
L 5280 5107 
L 3366 5107 
z
" transform="scale(0.015625)"/>
      <path id="NotoSansCJKjp-Regular-ff1a" d="M 3200 3482 
C 3456 3482 3686 3667 3686 3962 
C 3686 4256 3456 4442 3200 4442 
C 2944 4442 2714 4256 2714 3962 
C 2714 3667 2944 3482 3200 3482 
z
M 3200 346 
C 3456 346 3686 538 3686 826 
C 3686 1120 3456 1312 3200 1312 
C 2944 1312 2714 1120 2714 826 
C 2714 538 2944 346 3200 346 
z
" transform="scale(0.015625)"/>
      <path id="NotoSansCJKjp-Regular-8d8a" d="M 5050 5139 
C 5280 4902 5549 4570 5670 4346 
L 6016 4557 
C 5894 4768 5619 5088 5382 5318 
L 5050 5139 
z
M 5632 3443 
C 5491 2963 5293 2496 5050 2074 
C 4947 2554 4870 3162 4826 3853 
L 6144 3853 
L 6144 4262 
L 4800 4262 
C 4787 4614 4781 4986 4781 5376 
L 4326 5376 
C 4333 4992 4346 4621 4358 4262 
L 3200 4262 
L 3200 1414 
L 2643 1114 
L 2854 730 
C 3328 1005 3936 1370 4499 1715 
L 4371 2074 
L 3635 1658 
L 3635 3853 
L 4384 3853 
C 4448 2963 4550 2182 4723 1594 
C 4422 1203 4077 883 3699 666 
C 3789 589 3923 435 3994 326 
C 4320 538 4614 806 4883 1126 
C 5075 691 5318 435 5632 435 
C 6022 435 6170 710 6240 1600 
C 6131 1651 5984 1734 5888 1830 
C 5869 1158 5805 883 5683 883 
C 5498 883 5325 1120 5190 1536 
C 5542 2061 5818 2675 6010 3341 
L 5632 3443 
z
M 646 2483 
C 659 1626 602 557 134 -211 
C 237 -256 390 -397 461 -493 
C 704 -96 851 365 941 838 
C 1434 -122 2234 -346 3648 -346 
L 6010 -346 
C 6035 -205 6125 19 6202 128 
C 5824 115 3936 115 3642 115 
C 2976 115 2451 166 2042 352 
L 2042 1600 
L 2963 1600 
L 2963 2029 
L 2042 2029 
L 2042 2918 
L 3040 2918 
L 3040 3347 
L 1952 3347 
L 1952 4160 
L 2925 4160 
L 2925 4582 
L 1952 4582 
L 1952 5376 
L 1510 5376 
L 1510 4582 
L 525 4582 
L 525 4160 
L 1510 4160 
L 1510 3347 
L 282 3347 
L 282 2918 
L 1606 2918 
L 1606 634 
C 1357 864 1171 1184 1030 1632 
C 1050 1920 1056 2195 1050 2458 
L 646 2483 
z
" transform="scale(0.015625)"/>
      <path id="NotoSansCJKjp-Regular-5927" d="M 2950 5370 
C 2944 4864 2950 4218 2854 3539 
L 397 3539 
L 397 3046 
L 2771 3046 
C 2515 1830 1875 589 275 -102 
C 410 -205 563 -378 640 -499 
C 2202 218 2893 1446 3206 2682 
C 3706 1222 4531 90 5773 -499 
C 5856 -358 6010 -160 6131 -51 
C 4890 467 4051 1632 3603 3046 
L 6029 3046 
L 6029 3539 
L 3366 3539 
C 3456 4211 3462 4851 3469 5370 
L 2950 5370 
z
" transform="scale(0.015625)"/>
      <path id="NotoSansCJKjp-Regular-ff0c" d="M 1005 -685 
C 1677 -448 2112 77 2112 768 
C 2112 1216 1920 1504 1568 1504 
C 1306 1504 1082 1344 1082 1043 
C 1082 742 1299 589 1562 589 
L 1670 602 
C 1638 160 1357 -141 864 -346 
L 1005 -685 
z
" transform="scale(0.015625)"/>
      <path id="NotoSansCJKjp-Regular-9ad8" d="M 1939 3635 
L 4448 3635 
L 4448 3021 
L 1939 3021 
L 1939 3635 
z
M 1478 3987 
L 1478 2662 
L 4928 2662 
L 4928 3987 
L 1478 3987 
z
M 2918 5382 
L 2918 4768 
L 416 4768 
L 416 4346 
L 5978 4346 
L 5978 4768 
L 3411 4768 
L 3411 5382 
L 2918 5382 
z
M 704 2266 
L 704 -512 
L 1171 -512 
L 1171 1856 
L 5261 1856 
L 5261 70 
C 5261 -19 5235 -45 5120 -51 
C 5018 -58 4653 -58 4237 -45 
C 4301 -179 4371 -365 4390 -499 
C 4922 -499 5267 -499 5478 -422 
C 5683 -346 5741 -205 5741 64 
L 5741 2266 
L 704 2266 
z
M 2406 1088 
L 3994 1088 
L 3994 435 
L 2406 435 
L 2406 1088 
z
M 1984 1440 
L 1984 -243 
L 2406 -243 
L 2406 83 
L 4422 83 
L 4422 1440 
L 1984 1440 
z
" transform="scale(0.015625)"/>
     </defs>
     <use xlink:href="#NotoSansCJKjp-Regular-5c0f"/>
     <use xlink:href="#NotoSansCJKjp-Regular-6a21" transform="translate(99.999985 0)"/>
     <use xlink:href="#NotoSansCJKjp-Regular-578b" transform="translate(199.999969 0)"/>
     <use xlink:href="#NotoSansCJKjp-Regular-9636" transform="translate(299.999954 0)"/>
     <use xlink:href="#NotoSansCJKjp-Regular-6bb5" transform="translate(399.999939 0)"/>
     <use xlink:href="#NotoSansCJKjp-Regular-ff1a" transform="translate(499.999924 0)"/>
     <use xlink:href="#NotoSansCJKjp-Regular-6a21" transform="translate(599.999908 0)"/>
     <use xlink:href="#NotoSansCJKjp-Regular-578b" transform="translate(699.999893 0)"/>
     <use xlink:href="#NotoSansCJKjp-Regular-8d8a" transform="translate(799.999878 0)"/>
     <use xlink:href="#NotoSansCJKjp-Regular-5927" transform="translate(899.999863 0)"/>
     <use xlink:href="#NotoSansCJKjp-Regular-ff0c" transform="translate(999.999847 0)"/>
     <use xlink:href="#NotoSansCJKjp-Regular-52" transform="translate(1099.999832 0)"/>
     <use xlink:href="#NotoSansCJKjp-Regular-4c" transform="translate(1163.499817 0)"/>
     <use xlink:href="#NotoSansCJKjp-Regular-20" transform="translate(1217.799805 0)"/>
     <use xlink:href="#NotoSansCJKjp-Regular-8d8a" transform="translate(1240.199799 0)"/>
     <use xlink:href="#NotoSansCJKjp-Regular-9ad8" transform="translate(1340.199783 0)"/>
     <use xlink:href="#NotoSansCJKjp-Regular-6548" transform="translate(1440.199768 0)"/>
    </g>
   </g>
   <g id="text_25">
    <!-- RL 后训练的学习效率：先陡后平的饱和曲线 -->
    <g transform="translate(200.500469 18.343125) scale(0.14 -0.14)">
     <defs>
      <path id="NotoSansCJKjp-Regular-540e" d="M 5222 5325 
C 4352 5088 2829 4902 1446 4787 
L 954 4883 
L 954 3085 
C 954 2099 883 774 205 -198 
C 326 -256 512 -416 582 -518 
C 1338 538 1434 2048 1434 3078 
L 1434 3142 
L 6163 3142 
L 6163 3603 
L 1434 3603 
L 1434 4358 
C 2886 4461 4518 4653 5626 4947 
L 5222 5325 
z
M 1997 2227 
L 1997 -518 
L 2458 -518 
L 2458 -186 
L 5114 -186 
L 5114 -506 
L 5600 -506 
L 5600 2227 
L 1997 2227 
z
M 2458 262 
L 2458 1779 
L 5114 1779 
L 5114 262 
L 2458 262 
z
" transform="scale(0.015625)"/>
      <path id="NotoSansCJKjp-Regular-8bad" d="M 4102 4877 
L 4102 314 
L 4550 314 
L 4550 4877 
L 4102 4877 
z
M 5434 5216 
L 5434 -429 
L 5914 -429 
L 5914 5216 
L 5434 5216 
z
M 2752 5190 
L 2752 2970 
C 2752 1830 2682 710 2074 -230 
C 2214 -282 2419 -416 2522 -506 
C 3155 506 3226 1734 3226 2963 
L 3226 5190 
L 2752 5190 
z
M 621 4915 
C 1005 4602 1485 4147 1715 3866 
L 2035 4224 
C 1805 4506 1306 4934 922 5235 
L 621 4915 
z
M 1120 -384 
L 1120 -378 
C 1210 -243 1382 -90 2426 781 
C 2362 870 2278 1050 2227 1178 
L 1626 691 
L 1626 3366 
L 256 3366 
L 256 2899 
L 1165 2899 
L 1165 582 
C 1165 269 973 58 858 -38 
C 941 -109 1069 -282 1120 -384 
z
" transform="scale(0.015625)"/>
      <path id="NotoSansCJKjp-Regular-7ec3" d="M 294 365 
L 410 -109 
C 928 109 1594 384 2240 653 
L 2163 1024 
C 1459 768 762 512 294 365 
z
M 4966 1331 
C 5248 864 5594 230 5754 -134 
L 6163 70 
C 5984 435 5638 1050 5350 1504 
L 4966 1331 
z
M 3002 1510 
C 2822 1043 2458 454 2080 77 
C 2182 13 2342 -109 2419 -192 
C 2816 218 3200 845 3450 1376 
L 3002 1510 
z
M 410 2707 
C 499 2752 640 2784 1299 2874 
C 1062 2470 838 2144 742 2016 
C 570 1786 435 1626 307 1600 
C 358 1478 429 1261 454 1165 
C 576 1235 781 1299 2234 1619 
C 2221 1715 2221 1894 2227 2022 
L 1082 1805 
C 1517 2374 1939 3072 2278 3757 
L 1875 3987 
C 1773 3750 1658 3514 1536 3290 
L 864 3226 
C 1210 3789 1542 4512 1779 5197 
L 1325 5395 
C 1120 4621 710 3776 589 3558 
C 461 3341 365 3187 250 3155 
C 307 3034 384 2803 410 2707 
z
M 2406 3571 
L 2406 3130 
L 2957 3130 
L 2829 2816 
C 2694 2496 2592 2272 2470 2240 
C 2528 2118 2598 1901 2624 1805 
C 2682 1862 2893 1901 3194 1901 
L 4045 1901 
L 4045 51 
C 4045 -32 4013 -58 3923 -64 
C 3834 -64 3526 -70 3200 -58 
C 3264 -186 3328 -371 3347 -499 
C 3789 -499 4083 -493 4269 -422 
C 4448 -346 4506 -218 4506 51 
L 4506 1901 
L 5837 1901 
L 5837 2336 
L 4506 2336 
L 4506 3571 
L 3571 3571 
L 3770 4186 
L 5965 4186 
L 5965 4634 
L 3898 4634 
C 3962 4864 4026 5094 4077 5325 
L 3597 5408 
C 3552 5152 3488 4890 3424 4634 
L 2298 4634 
L 2298 4186 
L 3302 4186 
L 3110 3571 
L 2406 3571 
z
M 3085 2336 
C 3194 2579 3302 2848 3411 3130 
L 4045 3130 
L 4045 2336 
L 3085 2336 
z
" transform="scale(0.015625)"/>
      <path id="NotoSansCJKjp-Regular-7684" d="M 3533 2707 
C 3885 2240 4320 1600 4512 1210 
L 4922 1466 
C 4710 1843 4269 2464 3904 2918 
L 3533 2707 
z
M 1536 5389 
C 1485 5082 1376 4659 1274 4346 
L 557 4346 
L 557 -346 
L 998 -346 
L 998 160 
L 2784 160 
L 2784 4346 
L 1715 4346 
C 1824 4621 1946 4979 2054 5299 
L 1536 5389 
z
M 998 3917 
L 2342 3917 
L 2342 2566 
L 998 2566 
L 998 3917 
z
M 998 595 
L 998 2144 
L 2342 2144 
L 2342 595 
L 998 595 
z
M 3827 5402 
C 3622 4518 3277 3635 2835 3066 
C 2950 3002 3149 2867 3238 2790 
C 3456 3098 3661 3488 3840 3923 
L 5478 3923 
C 5402 1357 5299 371 5094 154 
C 5018 64 4947 45 4819 45 
C 4672 45 4288 51 3866 83 
C 3955 -38 4013 -243 4026 -378 
C 4384 -397 4762 -410 4979 -390 
C 5210 -365 5350 -314 5498 -122 
C 5754 192 5843 1184 5939 4122 
C 5946 4186 5946 4365 5946 4365 
L 4013 4365 
C 4115 4666 4211 4986 4288 5299 
L 3827 5402 
z
" transform="scale(0.015625)"/>
      <path id="NotoSansCJKjp-Regular-5148" d="M 2957 5376 
L 2957 4378 
L 1824 4378 
C 1914 4634 1997 4890 2061 5126 
L 1574 5229 
C 1414 4557 1094 3706 653 3162 
C 774 3117 960 3008 1069 2938 
C 1286 3206 1478 3552 1638 3917 
L 2957 3917 
L 2957 2624 
L 390 2624 
L 390 2157 
L 2061 2157 
C 1952 1101 1664 282 301 -141 
C 416 -237 550 -422 608 -544 
C 2067 -38 2426 902 2560 2157 
L 3782 2157 
L 3782 275 
C 3782 -256 3923 -410 4499 -410 
C 4614 -410 5280 -410 5402 -410 
C 5920 -410 6054 -160 6106 813 
C 5971 851 5766 928 5664 1011 
C 5638 179 5600 51 5363 51 
C 5216 51 4666 51 4550 51 
C 4307 51 4262 83 4262 275 
L 4262 2157 
L 6016 2157 
L 6016 2624 
L 3443 2624 
L 3443 3917 
L 5555 3917 
L 5555 4378 
L 3443 4378 
L 3443 5376 
L 2957 5376 
z
" transform="scale(0.015625)"/>
      <path id="NotoSansCJKjp-Regular-9661" d="M 480 5101 
L 480 -512 
L 922 -512 
L 922 4666 
L 1818 4666 
C 1677 4218 1485 3616 1293 3136 
C 1760 2624 1875 2182 1882 1830 
C 1882 1626 1843 1446 1747 1382 
C 1690 1344 1619 1325 1536 1318 
C 1434 1318 1312 1318 1165 1331 
C 1235 1203 1274 1018 1280 890 
C 1434 883 1594 883 1728 902 
C 1856 915 1971 960 2061 1024 
C 2246 1152 2323 1427 2323 1779 
C 2317 2182 2214 2650 1734 3187 
C 1958 3718 2202 4390 2387 4928 
L 2067 5120 
L 1990 5101 
L 480 5101 
z
M 2931 2419 
C 2842 1254 2586 339 1958 -237 
C 2067 -301 2266 -442 2336 -518 
C 2662 -192 2899 224 3066 723 
C 3507 -179 4192 -390 5120 -390 
L 6099 -390 
C 6112 -262 6182 -45 6246 64 
C 6035 58 5306 58 5152 58 
C 4909 58 4685 70 4474 122 
L 4474 1402 
L 5907 1402 
L 5907 1824 
L 4474 1824 
L 4474 2848 
L 6131 2848 
L 6131 3270 
L 4410 3270 
L 4410 4122 
L 5850 4122 
L 5850 4538 
L 4410 4538 
L 4410 5389 
L 3955 5389 
L 3955 4538 
L 2611 4538 
L 2611 4122 
L 3955 4122 
L 3955 3270 
L 2266 3270 
L 2266 2848 
L 4013 2848 
L 4013 288 
C 3674 474 3411 800 3238 1363 
C 3302 1677 3354 2016 3386 2381 
L 2931 2419 
z
" transform="scale(0.015625)"/>
      <path id="NotoSansCJKjp-Regular-5e73" d="M 1114 4032 
C 1363 3558 1613 2938 1702 2554 
L 2157 2714 
C 2067 3085 1805 3699 1549 4160 
L 1114 4032 
z
M 4832 4192 
C 4672 3725 4378 3072 4134 2669 
L 4550 2534 
C 4800 2918 5101 3533 5338 4051 
L 4832 4192 
z
M 333 2227 
L 333 1747 
L 2938 1747 
L 2938 -506 
L 3437 -506 
L 3437 1747 
L 6074 1747 
L 6074 2227 
L 3437 2227 
L 3437 4467 
L 5715 4467 
L 5715 4947 
L 672 4947 
L 672 4467 
L 2938 4467 
L 2938 2227 
L 333 2227 
z
" transform="scale(0.015625)"/>
      <path id="NotoSansCJKjp-Regular-9971" d="M 3405 5363 
C 3174 4602 2790 3859 2330 3373 
C 2406 3277 2541 3053 2586 2957 
C 2707 3091 2822 3238 2938 3405 
L 2938 371 
C 2938 -237 3136 -384 3840 -384 
C 3994 -384 5158 -384 5318 -384 
C 5926 -384 6074 -154 6144 634 
C 6010 666 5824 736 5715 813 
C 5683 166 5619 38 5293 38 
C 5050 38 4051 38 3859 38 
C 3456 38 3386 96 3386 371 
L 3386 1574 
L 4755 1574 
L 4755 3514 
L 3014 3514 
C 3155 3731 3290 3968 3411 4218 
L 5331 4218 
C 5325 2342 5306 1690 5210 1549 
C 5171 1478 5114 1466 5024 1466 
C 4922 1466 4672 1466 4403 1491 
C 4474 1370 4531 1184 4531 1062 
C 4806 1050 5069 1043 5229 1062 
C 5408 1088 5517 1133 5619 1274 
C 5760 1491 5773 2208 5779 4416 
C 5779 4486 5779 4646 5779 4646 
L 3603 4646 
C 3686 4845 3763 5050 3827 5254 
L 3405 5363 
z
M 973 5363 
C 832 4410 589 3482 192 2874 
C 294 2816 480 2662 550 2586 
C 774 2957 966 3430 1120 3962 
L 1997 3962 
C 1901 3642 1779 3309 1664 3085 
L 2035 2950 
C 2221 3290 2413 3827 2554 4294 
L 2246 4397 
L 2170 4371 
L 1229 4371 
C 1299 4666 1363 4973 1414 5280 
L 973 5363 
z
M 1107 -454 
L 1107 -448 
C 1197 -314 1370 -166 2413 691 
C 2362 781 2285 960 2246 1088 
L 1562 544 
L 1562 3091 
L 1107 3091 
L 1107 518 
C 1107 198 947 -19 838 -115 
C 922 -186 1056 -358 1107 -454 
z
M 3386 3117 
L 4333 3117 
L 4333 1978 
L 3386 1978 
L 3386 3117 
z
" transform="scale(0.015625)"/>
      <path id="NotoSansCJKjp-Regular-548c" d="M 3398 4781 
L 3398 -224 
L 3866 -224 
L 3866 301 
L 5293 301 
L 5293 -179 
L 5779 -179 
L 5779 4781 
L 3398 4781 
z
M 3866 762 
L 3866 4320 
L 5293 4320 
L 5293 762 
L 3866 762 
z
M 2810 5318 
C 2246 5088 1235 4896 384 4781 
C 435 4672 499 4506 518 4397 
C 858 4435 1222 4486 1581 4550 
L 1581 3482 
L 320 3482 
L 320 3034 
L 1459 3034 
C 1165 2227 653 1350 166 858 
C 250 736 371 550 429 410 
C 845 851 1267 1587 1581 2342 
L 1581 -499 
L 2054 -499 
L 2054 2323 
C 2330 1958 2688 1472 2835 1229 
L 3130 1626 
C 2976 1824 2291 2630 2054 2874 
L 2054 3034 
L 3174 3034 
L 3174 3482 
L 2054 3482 
L 2054 4646 
C 2458 4730 2829 4826 3130 4941 
L 2810 5318 
z
" transform="scale(0.015625)"/>
      <path id="NotoSansCJKjp-Regular-66f2" d="M 3718 5312 
L 3718 4096 
L 2637 4096 
L 2637 5312 
L 2163 5312 
L 2163 4096 
L 627 4096 
L 627 -512 
L 1082 -512 
L 1082 -102 
L 5331 -102 
L 5331 -486 
L 5798 -486 
L 5798 4096 
L 4186 4096 
L 4186 5312 
L 3718 5312 
z
M 1082 365 
L 1082 1779 
L 2163 1779 
L 2163 365 
L 1082 365 
z
M 5331 365 
L 4186 365 
L 4186 1779 
L 5331 1779 
L 5331 365 
z
M 2637 365 
L 2637 1779 
L 3718 1779 
L 3718 365 
L 2637 365 
z
M 1082 2240 
L 1082 3629 
L 2163 3629 
L 2163 2240 
L 1082 2240 
z
M 5331 2240 
L 4186 2240 
L 4186 3629 
L 5331 3629 
L 5331 2240 
z
M 2637 2240 
L 2637 3629 
L 3718 3629 
L 3718 2240 
L 2637 2240 
z
" transform="scale(0.015625)"/>
      <path id="NotoSansCJKjp-Regular-7ebf" d="M 346 346 
L 448 -115 
C 1037 64 1805 294 2547 512 
L 2477 922 
C 1690 698 877 474 346 346 
z
M 4506 4992 
C 4826 4838 5229 4589 5434 4410 
L 5715 4710 
C 5510 4883 5101 5120 4787 5261 
L 4506 4992 
z
M 461 2707 
C 550 2752 704 2790 1485 2893 
C 1203 2477 954 2157 832 2029 
C 634 1792 486 1632 346 1606 
C 403 1485 474 1261 499 1165 
C 634 1242 851 1306 2458 1632 
C 2445 1728 2445 1907 2458 2035 
L 1184 1805 
C 1670 2381 2157 3085 2566 3789 
L 2163 4032 
C 2042 3795 1901 3552 1760 3322 
L 947 3238 
C 1331 3782 1702 4474 1978 5146 
L 1530 5357 
C 1274 4589 806 3770 666 3558 
C 525 3341 416 3194 301 3162 
C 358 3034 435 2803 461 2707 
z
M 5677 2234 
C 5421 1830 5075 1459 4659 1139 
C 4557 1478 4467 1888 4403 2349 
L 6035 2656 
L 5958 3078 
L 4346 2778 
C 4314 3046 4282 3328 4262 3622 
L 5856 3866 
L 5779 4288 
L 4237 4058 
C 4218 4486 4211 4928 4211 5389 
L 3738 5389 
C 3744 4909 3757 4442 3782 3987 
L 2771 3840 
L 2848 3405 
L 3808 3552 
C 3827 3258 3859 2970 3891 2694 
L 2643 2464 
L 2720 2029 
L 3949 2259 
C 4026 1728 4128 1248 4262 851 
C 3718 486 3091 198 2438 0 
C 2554 -109 2675 -282 2739 -397 
C 3341 -186 3910 90 4422 422 
C 4685 -154 5030 -493 5485 -493 
C 5926 -493 6074 -282 6163 435 
C 6054 480 5901 582 5805 691 
C 5773 122 5709 -26 5536 -26 
C 5254 -26 5018 237 4819 704 
C 5325 1088 5760 1542 6080 2042 
L 5677 2234 
z
" transform="scale(0.015625)"/>
     </defs>
     <use xlink:href="#NotoSansCJKjp-Regular-52"/>
     <use xlink:href="#NotoSansCJKjp-Regular-4c" transform="translate(63.499985 0)"/>
     <use xlink:href="#NotoSansCJKjp-Regular-20" transform="translate(117.799973 0)"/>
     <use xlink:href="#NotoSansCJKjp-Regular-540e" transform="translate(140.199966 0)"/>
     <use xlink:href="#NotoSansCJKjp-Regular-8bad" transform="translate(240.199951 0)"/>
     <use xlink:href="#NotoSansCJKjp-Regular-7ec3" transform="translate(340.199936 0)"/>
     <use xlink:href="#NotoSansCJKjp-Regular-7684" transform="translate(440.199921 0)"/>
     <use xlink:href="#NotoSansCJKjp-Regular-5b66" transform="translate(540.199905 0)"/>
     <use xlink:href="#NotoSansCJKjp-Regular-4e60" transform="translate(640.19989 0)"/>
     <use xlink:href="#NotoSansCJKjp-Regular-6548" transform="translate(740.199875 0)"/>
     <use xlink:href="#NotoSansCJKjp-Regular-7387" transform="translate(840.19986 0)"/>
     <use xlink:href="#NotoSansCJKjp-Regular-ff1a" transform="translate(940.199844 0)"/>
     <use xlink:href="#NotoSansCJKjp-Regular-5148" transform="translate(1040.199829 0)"/>
     <use xlink:href="#NotoSansCJKjp-Regular-9661" transform="translate(1140.199814 0)"/>
     <use xlink:href="#NotoSansCJKjp-Regular-540e" transform="translate(1240.199799 0)"/>
     <use xlink:href="#NotoSansCJKjp-Regular-5e73" transform="translate(1340.199783 0)"/>
     <use xlink:href="#NotoSansCJKjp-Regular-7684" transform="translate(1440.199768 0)"/>
     <use xlink:href="#NotoSansCJKjp-Regular-9971" transform="translate(1540.199753 0)"/>
     <use xlink:href="#NotoSansCJKjp-Regular-548c" transform="translate(1640.199738 0)"/>
     <use xlink:href="#NotoSansCJKjp-Regular-66f2" transform="translate(1740.199722 0)"/>
     <use xlink:href="#NotoSansCJKjp-Regular-7ebf" transform="translate(1840.199707 0)"/>
    </g>
    <!-- $k(N)=K_{max}\,/\,(1+N_0/N)$ -->
    <g transform="translate(258.194688 34.92175) scale(0.14 -0.14)">
     <defs>
      <path id="DejaVuSans-Oblique-6b" d="M 1172 4863 
L 1747 4863 
L 1197 2028 
L 3169 3500 
L 3916 3500 
L 1716 1825 
L 3322 0 
L 2625 0 
L 1131 1709 
L 800 0 
L 225 0 
L 1172 4863 
z
" transform="scale(0.015625)"/>
      <path id="DejaVuSans-28" d="M 1984 4856 
Q 1566 4138 1362 3434 
Q 1159 2731 1159 2009 
Q 1159 1288 1364 580 
Q 1569 -128 1984 -844 
L 1484 -844 
Q 1016 -109 783 600 
Q 550 1309 550 2009 
Q 550 2706 781 3412 
Q 1013 4119 1484 4856 
L 1984 4856 
z
" transform="scale(0.015625)"/>
      <path id="DejaVuSans-Oblique-4e" d="M 1081 4666 
L 1931 4666 
L 3219 666 
L 4000 4666 
L 4616 4666 
L 3706 0 
L 2853 0 
L 1569 4025 
L 788 0 
L 172 0 
L 1081 4666 
z
" transform="scale(0.015625)"/>
      <path id="DejaVuSans-29" d="M 513 4856 
L 1013 4856 
Q 1481 4119 1714 3412 
Q 1947 2706 1947 2009 
Q 1947 1309 1714 600 
Q 1481 -109 1013 -844 
L 513 -844 
Q 928 -128 1133 580 
Q 1338 1288 1338 2009 
Q 1338 2731 1133 3434 
Q 928 4138 513 4856 
z
" transform="scale(0.015625)"/>
      <path id="DejaVuSans-3d" d="M 678 2906 
L 4684 2906 
L 4684 2381 
L 678 2381 
L 678 2906 
z
M 678 1631 
L 4684 1631 
L 4684 1100 
L 678 1100 
L 678 1631 
z
" transform="scale(0.015625)"/>
      <path id="DejaVuSans-Oblique-4b" d="M 1081 4666 
L 1716 4666 
L 1331 2700 
L 3781 4666 
L 4622 4666 
L 1850 2438 
L 3878 0 
L 3109 0 
L 1247 2272 
L 806 0 
L 172 0 
L 1081 4666 
z
" transform="scale(0.015625)"/>
      <path id="DejaVuSans-Oblique-6d" d="M 5747 2113 
L 5338 0 
L 4763 0 
L 5166 2094 
Q 5191 2228 5203 2325 
Q 5216 2422 5216 2491 
Q 5216 2772 5059 2928 
Q 4903 3084 4622 3084 
Q 4203 3084 3875 2770 
Q 3547 2456 3450 1953 
L 3066 0 
L 2491 0 
L 2900 2094 
Q 2925 2209 2937 2307 
Q 2950 2406 2950 2484 
Q 2950 2769 2794 2926 
Q 2638 3084 2363 3084 
Q 1938 3084 1609 2770 
Q 1281 2456 1184 1953 
L 800 0 
L 225 0 
L 909 3500 
L 1484 3500 
L 1375 2956 
Q 1609 3263 1923 3423 
Q 2238 3584 2597 3584 
Q 2978 3584 3223 3384 
Q 3469 3184 3519 2828 
Q 3781 3197 4126 3390 
Q 4472 3584 4856 3584 
Q 5306 3584 5551 3325 
Q 5797 3066 5797 2591 
Q 5797 2488 5784 2364 
Q 5772 2241 5747 2113 
z
" transform="scale(0.015625)"/>
      <path id="DejaVuSans-Oblique-61" d="M 3438 1997 
L 3047 0 
L 2472 0 
L 2578 531 
Q 2325 219 2001 64 
Q 1678 -91 1281 -91 
Q 834 -91 548 182 
Q 263 456 263 884 
Q 263 1497 752 1853 
Q 1241 2209 2100 2209 
L 2900 2209 
L 2931 2363 
Q 2938 2388 2941 2417 
Q 2944 2447 2944 2509 
Q 2944 2788 2717 2942 
Q 2491 3097 2081 3097 
Q 1800 3097 1504 3025 
Q 1209 2953 897 2809 
L 997 3341 
Q 1322 3463 1633 3523 
Q 1944 3584 2234 3584 
Q 2853 3584 3176 3315 
Q 3500 3047 3500 2534 
Q 3500 2431 3484 2292 
Q 3469 2153 3438 1997 
z
M 2816 1759 
L 2241 1759 
Q 1534 1759 1195 1570 
Q 856 1381 856 984 
Q 856 709 1029 553 
Q 1203 397 1509 397 
Q 1978 397 2328 733 
Q 2678 1069 2791 1631 
L 2816 1759 
z
" transform="scale(0.015625)"/>
      <path id="DejaVuSans-Oblique-78" d="M 3841 3500 
L 2234 1784 
L 3219 0 
L 2559 0 
L 1819 1388 
L 531 0 
L -166 0 
L 1556 1844 
L 641 3500 
L 1300 3500 
L 1972 2234 
L 3144 3500 
L 3841 3500 
z
" transform="scale(0.015625)"/>
      <path id="DejaVuSans-2f" d="M 1625 4666 
L 2156 4666 
L 531 -594 
L 0 -594 
L 1625 4666 
z
" transform="scale(0.015625)"/>
      <path id="DejaVuSans-31" d="M 794 531 
L 1825 531 
L 1825 4091 
L 703 3866 
L 703 4441 
L 1819 4666 
L 2450 4666 
L 2450 531 
L 3481 531 
L 3481 0 
L 794 0 
L 794 531 
z
" transform="scale(0.015625)"/>
      <path id="DejaVuSans-2b" d="M 2944 4013 
L 2944 2272 
L 4684 2272 
L 4684 1741 
L 2944 1741 
L 2944 0 
L 2419 0 
L 2419 1741 
L 678 1741 
L 678 2272 
L 2419 2272 
L 2419 4013 
L 2944 4013 
z
" transform="scale(0.015625)"/>
      <path id="DejaVuSans-30" d="M 2034 4250 
Q 1547 4250 1301 3770 
Q 1056 3291 1056 2328 
Q 1056 1369 1301 889 
Q 1547 409 2034 409 
Q 2525 409 2770 889 
Q 3016 1369 3016 2328 
Q 3016 3291 2770 3770 
Q 2525 4250 2034 4250 
z
M 2034 4750 
Q 2819 4750 3233 4129 
Q 3647 3509 3647 2328 
Q 3647 1150 3233 529 
Q 2819 -91 2034 -91 
Q 1250 -91 836 529 
Q 422 1150 422 2328 
Q 422 3509 836 4129 
Q 1250 4750 2034 4750 
z
" transform="scale(0.015625)"/>
     </defs>
     <use xlink:href="#DejaVuSans-Oblique-6b" transform="translate(0 0.015625)"/>
     <use xlink:href="#DejaVuSans-28" transform="translate(57.910156 0.015625)"/>
     <use xlink:href="#DejaVuSans-Oblique-4e" transform="translate(96.923828 0.015625)"/>
     <use xlink:href="#DejaVuSans-29" transform="translate(171.728516 0.015625)"/>
     <use xlink:href="#DejaVuSans-3d" transform="translate(230.224609 0.015625)"/>
     <use xlink:href="#DejaVuSans-Oblique-4b" transform="translate(333.496094 0.015625)"/>
     <use xlink:href="#DejaVuSans-Oblique-6d" transform="translate(399.072266 -16.390625) scale(0.7)"/>
     <use xlink:href="#DejaVuSans-Oblique-61" transform="translate(467.260742 -16.390625) scale(0.7)"/>
     <use xlink:href="#DejaVuSans-Oblique-78" transform="translate(510.15625 -16.390625) scale(0.7)"/>
     <use xlink:href="#DejaVuSans-2f" transform="translate(570.552083 0.015625)"/>
     <use xlink:href="#DejaVuSans-28" transform="translate(620.479165 0.015625)"/>
     <use xlink:href="#DejaVuSans-31" transform="translate(659.492837 0.015625)"/>
     <use xlink:href="#DejaVuSans-2b" transform="translate(742.598306 0.015625)"/>
     <use xlink:href="#DejaVuSans-Oblique-4e" transform="translate(845.86979 0.015625)"/>
     <use xlink:href="#DejaVuSans-30" transform="translate(920.674478 -16.390625) scale(0.7)"/>
     <use xlink:href="#DejaVuSans-2f" transform="translate(967.944985 0.015625)"/>
     <use xlink:href="#DejaVuSans-Oblique-4e" transform="translate(1001.636392 0.015625)"/>
     <use xlink:href="#DejaVuSans-29" transform="translate(1076.441079 0.015625)"/>
    </g>
   </g>
   <g id="PathCollection_1">
    <defs>
     <path id="m1b7c86daef" d="M 0 3.708099 
C 0.983399 3.708099 1.926654 3.317391 2.622022 2.622022 
C 3.317391 1.926654 3.708099 0.983399 3.708099 0 
C 3.708099 -0.983399 3.317391 -1.926654 2.622022 -2.622022 
C 1.926654 -3.317391 0.983399 -3.708099 0 -3.708099 
C -0.983399 -3.708099 -1.926654 -3.317391 -2.622022 -2.622022 
C -3.317391 -1.926654 -3.708099 -0.983399 -3.708099 0 
C -3.708099 0.983399 -3.317391 1.926654 -2.622022 2.622022 
C -1.926654 3.317391 -0.983399 3.708099 0 3.708099 
z
" style="stroke: #ffffff; stroke-width: 1.2"/>
    </defs>
    <g clip-path="url(#pccc8c74bc3)">
     <use xlink:href="#m1b7c86daef" x="48.217734" y="302.117462" style="fill: #2c6fbb; stroke: #ffffff; stroke-width: 1.2"/>
    </g>
   </g>
   <g id="PathCollection_2">
    <g clip-path="url(#pccc8c74bc3)">
     <use xlink:href="#m1b7c86daef" x="55.511328" y="266.032095" style="fill: #2c6fbb; stroke: #ffffff; stroke-width: 1.2"/>
    </g>
   </g>
   <g id="PathCollection_3">
    <g clip-path="url(#pccc8c74bc3)">
     <use xlink:href="#m1b7c86daef" x="66.451719" y="228.819061" style="fill: #2c6fbb; stroke: #ffffff; stroke-width: 1.2"/>
    </g>
   </g>
   <g id="PathCollection_4">
    <g clip-path="url(#pccc8c74bc3)">
     <use xlink:href="#m1b7c86daef" x="95.626094" y="175.066901" style="fill: #2c6fbb; stroke: #ffffff; stroke-width: 1.2"/>
    </g>
   </g>
   <g id="PathCollection_5">
    <g clip-path="url(#pccc8c74bc3)">
     <use xlink:href="#m1b7c86daef" x="146.68125" y="135.460046" style="fill: #2c6fbb; stroke: #ffffff; stroke-width: 1.2"/>
    </g>
   </g>
   <g id="PathCollection_6">
    <g clip-path="url(#pccc8c74bc3)">
     <use xlink:href="#m1b7c86daef" x="277.965938" y="102.428846" style="fill: #2c6fbb; stroke: #ffffff; stroke-width: 1.2"/>
    </g>
   </g>
   <g id="PathCollection_7">
    <g clip-path="url(#pccc8c74bc3)">
     <use xlink:href="#m1b7c86daef" x="569.709688" y="84.3165" style="fill: #2c6fbb; stroke: #ffffff; stroke-width: 1.2"/>
    </g>
   </g>
  </g>
 </g>
 <defs>
  <clipPath id="pccc8c74bc3">
   <rect x="44.570938" y="46.92175" width="583.4875" height="278.6512"/>
  </clipPath>
 </defs>
</svg>
