<?xml version="1.0" encoding="utf-8" standalone="no"?>
<!DOCTYPE svg PUBLIC "-//W3C//DTD SVG 1.1//EN"
  "http://www.w3.org/Graphics/SVG/1.1/DTD/svg11.dtd">
<svg xmlns:xlink="http://www.w3.org/1999/xlink" width="629.29353pt" height="380.2695pt" viewBox="0 0 629.29353 380.2695" xmlns="http://www.w3.org/2000/svg" version="1.1">
 <metadata>
  <rdf:RDF xmlns:dc="http://purl.org/dc/elements/1.1/" xmlns:cc="http://creativecommons.org/ns#" xmlns:rdf="http://www.w3.org/1999/02/22-rdf-syntax-ns#">
   <cc:Work>
    <dc:type rdf:resource="http://purl.org/dc/dcmitype/StillImage"/>
    <dc:date>2026-05-29T16:07:56.790814</dc:date>
    <dc:format>image/svg+xml</dc:format>
    <dc:creator>
     <cc:Agent>
      <dc:title>Matplotlib v3.10.9, https://matplotlib.org/</dc:title>
     </cc:Agent>
    </dc:creator>
   </cc:Work>
  </rdf:RDF>
 </metadata>
 <defs>
  <style type="text/css">*{stroke-linejoin: round; stroke-linecap: butt}</style>
 </defs>
 <g id="figure_1">
  <g id="patch_1">
   <path d="M 0 380.2695 
L 629.29353 380.2695 
L 629.29353 0 
L 0 0 
z
" style="fill: #ffffff"/>
  </g>
  <g id="axes_1">
   <g id="patch_2">
    <path d="M 44.379688 339.5195 
L 603.200748 339.5195 
L 603.200748 31.03 
L 44.379688 31.03 
z
" style="fill: #ffffff"/>
   </g>
   <g id="matplotlib.axis_1">
    <g id="xtick_1">
     <g id="line2d_1">
      <path d="M 117.486906 339.5195 
L 117.486906 31.03 
" clip-path="url(#p71d6685883)" style="fill: none; stroke-dasharray: 0.8,1.32; stroke-dashoffset: 0; stroke: #b0b0b0; stroke-opacity: 0.25; stroke-width: 0.8"/>
     </g>
     <g id="line2d_2">
      <defs>
       <path id="m145c445e1d" d="M 0 0 
L 0 3.5 
" style="stroke: #000000; stroke-width: 0.8"/>
      </defs>
      <g>
       <use xlink:href="#m145c445e1d" x="117.486906" y="339.5195" style="stroke: #000000; stroke-width: 0.8"/>
      </g>
     </g>
     <g id="text_1">
      <!-- $\mathdefault{10^{-1}}$ -->
      <g transform="translate(107.836906 354.478875) scale(0.1 -0.1)">
       <defs>
        <path id="NotoSansCJKjp-Regular-31" d="M 563 0 
L 3136 0 
L 3136 486 
L 2195 486 
L 2195 4691 
L 1747 4691 
C 1491 4544 1190 4435 774 4358 
L 774 3987 
L 1613 3987 
L 1613 486 
L 563 486 
L 563 0 
z
" transform="scale(0.015625)"/>
        <path id="NotoSansCJKjp-Regular-30" d="M 1779 -83 
C 2669 -83 3238 723 3238 2362 
C 3238 3987 2669 4774 1779 4774 
C 883 4774 320 3987 320 2362 
C 320 723 883 -83 1779 -83 
z
M 1779 390 
C 1248 390 883 986 883 2362 
C 883 3731 1248 4314 1779 4314 
C 2310 4314 2675 3731 2675 2362 
C 2675 986 2310 390 1779 390 
z
" transform="scale(0.015625)"/>
        <path id="NotoSansCJKjp-Regular-2212" d="M 243 2144 
L 3315 2144 
L 3315 2579 
L 243 2579 
L 243 2144 
z
" transform="scale(0.015625)"/>
       </defs>
       <use xlink:href="#NotoSansCJKjp-Regular-31" transform="translate(0 0.684375)"/>
       <use xlink:href="#NotoSansCJKjp-Regular-30" transform="translate(55.499985 0.684375)"/>
       <use xlink:href="#NotoSansCJKjp-Regular-2212" transform="translate(111.950165 38.692188) scale(0.7)"/>
       <use xlink:href="#NotoSansCJKjp-Regular-31" transform="translate(150.800154 38.692188) scale(0.7)"/>
      </g>
     </g>
    </g>
    <g id="xtick_2">
     <g id="line2d_3">
      <path d="M 360.343827 339.5195 
L 360.343827 31.03 
" clip-path="url(#p71d6685883)" style="fill: none; stroke-dasharray: 0.8,1.32; stroke-dashoffset: 0; stroke: #b0b0b0; stroke-opacity: 0.25; stroke-width: 0.8"/>
     </g>
     <g id="line2d_4">
      <g>
       <use xlink:href="#m145c445e1d" x="360.343827" y="339.5195" style="stroke: #000000; stroke-width: 0.8"/>
      </g>
     </g>
     <g id="text_2">
      <!-- $\mathdefault{10^{0}}$ -->
      <g transform="translate(352.643827 354.478875) scale(0.1 -0.1)">
       <use xlink:href="#NotoSansCJKjp-Regular-31" transform="translate(0 0.776563)"/>
       <use xlink:href="#NotoSansCJKjp-Regular-30" transform="translate(55.499985 0.776563)"/>
       <use xlink:href="#NotoSansCJKjp-Regular-30" transform="translate(111.950165 38.784375) scale(0.7)"/>
      </g>
     </g>
    </g>
    <g id="xtick_3">
     <g id="line2d_5">
      <path d="M 603.200748 339.5195 
L 603.200748 31.03 
" clip-path="url(#p71d6685883)" style="fill: none; stroke-dasharray: 0.8,1.32; stroke-dashoffset: 0; stroke: #b0b0b0; stroke-opacity: 0.25; stroke-width: 0.8"/>
     </g>
     <g id="line2d_6">
      <g>
       <use xlink:href="#m145c445e1d" x="603.200748" y="339.5195" style="stroke: #000000; stroke-width: 0.8"/>
      </g>
     </g>
     <g id="text_3">
      <!-- $\mathdefault{10^{1}}$ -->
      <g transform="translate(595.500748 354.478875) scale(0.1 -0.1)">
       <use xlink:href="#NotoSansCJKjp-Regular-31" transform="translate(0 0.684375)"/>
       <use xlink:href="#NotoSansCJKjp-Regular-30" transform="translate(55.499985 0.684375)"/>
       <use xlink:href="#NotoSansCJKjp-Regular-31" transform="translate(111.950165 38.692188) scale(0.7)"/>
      </g>
     </g>
    </g>
    <g id="xtick_4">
     <g id="line2d_7">
      <defs>
       <path id="m9034f28644" d="M 0 0 
L 0 2 
" style="stroke: #000000; stroke-width: 0.6"/>
      </defs>
      <g>
       <use xlink:href="#m9034f28644" x="44.379687" y="339.5195" style="stroke: #000000; stroke-width: 0.6"/>
      </g>
     </g>
    </g>
    <g id="xtick_5">
     <g id="line2d_8">
      <g>
       <use xlink:href="#m9034f28644" x="63.609401" y="339.5195" style="stroke: #000000; stroke-width: 0.6"/>
      </g>
     </g>
    </g>
    <g id="xtick_6">
     <g id="line2d_9">
      <g>
       <use xlink:href="#m9034f28644" x="79.867892" y="339.5195" style="stroke: #000000; stroke-width: 0.6"/>
      </g>
     </g>
    </g>
    <g id="xtick_7">
     <g id="line2d_10">
      <g>
       <use xlink:href="#m9034f28644" x="93.951638" y="339.5195" style="stroke: #000000; stroke-width: 0.6"/>
      </g>
     </g>
    </g>
    <g id="xtick_8">
     <g id="line2d_11">
      <g>
       <use xlink:href="#m9034f28644" x="106.374382" y="339.5195" style="stroke: #000000; stroke-width: 0.6"/>
      </g>
     </g>
    </g>
    <g id="xtick_9">
     <g id="line2d_12">
      <g>
       <use xlink:href="#m9034f28644" x="190.594124" y="339.5195" style="stroke: #000000; stroke-width: 0.6"/>
      </g>
     </g>
    </g>
    <g id="xtick_10">
     <g id="line2d_13">
      <g>
       <use xlink:href="#m9034f28644" x="233.359105" y="339.5195" style="stroke: #000000; stroke-width: 0.6"/>
      </g>
     </g>
    </g>
    <g id="xtick_11">
     <g id="line2d_14">
      <g>
       <use xlink:href="#m9034f28644" x="263.701342" y="339.5195" style="stroke: #000000; stroke-width: 0.6"/>
      </g>
     </g>
    </g>
    <g id="xtick_12">
     <g id="line2d_15">
      <g>
       <use xlink:href="#m9034f28644" x="287.236609" y="339.5195" style="stroke: #000000; stroke-width: 0.6"/>
      </g>
     </g>
    </g>
    <g id="xtick_13">
     <g id="line2d_16">
      <g>
       <use xlink:href="#m9034f28644" x="306.466323" y="339.5195" style="stroke: #000000; stroke-width: 0.6"/>
      </g>
     </g>
    </g>
    <g id="xtick_14">
     <g id="line2d_17">
      <g>
       <use xlink:href="#m9034f28644" x="322.724814" y="339.5195" style="stroke: #000000; stroke-width: 0.6"/>
      </g>
     </g>
    </g>
    <g id="xtick_15">
     <g id="line2d_18">
      <g>
       <use xlink:href="#m9034f28644" x="336.80856" y="339.5195" style="stroke: #000000; stroke-width: 0.6"/>
      </g>
     </g>
    </g>
    <g id="xtick_16">
     <g id="line2d_19">
      <g>
       <use xlink:href="#m9034f28644" x="349.231304" y="339.5195" style="stroke: #000000; stroke-width: 0.6"/>
      </g>
     </g>
    </g>
    <g id="xtick_17">
     <g id="line2d_20">
      <g>
       <use xlink:href="#m9034f28644" x="433.451045" y="339.5195" style="stroke: #000000; stroke-width: 0.6"/>
      </g>
     </g>
    </g>
    <g id="xtick_18">
     <g id="line2d_21">
      <g>
       <use xlink:href="#m9034f28644" x="476.216026" y="339.5195" style="stroke: #000000; stroke-width: 0.6"/>
      </g>
     </g>
    </g>
    <g id="xtick_19">
     <g id="line2d_22">
      <g>
       <use xlink:href="#m9034f28644" x="506.558263" y="339.5195" style="stroke: #000000; stroke-width: 0.6"/>
      </g>
     </g>
    </g>
    <g id="xtick_20">
     <g id="line2d_23">
      <g>
       <use xlink:href="#m9034f28644" x="530.09353" y="339.5195" style="stroke: #000000; stroke-width: 0.6"/>
      </g>
     </g>
    </g>
    <g id="xtick_21">
     <g id="line2d_24">
      <g>
       <use xlink:href="#m9034f28644" x="549.323244" y="339.5195" style="stroke: #000000; stroke-width: 0.6"/>
      </g>
     </g>
    </g>
    <g id="xtick_22">
     <g id="line2d_25">
      <g>
       <use xlink:href="#m9034f28644" x="565.581735" y="339.5195" style="stroke: #000000; stroke-width: 0.6"/>
      </g>
     </g>
    </g>
    <g id="xtick_23">
     <g id="line2d_26">
      <g>
       <use xlink:href="#m9034f28644" x="579.665481" y="339.5195" style="stroke: #000000; stroke-width: 0.6"/>
      </g>
     </g>
    </g>
    <g id="xtick_24">
     <g id="line2d_27">
      <g>
       <use xlink:href="#m9034f28644" x="592.088225" y="339.5195" style="stroke: #000000; stroke-width: 0.6"/>
      </g>
     </g>
    </g>
    <g id="text_4">
     <!-- RL 训练算力 C（对数尺度，任意单位） -->
     <g transform="translate(220.205843 370.32075) scale(0.12 -0.12)">
      <defs>
       <path id="NotoSansCJKjp-Regular-52" d="M 1235 2464 
L 1235 4211 
L 2022 4211 
C 2758 4211 3162 3994 3162 3379 
C 3162 2765 2758 2464 2022 2464 
L 1235 2464 
z
M 3219 0 
L 3885 0 
L 2694 2054 
C 3328 2208 3750 2643 3750 3379 
C 3750 4352 3066 4691 2112 4691 
L 646 4691 
L 646 0 
L 1235 0 
L 1235 1990 
L 2080 1990 
L 3219 0 
z
" transform="scale(0.015625)"/>
       <path id="NotoSansCJKjp-Regular-4c" d="M 646 0 
L 3290 0 
L 3290 506 
L 1235 506 
L 1235 4691 
L 646 4691 
L 646 0 
z
" transform="scale(0.015625)"/>
       <path id="NotoSansCJKjp-Regular-20" transform="scale(0.015625)"/>
       <path id="NotoSansCJKjp-Regular-8bad" d="M 4102 4877 
L 4102 314 
L 4550 314 
L 4550 4877 
L 4102 4877 
z
M 5434 5216 
L 5434 -429 
L 5914 -429 
L 5914 5216 
L 5434 5216 
z
M 2752 5190 
L 2752 2970 
C 2752 1830 2682 710 2074 -230 
C 2214 -282 2419 -416 2522 -506 
C 3155 506 3226 1734 3226 2963 
L 3226 5190 
L 2752 5190 
z
M 621 4915 
C 1005 4602 1485 4147 1715 3866 
L 2035 4224 
C 1805 4506 1306 4934 922 5235 
L 621 4915 
z
M 1120 -384 
L 1120 -378 
C 1210 -243 1382 -90 2426 781 
C 2362 870 2278 1050 2227 1178 
L 1626 691 
L 1626 3366 
L 256 3366 
L 256 2899 
L 1165 2899 
L 1165 582 
C 1165 269 973 58 858 -38 
C 941 -109 1069 -282 1120 -384 
z
" transform="scale(0.015625)"/>
       <path id="NotoSansCJKjp-Regular-7ec3" d="M 294 365 
L 410 -109 
C 928 109 1594 384 2240 653 
L 2163 1024 
C 1459 768 762 512 294 365 
z
M 4966 1331 
C 5248 864 5594 230 5754 -134 
L 6163 70 
C 5984 435 5638 1050 5350 1504 
L 4966 1331 
z
M 3002 1510 
C 2822 1043 2458 454 2080 77 
C 2182 13 2342 -109 2419 -192 
C 2816 218 3200 845 3450 1376 
L 3002 1510 
z
M 410 2707 
C 499 2752 640 2784 1299 2874 
C 1062 2470 838 2144 742 2016 
C 570 1786 435 1626 307 1600 
C 358 1478 429 1261 454 1165 
C 576 1235 781 1299 2234 1619 
C 2221 1715 2221 1894 2227 2022 
L 1082 1805 
C 1517 2374 1939 3072 2278 3757 
L 1875 3987 
C 1773 3750 1658 3514 1536 3290 
L 864 3226 
C 1210 3789 1542 4512 1779 5197 
L 1325 5395 
C 1120 4621 710 3776 589 3558 
C 461 3341 365 3187 250 3155 
C 307 3034 384 2803 410 2707 
z
M 2406 3571 
L 2406 3130 
L 2957 3130 
L 2829 2816 
C 2694 2496 2592 2272 2470 2240 
C 2528 2118 2598 1901 2624 1805 
C 2682 1862 2893 1901 3194 1901 
L 4045 1901 
L 4045 51 
C 4045 -32 4013 -58 3923 -64 
C 3834 -64 3526 -70 3200 -58 
C 3264 -186 3328 -371 3347 -499 
C 3789 -499 4083 -493 4269 -422 
C 4448 -346 4506 -218 4506 51 
L 4506 1901 
L 5837 1901 
L 5837 2336 
L 4506 2336 
L 4506 3571 
L 3571 3571 
L 3770 4186 
L 5965 4186 
L 5965 4634 
L 3898 4634 
C 3962 4864 4026 5094 4077 5325 
L 3597 5408 
C 3552 5152 3488 4890 3424 4634 
L 2298 4634 
L 2298 4186 
L 3302 4186 
L 3110 3571 
L 2406 3571 
z
M 3085 2336 
C 3194 2579 3302 2848 3411 3130 
L 4045 3130 
L 4045 2336 
L 3085 2336 
z
" transform="scale(0.015625)"/>
       <path id="NotoSansCJKjp-Regular-7b97" d="M 1613 2925 
L 4890 2925 
L 4890 2547 
L 1613 2547 
L 1613 2925 
z
M 1613 2240 
L 4890 2240 
L 4890 1856 
L 1613 1856 
L 1613 2240 
z
M 1613 3597 
L 4890 3597 
L 4890 3232 
L 1613 3232 
L 1613 3597 
z
M 3686 5408 
C 3507 4915 3181 4448 2790 4141 
C 2899 4096 3085 3994 3181 3923 
L 1894 3923 
L 2259 4058 
C 2214 4179 2118 4352 2016 4506 
L 3117 4506 
L 3117 4902 
L 1427 4902 
C 1498 5030 1562 5158 1619 5286 
L 1171 5408 
C 966 4909 614 4410 224 4083 
C 333 4019 525 3891 614 3814 
C 813 4000 1011 4243 1184 4506 
L 1517 4506 
C 1645 4314 1773 4077 1837 3923 
L 1133 3923 
L 1133 1530 
L 1990 1530 
L 1990 1114 
L 1984 973 
L 358 973 
L 358 576 
L 1830 576 
C 1651 307 1267 38 461 -160 
C 563 -250 698 -416 762 -518 
C 1786 -224 2214 179 2381 576 
L 4109 576 
L 4109 -499 
L 4602 -499 
L 4602 576 
L 6067 576 
L 6067 973 
L 4602 973 
L 4602 1530 
L 5389 1530 
L 5389 3923 
L 4749 3923 
L 5094 4083 
C 5030 4205 4915 4358 4787 4506 
L 6016 4506 
L 6016 4902 
L 3968 4902 
C 4038 5030 4096 5165 4147 5299 
L 3686 5408 
z
M 4109 973 
L 2470 973 
L 2477 1101 
L 2477 1530 
L 4109 1530 
L 4109 973 
z
M 3232 3923 
C 3405 4083 3578 4282 3731 4506 
L 4243 4506 
C 4416 4320 4595 4090 4678 3923 
L 3232 3923 
z
" transform="scale(0.015625)"/>
       <path id="NotoSansCJKjp-Regular-529b" d="M 2624 5363 
L 2624 4256 
L 2624 3981 
L 531 3981 
L 531 3488 
L 2598 3488 
C 2502 2285 2080 877 339 -160 
C 461 -243 634 -422 710 -538 
C 2573 595 3008 2157 3098 3488 
L 5293 3488 
C 5165 1229 5024 320 4794 102 
C 4717 19 4634 0 4499 0 
C 4339 0 3930 6 3488 45 
C 3584 -96 3642 -307 3654 -448 
C 4051 -467 4461 -480 4678 -461 
C 4928 -435 5075 -390 5229 -198 
C 5517 115 5645 1075 5792 3725 
C 5798 3795 5805 3981 5805 3981 
L 3123 3981 
L 3123 4256 
L 3123 5363 
L 2624 5363 
z
" transform="scale(0.015625)"/>
       <path id="NotoSansCJKjp-Regular-43" d="M 2413 -83 
C 3021 -83 3482 160 3853 589 
L 3526 966 
C 3226 634 2886 435 2438 435 
C 1542 435 979 1178 979 2362 
C 979 3533 1574 4256 2458 4256 
C 2861 4256 3168 4077 3418 3814 
L 3738 4198 
C 3469 4499 3021 4774 2451 4774 
C 1261 4774 371 3859 371 2342 
C 371 819 1242 -83 2413 -83 
z
" transform="scale(0.015625)"/>
       <path id="NotoSansCJKjp-Regular-ff08" d="M 4448 2432 
C 4448 1184 4954 166 5722 -614 
L 6106 -416 
C 5370 346 4915 1293 4915 2432 
C 4915 3571 5370 4518 6106 5280 
L 5722 5478 
C 4954 4698 4448 3680 4448 2432 
z
" transform="scale(0.015625)"/>
       <path id="NotoSansCJKjp-Regular-5bf9" d="M 3213 2522 
C 3514 2067 3802 1459 3904 1075 
L 4326 1286 
C 4224 1670 3917 2259 3603 2701 
L 3213 2522 
z
M 582 2899 
C 973 2547 1389 2131 1760 1709 
C 1376 890 870 269 288 -109 
C 403 -205 550 -384 627 -499 
C 1216 -77 1715 512 2106 1299 
C 2394 941 2630 602 2784 314 
L 3168 666 
C 2982 998 2682 1395 2330 1798 
C 2624 2534 2835 3411 2944 4448 
L 2630 4538 
L 2547 4518 
L 448 4518 
L 448 4064 
L 2419 4064 
C 2323 3373 2170 2752 1965 2202 
C 1626 2554 1267 2899 922 3200 
L 582 2899 
z
M 4896 5376 
L 4896 3834 
L 3085 3834 
L 3085 3373 
L 4896 3373 
L 4896 141 
C 4896 26 4851 -6 4742 -13 
C 4634 -13 4275 -19 3872 0 
C 3936 -147 4006 -371 4032 -506 
C 4576 -506 4902 -493 5094 -410 
C 5293 -326 5370 -179 5370 141 
L 5370 3373 
L 6138 3373 
L 6138 3834 
L 5370 3834 
L 5370 5376 
L 4896 5376 
z
" transform="scale(0.015625)"/>
       <path id="NotoSansCJKjp-Regular-6570" d="M 2803 5254 
C 2688 4998 2483 4627 2317 4403 
L 2643 4243 
C 2816 4454 3027 4781 3219 5075 
L 2803 5254 
z
M 531 5075 
C 704 4806 870 4454 928 4230 
L 1312 4397 
C 1248 4627 1075 4973 890 5222 
L 531 5075 
z
M 4026 5382 
C 3846 4243 3507 3162 2970 2490 
C 3078 2413 3283 2246 3360 2163 
C 3533 2394 3693 2669 3827 2970 
C 3974 2310 4160 1709 4410 1184 
C 4090 698 3667 314 3110 19 
C 2912 166 2656 326 2374 480 
C 2598 774 2746 1126 2829 1562 
L 3398 1562 
L 3398 1958 
L 1677 1958 
L 1894 2413 
L 1779 2438 
L 2061 2438 
L 2061 3398 
C 2374 3168 2771 2854 2938 2701 
L 3206 3046 
C 3034 3174 2336 3616 2061 3776 
L 2061 3802 
L 3373 3802 
L 3373 4198 
L 2061 4198 
L 2061 5382 
L 1613 5382 
L 1613 4198 
L 288 4198 
L 288 3802 
L 1485 3802 
C 1171 3379 678 2982 218 2784 
C 314 2694 422 2528 480 2419 
C 870 2637 1293 2989 1613 3373 
L 1613 2477 
L 1440 2515 
L 1178 1958 
L 250 1958 
L 250 1562 
L 979 1562 
C 806 1222 627 896 486 653 
L 909 506 
L 1005 678 
C 1222 589 1434 493 1638 384 
C 1306 147 858 -13 269 -109 
C 352 -211 448 -384 480 -512 
C 1171 -365 1683 -154 2061 160 
C 2355 -13 2611 -186 2810 -352 
L 2963 -192 
C 3046 -301 3136 -448 3174 -531 
C 3802 -205 4288 205 4666 710 
C 4979 192 5370 -224 5862 -512 
C 5939 -378 6093 -192 6208 -96 
C 5690 173 5280 614 4960 1165 
C 5350 1856 5594 2707 5754 3750 
L 6144 3750 
L 6144 4198 
L 4262 4198 
C 4358 4557 4442 4928 4506 5312 
L 4026 5382 
z
M 1478 1562 
L 2368 1562 
C 2285 1216 2157 928 1965 698 
C 1715 819 1459 934 1197 1030 
L 1478 1562 
z
M 4134 3750 
L 5254 3750 
C 5139 2950 4966 2266 4698 1696 
C 4435 2298 4250 3002 4134 3750 
z
" transform="scale(0.015625)"/>
       <path id="NotoSansCJKjp-Regular-5c3a" d="M 1139 5069 
L 1139 3258 
C 1139 2208 1062 800 211 -198 
C 320 -256 525 -435 608 -538 
C 1338 314 1568 1530 1632 2554 
L 3290 2554 
C 3699 1056 4467 -13 5798 -499 
C 5869 -358 6016 -166 6131 -58 
C 4896 326 4147 1280 3782 2554 
L 5510 2554 
L 5510 5069 
L 1139 5069 
z
M 1651 4595 
L 5018 4595 
L 5018 3021 
L 1651 3021 
L 1651 3258 
L 1651 4595 
z
" transform="scale(0.015625)"/>
       <path id="NotoSansCJKjp-Regular-5ea6" d="M 2470 4141 
L 2470 3584 
L 1440 3584 
L 1440 3187 
L 2470 3187 
L 2470 2125 
L 4960 2125 
L 4960 3187 
L 5997 3187 
L 5997 3584 
L 4960 3584 
L 4960 4141 
L 4486 4141 
L 4486 3584 
L 2931 3584 
L 2931 4141 
L 2470 4141 
z
M 4486 3187 
L 4486 2509 
L 2931 2509 
L 2931 3187 
L 4486 3187 
z
M 4851 1318 
C 4582 986 4211 717 3770 506 
C 3334 723 2970 992 2720 1318 
L 4851 1318 
z
M 1530 1715 
L 1530 1318 
L 2502 1318 
L 2259 1222 
C 2515 858 2861 550 3270 301 
C 2662 90 1978 -38 1280 -109 
C 1357 -211 1453 -397 1485 -512 
C 2291 -416 3072 -243 3757 45 
C 4365 -237 5088 -422 5869 -525 
C 5933 -403 6048 -211 6150 -109 
C 5466 -38 4819 96 4269 294 
C 4813 608 5261 1024 5549 1574 
L 5248 1734 
L 5165 1715 
L 1530 1715 
z
M 774 4742 
L 774 2893 
C 774 1965 730 659 198 -256 
C 314 -307 512 -435 595 -518 
C 1152 448 1235 1901 1235 2893 
L 1235 4307 
L 6035 4307 
L 6035 4742 
L 3635 4742 
L 3635 5376 
L 3142 5376 
L 3142 4742 
L 774 4742 
z
" transform="scale(0.015625)"/>
       <path id="NotoSansCJKjp-Regular-ff0c" d="M 1005 -685 
C 1677 -448 2112 77 2112 768 
C 2112 1216 1920 1504 1568 1504 
C 1306 1504 1082 1344 1082 1043 
C 1082 742 1299 589 1562 589 
L 1670 602 
C 1638 160 1357 -141 864 -346 
L 1005 -685 
z
" transform="scale(0.015625)"/>
       <path id="NotoSansCJKjp-Regular-4efb" d="M 2195 198 
L 2195 -262 
L 6042 -262 
L 6042 198 
L 4333 198 
L 4333 2176 
L 6144 2176 
L 6144 2637 
L 4333 2637 
L 4333 4422 
C 4909 4531 5453 4666 5888 4813 
L 5530 5216 
C 4742 4928 3347 4678 2157 4518 
C 2208 4410 2278 4230 2298 4115 
C 2797 4173 3328 4243 3846 4333 
L 3846 2637 
L 1946 2637 
L 1946 2176 
L 3846 2176 
L 3846 198 
L 2195 198 
z
M 1888 5376 
C 1485 4371 832 3386 141 2758 
C 230 2643 384 2394 435 2278 
C 691 2528 947 2822 1190 3149 
L 1190 -512 
L 1664 -512 
L 1664 3859 
C 1926 4294 2163 4762 2349 5229 
L 1888 5376 
z
" transform="scale(0.015625)"/>
       <path id="NotoSansCJKjp-Regular-610f" d="M 1645 1651 
L 1645 2080 
L 4787 2080 
L 4787 1651 
L 1645 1651 
z
M 1645 2400 
L 1645 2829 
L 4787 2829 
L 4787 2400 
L 1645 2400 
z
M 1581 851 
L 1178 998 
C 1018 576 717 141 269 -109 
L 646 -365 
C 1120 -83 1395 384 1581 851 
z
M 5005 1056 
L 4634 832 
C 5069 506 5549 19 5754 -326 
L 6150 -77 
C 5926 269 5434 736 5005 1056 
z
M 2374 128 
L 2374 954 
L 1907 954 
L 1907 128 
C 1907 -333 2074 -454 2726 -454 
C 2861 -454 3795 -454 3936 -454 
C 4461 -454 4602 -288 4659 435 
C 4531 461 4346 525 4237 595 
C 4211 26 4166 -51 3898 -51 
C 3686 -51 2912 -51 2765 -51 
C 2432 -51 2374 -26 2374 128 
z
M 5261 3155 
L 1190 3155 
L 1190 1318 
L 2842 1318 
L 2586 1075 
C 2950 870 3398 570 3622 371 
L 3904 659 
C 3674 858 3226 1139 2861 1318 
L 5261 1318 
L 5261 3155 
z
M 4051 3872 
L 2272 3872 
L 2464 3923 
C 2419 4096 2310 4346 2189 4557 
L 4218 4557 
C 4141 4352 4006 4090 3904 3910 
L 4051 3872 
z
M 5638 4954 
L 3430 4954 
L 3430 5376 
L 2950 5376 
L 2950 4954 
L 755 4954 
L 755 4557 
L 1914 4557 
L 1722 4512 
C 1837 4320 1939 4064 1984 3872 
L 467 3872 
L 467 3482 
L 5971 3482 
L 5971 3872 
L 4371 3872 
C 4480 4051 4614 4275 4736 4506 
L 4518 4557 
L 5638 4557 
L 5638 4954 
z
" transform="scale(0.015625)"/>
       <path id="NotoSansCJKjp-Regular-5355" d="M 1414 2797 
L 2938 2797 
L 2938 2106 
L 1414 2106 
L 1414 2797 
z
M 3430 2797 
L 5024 2797 
L 5024 2106 
L 3430 2106 
L 3430 2797 
z
M 1414 3859 
L 2938 3859 
L 2938 3181 
L 1414 3181 
L 1414 3859 
z
M 3430 3859 
L 5024 3859 
L 5024 3181 
L 3430 3181 
L 3430 3859 
z
M 4538 5350 
C 4390 5024 4128 4576 3898 4269 
L 2342 4269 
L 2605 4397 
C 2477 4666 2176 5062 1914 5350 
L 1510 5158 
C 1741 4890 1990 4525 2131 4269 
L 947 4269 
L 947 1696 
L 2938 1696 
L 2938 1088 
L 346 1088 
L 346 640 
L 2938 640 
L 2938 -506 
L 3430 -506 
L 3430 640 
L 6074 640 
L 6074 1088 
L 3430 1088 
L 3430 1696 
L 5510 1696 
L 5510 4269 
L 4435 4269 
C 4640 4538 4864 4870 5056 5178 
L 4538 5350 
z
" transform="scale(0.015625)"/>
       <path id="NotoSansCJKjp-Regular-4f4d" d="M 2630 3155 
C 2867 2304 3066 1190 3110 544 
L 3578 646 
C 3526 1280 3302 2381 3059 3232 
L 2630 3155 
z
M 2106 4115 
L 2106 3661 
L 6016 3661 
L 6016 4115 
L 4250 4115 
L 4250 5299 
L 3770 5299 
L 3770 4115 
L 2106 4115 
z
M 1946 243 
L 1946 -211 
L 6176 -211 
L 6176 243 
L 4634 243 
C 4928 1043 5261 2246 5485 3194 
L 4966 3283 
C 4800 2362 4461 1056 4166 243 
L 1946 243 
z
M 1773 5357 
C 1395 4390 774 3443 128 2835 
C 211 2720 352 2470 397 2355 
C 640 2598 877 2880 1107 3194 
L 1107 -493 
L 1568 -493 
L 1568 3891 
C 1818 4314 2048 4762 2227 5216 
L 1773 5357 
z
" transform="scale(0.015625)"/>
       <path id="NotoSansCJKjp-Regular-ff09" d="M 1952 2432 
C 1952 3680 1446 4698 678 5478 
L 294 5280 
C 1030 4518 1485 3571 1485 2432 
C 1485 1293 1030 346 294 -416 
L 678 -614 
C 1446 166 1952 1184 1952 2432 
z
" transform="scale(0.015625)"/>
      </defs>
      <use xlink:href="#NotoSansCJKjp-Regular-52"/>
      <use xlink:href="#NotoSansCJKjp-Regular-4c" transform="translate(63.499985 0)"/>
      <use xlink:href="#NotoSansCJKjp-Regular-20" transform="translate(117.799973 0)"/>
      <use xlink:href="#NotoSansCJKjp-Regular-8bad" transform="translate(140.199966 0)"/>
      <use xlink:href="#NotoSansCJKjp-Regular-7ec3" transform="translate(240.199951 0)"/>
      <use xlink:href="#NotoSansCJKjp-Regular-7b97" transform="translate(340.199936 0)"/>
      <use xlink:href="#NotoSansCJKjp-Regular-529b" transform="translate(440.199921 0)"/>
      <use xlink:href="#NotoSansCJKjp-Regular-20" transform="translate(540.199905 0)"/>
      <use xlink:href="#NotoSansCJKjp-Regular-43" transform="translate(562.599899 0)"/>
      <use xlink:href="#NotoSansCJKjp-Regular-ff08" transform="translate(626.399887 0)"/>
      <use xlink:href="#NotoSansCJKjp-Regular-5bf9" transform="translate(726.399872 0)"/>
      <use xlink:href="#NotoSansCJKjp-Regular-6570" transform="translate(826.399857 0)"/>
      <use xlink:href="#NotoSansCJKjp-Regular-5c3a" transform="translate(926.399841 0)"/>
      <use xlink:href="#NotoSansCJKjp-Regular-5ea6" transform="translate(1026.399826 0)"/>
      <use xlink:href="#NotoSansCJKjp-Regular-ff0c" transform="translate(1126.399811 0)"/>
      <use xlink:href="#NotoSansCJKjp-Regular-4efb" transform="translate(1226.399796 0)"/>
      <use xlink:href="#NotoSansCJKjp-Regular-610f" transform="translate(1326.39978 0)"/>
      <use xlink:href="#NotoSansCJKjp-Regular-5355" transform="translate(1426.399765 0)"/>
      <use xlink:href="#NotoSansCJKjp-Regular-4f4d" transform="translate(1526.39975 0)"/>
      <use xlink:href="#NotoSansCJKjp-Regular-ff09" transform="translate(1626.399734 0)"/>
     </g>
    </g>
   </g>
   <g id="matplotlib.axis_2">
    <g id="ytick_1">
     <g id="line2d_28">
      <path d="M 44.379688 339.5195 
L 603.200748 339.5195 
" clip-path="url(#p71d6685883)" style="fill: none; stroke-dasharray: 0.8,1.32; stroke-dashoffset: 0; stroke: #b0b0b0; stroke-opacity: 0.25; stroke-width: 0.8"/>
     </g>
     <g id="line2d_29">
      <defs>
       <path id="m41a7db7895" d="M 0 0 
L -3.5 0 
" style="stroke: #000000; stroke-width: 0.8"/>
      </defs>
      <g>
       <use xlink:href="#m41a7db7895" x="44.379688" y="339.5195" style="stroke: #000000; stroke-width: 0.8"/>
      </g>
     </g>
     <g id="text_5">
      <!-- 0.0 -->
      <g transform="translate(23.5 343.499187) scale(0.1 -0.1)">
       <defs>
        <path id="NotoSansCJKjp-Regular-2e" d="M 890 -83 
C 1120 -83 1312 96 1312 358 
C 1312 627 1120 806 890 806 
C 653 806 467 627 467 358 
C 467 96 653 -83 890 -83 
z
" transform="scale(0.015625)"/>
       </defs>
       <use xlink:href="#NotoSansCJKjp-Regular-30"/>
       <use xlink:href="#NotoSansCJKjp-Regular-2e" transform="translate(55.499985 0)"/>
       <use xlink:href="#NotoSansCJKjp-Regular-30" transform="translate(83.299973 0)"/>
      </g>
     </g>
    </g>
    <g id="ytick_2">
     <g id="line2d_30">
      <path d="M 44.379688 303.226618 
L 603.200748 303.226618 
" clip-path="url(#p71d6685883)" style="fill: none; stroke-dasharray: 0.8,1.32; stroke-dashoffset: 0; stroke: #b0b0b0; stroke-opacity: 0.25; stroke-width: 0.8"/>
     </g>
     <g id="line2d_31">
      <g>
       <use xlink:href="#m41a7db7895" x="44.379688" y="303.226618" style="stroke: #000000; stroke-width: 0.8"/>
      </g>
     </g>
     <g id="text_6">
      <!-- 0.2 -->
      <g transform="translate(23.5 307.206305) scale(0.1 -0.1)">
       <defs>
        <path id="NotoSansCJKjp-Regular-32" d="M 282 0 
L 3232 0 
L 3232 506 
L 1933 506 
C 1696 506 1408 480 1165 461 
C 2266 1504 3008 2458 3008 3398 
C 3008 4230 2477 4774 1638 4774 
C 1043 4774 634 4506 256 4090 
L 595 3757 
C 858 4070 1184 4301 1568 4301 
C 2150 4301 2432 3910 2432 3373 
C 2432 2566 1754 1632 282 346 
L 282 0 
z
" transform="scale(0.015625)"/>
       </defs>
       <use xlink:href="#NotoSansCJKjp-Regular-30"/>
       <use xlink:href="#NotoSansCJKjp-Regular-2e" transform="translate(55.499985 0)"/>
       <use xlink:href="#NotoSansCJKjp-Regular-32" transform="translate(83.299973 0)"/>
      </g>
     </g>
    </g>
    <g id="ytick_3">
     <g id="line2d_32">
      <path d="M 44.379688 266.933735 
L 603.200748 266.933735 
" clip-path="url(#p71d6685883)" style="fill: none; stroke-dasharray: 0.8,1.32; stroke-dashoffset: 0; stroke: #b0b0b0; stroke-opacity: 0.25; stroke-width: 0.8"/>
     </g>
     <g id="line2d_33">
      <g>
       <use xlink:href="#m41a7db7895" x="44.379688" y="266.933735" style="stroke: #000000; stroke-width: 0.8"/>
      </g>
     </g>
     <g id="text_7">
      <!-- 0.4 -->
      <g transform="translate(23.5 270.913423) scale(0.1 -0.1)">
       <defs>
        <path id="NotoSansCJKjp-Regular-34" d="M 2176 0 
L 2726 0 
L 2726 1293 
L 3354 1293 
L 3354 1760 
L 2726 1760 
L 2726 4691 
L 2080 4691 
L 128 1677 
L 128 1293 
L 2176 1293 
L 2176 0 
z
M 2176 1760 
L 736 1760 
L 1805 3360 
C 1939 3590 2067 3827 2182 4051 
L 2208 4051 
C 2195 3814 2176 3430 2176 3200 
L 2176 1760 
z
" transform="scale(0.015625)"/>
       </defs>
       <use xlink:href="#NotoSansCJKjp-Regular-30"/>
       <use xlink:href="#NotoSansCJKjp-Regular-2e" transform="translate(55.499985 0)"/>
       <use xlink:href="#NotoSansCJKjp-Regular-34" transform="translate(83.299973 0)"/>
      </g>
     </g>
    </g>
    <g id="ytick_4">
     <g id="line2d_34">
      <path d="M 44.379688 230.640853 
L 603.200748 230.640853 
" clip-path="url(#p71d6685883)" style="fill: none; stroke-dasharray: 0.8,1.32; stroke-dashoffset: 0; stroke: #b0b0b0; stroke-opacity: 0.25; stroke-width: 0.8"/>
     </g>
     <g id="line2d_35">
      <g>
       <use xlink:href="#m41a7db7895" x="44.379688" y="230.640853" style="stroke: #000000; stroke-width: 0.8"/>
      </g>
     </g>
     <g id="text_8">
      <!-- 0.6 -->
      <g transform="translate(23.5 234.62054) scale(0.1 -0.1)">
       <defs>
        <path id="NotoSansCJKjp-Regular-36" d="M 1926 -83 
C 2656 -83 3277 531 3277 1440 
C 3277 2426 2765 2912 1971 2912 
C 1606 2912 1197 2701 909 2349 
C 934 3802 1466 4294 2118 4294 
C 2400 4294 2682 4154 2861 3936 
L 3194 4294 
C 2931 4576 2579 4774 2093 4774 
C 1184 4774 358 4077 358 2240 
C 358 691 1030 -83 1926 -83 
z
M 922 1882 
C 1229 2317 1587 2477 1875 2477 
C 2445 2477 2720 2074 2720 1440 
C 2720 800 2374 378 1926 378 
C 1338 378 986 909 922 1882 
z
" transform="scale(0.015625)"/>
       </defs>
       <use xlink:href="#NotoSansCJKjp-Regular-30"/>
       <use xlink:href="#NotoSansCJKjp-Regular-2e" transform="translate(55.499985 0)"/>
       <use xlink:href="#NotoSansCJKjp-Regular-36" transform="translate(83.299973 0)"/>
      </g>
     </g>
    </g>
    <g id="ytick_5">
     <g id="line2d_36">
      <path d="M 44.379688 194.347971 
L 603.200748 194.347971 
" clip-path="url(#p71d6685883)" style="fill: none; stroke-dasharray: 0.8,1.32; stroke-dashoffset: 0; stroke: #b0b0b0; stroke-opacity: 0.25; stroke-width: 0.8"/>
     </g>
     <g id="line2d_37">
      <g>
       <use xlink:href="#m41a7db7895" x="44.379688" y="194.347971" style="stroke: #000000; stroke-width: 0.8"/>
      </g>
     </g>
     <g id="text_9">
      <!-- 0.8 -->
      <g transform="translate(23.5 198.327658) scale(0.1 -0.1)">
       <defs>
        <path id="NotoSansCJKjp-Regular-38" d="M 1792 -83 
C 2669 -83 3258 448 3258 1126 
C 3258 1773 2880 2125 2470 2362 
L 2470 2394 
C 2746 2611 3091 3034 3091 3526 
C 3091 4250 2605 4762 1805 4762 
C 1075 4762 518 4282 518 3571 
C 518 3078 813 2726 1152 2490 
L 1152 2464 
C 723 2234 294 1792 294 1165 
C 294 442 922 -83 1792 -83 
z
M 2112 2547 
C 1555 2765 1050 3014 1050 3571 
C 1050 4026 1363 4326 1798 4326 
C 2298 4326 2592 3962 2592 3494 
C 2592 3149 2426 2829 2112 2547 
z
M 1798 352 
C 1235 352 813 717 813 1216 
C 813 1664 1082 2035 1459 2278 
C 2125 2010 2701 1779 2701 1146 
C 2701 678 2342 352 1798 352 
z
" transform="scale(0.015625)"/>
       </defs>
       <use xlink:href="#NotoSansCJKjp-Regular-30"/>
       <use xlink:href="#NotoSansCJKjp-Regular-2e" transform="translate(55.499985 0)"/>
       <use xlink:href="#NotoSansCJKjp-Regular-38" transform="translate(83.299973 0)"/>
      </g>
     </g>
    </g>
    <g id="ytick_6">
     <g id="line2d_38">
      <path d="M 44.379688 158.055088 
L 603.200748 158.055088 
" clip-path="url(#p71d6685883)" style="fill: none; stroke-dasharray: 0.8,1.32; stroke-dashoffset: 0; stroke: #b0b0b0; stroke-opacity: 0.25; stroke-width: 0.8"/>
     </g>
     <g id="line2d_39">
      <g>
       <use xlink:href="#m41a7db7895" x="44.379688" y="158.055088" style="stroke: #000000; stroke-width: 0.8"/>
      </g>
     </g>
     <g id="text_10">
      <!-- 1.0 -->
      <g transform="translate(23.5 162.034776) scale(0.1 -0.1)">
       <use xlink:href="#NotoSansCJKjp-Regular-31"/>
       <use xlink:href="#NotoSansCJKjp-Regular-2e" transform="translate(55.499985 0)"/>
       <use xlink:href="#NotoSansCJKjp-Regular-30" transform="translate(83.299973 0)"/>
      </g>
     </g>
    </g>
    <g id="ytick_7">
     <g id="line2d_40">
      <path d="M 44.379688 121.762206 
L 603.200748 121.762206 
" clip-path="url(#p71d6685883)" style="fill: none; stroke-dasharray: 0.8,1.32; stroke-dashoffset: 0; stroke: #b0b0b0; stroke-opacity: 0.25; stroke-width: 0.8"/>
     </g>
     <g id="line2d_41">
      <g>
       <use xlink:href="#m41a7db7895" x="44.379688" y="121.762206" style="stroke: #000000; stroke-width: 0.8"/>
      </g>
     </g>
     <g id="text_11">
      <!-- 1.2 -->
      <g transform="translate(23.5 125.741893) scale(0.1 -0.1)">
       <use xlink:href="#NotoSansCJKjp-Regular-31"/>
       <use xlink:href="#NotoSansCJKjp-Regular-2e" transform="translate(55.499985 0)"/>
       <use xlink:href="#NotoSansCJKjp-Regular-32" transform="translate(83.299973 0)"/>
      </g>
     </g>
    </g>
    <g id="ytick_8">
     <g id="line2d_42">
      <path d="M 44.379688 85.469324 
L 603.200748 85.469324 
" clip-path="url(#p71d6685883)" style="fill: none; stroke-dasharray: 0.8,1.32; stroke-dashoffset: 0; stroke: #b0b0b0; stroke-opacity: 0.25; stroke-width: 0.8"/>
     </g>
     <g id="line2d_43">
      <g>
       <use xlink:href="#m41a7db7895" x="44.379688" y="85.469324" style="stroke: #000000; stroke-width: 0.8"/>
      </g>
     </g>
     <g id="text_12">
      <!-- 1.4 -->
      <g transform="translate(23.5 89.449011) scale(0.1 -0.1)">
       <use xlink:href="#NotoSansCJKjp-Regular-31"/>
       <use xlink:href="#NotoSansCJKjp-Regular-2e" transform="translate(55.499985 0)"/>
       <use xlink:href="#NotoSansCJKjp-Regular-34" transform="translate(83.299973 0)"/>
      </g>
     </g>
    </g>
    <g id="ytick_9">
     <g id="line2d_44">
      <path d="M 44.379688 49.176441 
L 603.200748 49.176441 
" clip-path="url(#p71d6685883)" style="fill: none; stroke-dasharray: 0.8,1.32; stroke-dashoffset: 0; stroke: #b0b0b0; stroke-opacity: 0.25; stroke-width: 0.8"/>
     </g>
     <g id="line2d_45">
      <g>
       <use xlink:href="#m41a7db7895" x="44.379688" y="49.176441" style="stroke: #000000; stroke-width: 0.8"/>
      </g>
     </g>
     <g id="text_13">
      <!-- 1.6 -->
      <g transform="translate(23.5 53.156129) scale(0.1 -0.1)">
       <use xlink:href="#NotoSansCJKjp-Regular-31"/>
       <use xlink:href="#NotoSansCJKjp-Regular-2e" transform="translate(55.499985 0)"/>
       <use xlink:href="#NotoSansCJKjp-Regular-36" transform="translate(83.299973 0)"/>
      </g>
     </g>
    </g>
    <g id="text_14">
     <!-- 能力提升 / 奖励 -->
     <g transform="translate(16.75125 226.315687) rotate(-90) scale(0.12 -0.12)">
      <defs>
       <path id="NotoSansCJKjp-Regular-80fd" d="M 2131 4774 
C 2278 4576 2432 4339 2560 4109 
L 1248 4058 
C 1446 4422 1651 4864 1824 5261 
L 1331 5382 
C 1197 4979 966 4442 742 4038 
L 256 4019 
L 294 3552 
C 960 3590 1882 3635 2784 3693 
C 2854 3552 2912 3424 2950 3309 
L 3366 3494 
C 3226 3891 2867 4486 2528 4928 
L 2131 4774 
z
M 2451 2688 
L 2451 2138 
L 1088 2138 
L 1088 2688 
L 2451 2688 
z
M 640 3098 
L 640 -506 
L 1088 -506 
L 1088 800 
L 2451 800 
L 2451 51 
C 2451 -32 2432 -58 2349 -58 
C 2253 -64 1984 -64 1683 -51 
C 1747 -179 1818 -365 1843 -493 
C 2246 -493 2522 -486 2701 -416 
C 2874 -339 2925 -205 2925 45 
L 2925 3098 
L 640 3098 
z
M 1088 1760 
L 2451 1760 
L 2451 1178 
L 1088 1178 
L 1088 1760 
z
M 5491 4896 
C 5126 4704 4550 4474 4006 4288 
L 4006 5363 
L 3526 5363 
L 3526 3238 
C 3526 2707 3686 2566 4307 2566 
C 4429 2566 5267 2566 5408 2566 
C 5920 2566 6061 2771 6118 3558 
C 5984 3590 5786 3661 5683 3744 
C 5658 3110 5613 3002 5363 3002 
C 5184 3002 4480 3002 4352 3002 
C 4058 3002 4006 3040 4006 3245 
L 4006 3904 
C 4621 4083 5306 4307 5811 4538 
L 5491 4896 
z
M 5568 2042 
C 5197 1805 4582 1555 4000 1363 
L 4000 2387 
L 3526 2387 
L 3526 224 
C 3526 -314 3693 -454 4320 -454 
C 4454 -454 5318 -454 5459 -454 
C 5997 -454 6138 -224 6195 634 
C 6061 666 5875 742 5760 819 
C 5734 96 5690 -26 5421 -26 
C 5229 -26 4506 -26 4365 -26 
C 4058 -26 4000 13 4000 224 
L 4000 966 
C 4646 1146 5382 1395 5882 1683 
L 5568 2042 
z
" transform="scale(0.015625)"/>
       <path id="NotoSansCJKjp-Regular-63d0" d="M 3059 3949 
L 5197 3949 
L 5197 3443 
L 3059 3443 
L 3059 3949 
z
M 3059 4800 
L 5197 4800 
L 5197 4294 
L 3059 4294 
L 3059 4800 
z
M 2618 5165 
L 2618 3072 
L 5658 3072 
L 5658 5165 
L 2618 5165 
z
M 2746 1901 
C 2643 954 2355 230 1786 -224 
C 1888 -288 2074 -435 2144 -512 
C 2483 -211 2739 179 2918 666 
C 3334 -237 4013 -416 4947 -416 
L 6067 -416 
C 6086 -288 6150 -90 6214 19 
C 5990 13 5126 13 4966 13 
C 4749 13 4544 19 4352 51 
L 4352 1056 
L 5696 1056 
L 5696 1453 
L 4352 1453 
L 4352 2208 
L 6010 2208 
L 6010 2611 
L 2330 2611 
L 2330 2208 
L 3898 2208 
L 3898 173 
C 3533 333 3251 621 3066 1158 
C 3117 1376 3155 1606 3187 1850 
L 2746 1901 
z
M 1050 5370 
L 1050 4083 
L 256 4083 
L 256 3635 
L 1050 3635 
L 1050 2227 
C 723 2125 422 2042 186 1978 
L 307 1504 
L 1050 1747 
L 1050 90 
C 1050 0 1018 -26 941 -26 
C 864 -32 614 -32 339 -26 
C 397 -154 461 -352 474 -467 
C 877 -474 1126 -454 1280 -378 
C 1440 -307 1498 -173 1498 90 
L 1498 1894 
L 2208 2131 
L 2144 2566 
L 1498 2368 
L 1498 3635 
L 2208 3635 
L 2208 4083 
L 1498 4083 
L 1498 5370 
L 1050 5370 
z
" transform="scale(0.015625)"/>
       <path id="NotoSansCJKjp-Regular-5347" d="M 3174 5280 
C 2534 4896 1395 4538 384 4301 
C 448 4198 525 4026 550 3910 
C 947 4000 1363 4102 1773 4224 
L 1773 2797 
L 320 2797 
L 320 2330 
L 1766 2330 
C 1715 1408 1453 506 256 -160 
C 371 -243 538 -410 608 -525 
C 1914 224 2202 1267 2253 2330 
L 4211 2330 
L 4211 -512 
L 4698 -512 
L 4698 2330 
L 6086 2330 
L 6086 2797 
L 4698 2797 
L 4698 5254 
L 4211 5254 
L 4211 2797 
L 2259 2797 
L 2259 4371 
C 2733 4525 3174 4698 3533 4890 
L 3174 5280 
z
" transform="scale(0.015625)"/>
       <path id="NotoSansCJKjp-Regular-2f" d="M 70 -1146 
L 499 -1146 
L 2413 5082 
L 1990 5082 
L 70 -1146 
z
" transform="scale(0.015625)"/>
       <path id="NotoSansCJKjp-Regular-5956" d="M 474 4851 
C 710 4538 973 4109 1062 3834 
L 1459 4058 
C 1357 4326 1088 4742 845 5037 
L 474 4851 
z
M 2970 2240 
C 2944 2067 2918 1907 2880 1754 
L 384 1754 
L 384 1318 
L 2746 1318 
C 2451 614 1818 134 275 -115 
C 365 -211 474 -397 506 -512 
C 2125 -237 2842 320 3194 1133 
C 3674 205 4544 -275 5856 -474 
C 5920 -339 6042 -147 6150 -45 
C 4870 96 4000 512 3584 1318 
L 6003 1318 
L 6003 1754 
L 3392 1754 
C 3424 1907 3450 2074 3475 2240 
L 2970 2240 
z
M 301 3027 
L 506 2611 
C 883 2803 1338 3046 1786 3296 
L 1786 2234 
L 2253 2234 
L 2253 5376 
L 1786 5376 
L 1786 3750 
C 1229 3469 678 3194 301 3027 
z
M 3821 5395 
C 3597 4915 3066 4397 2502 4090 
C 2592 4006 2726 3840 2797 3744 
C 3110 3917 3411 4154 3667 4422 
L 5446 4422 
C 5222 3949 4883 3590 4454 3315 
C 4250 3565 3923 3872 3648 4090 
L 3290 3878 
C 3558 3654 3872 3354 4070 3110 
C 3590 2880 3027 2739 2413 2650 
C 2502 2554 2624 2362 2669 2246 
C 4256 2528 5536 3162 6048 4710 
L 5766 4851 
L 5677 4832 
L 4019 4832 
C 4122 4966 4205 5107 4282 5248 
L 3821 5395 
z
" transform="scale(0.015625)"/>
       <path id="NotoSansCJKjp-Regular-52b1" d="M 4333 5274 
C 4333 4762 4333 4262 4320 3782 
L 3597 3782 
L 3597 3334 
L 4301 3334 
C 4237 1850 4006 576 3200 -211 
C 3315 -275 3482 -422 3558 -525 
C 4416 346 4666 1734 4742 3334 
L 5523 3334 
C 5459 1024 5395 198 5248 13 
C 5190 -64 5133 -83 5030 -83 
C 4915 -83 4646 -83 4346 -58 
C 4422 -179 4467 -365 4480 -499 
C 4768 -512 5056 -518 5229 -499 
C 5414 -480 5536 -422 5651 -262 
C 5843 0 5907 883 5971 3546 
C 5971 3616 5971 3782 5971 3782 
L 4762 3782 
C 4774 4262 4781 4768 4781 5274 
L 4333 5274 
z
M 646 5011 
L 646 2669 
C 646 1779 614 576 198 -256 
C 307 -301 506 -416 589 -486 
C 1030 390 1088 1728 1088 2675 
L 1088 3443 
L 1779 3443 
C 1754 1901 1670 531 922 -237 
C 1037 -301 1184 -448 1254 -550 
C 1875 96 2093 1088 2176 2259 
L 2893 2259 
C 2829 768 2765 218 2650 83 
C 2605 19 2554 6 2464 13 
C 2374 6 2163 13 1926 32 
C 1990 -77 2029 -243 2042 -365 
C 2278 -378 2522 -384 2656 -365 
C 2816 -352 2918 -307 3014 -179 
C 3181 26 3245 653 3322 2477 
C 3322 2534 3328 2675 3328 2675 
L 2202 2675 
L 2221 3443 
L 3430 3443 
L 3430 3872 
L 1088 3872 
L 1088 4570 
L 3648 4570 
L 3648 5011 
L 646 5011 
z
" transform="scale(0.015625)"/>
      </defs>
      <use xlink:href="#NotoSansCJKjp-Regular-80fd"/>
      <use xlink:href="#NotoSansCJKjp-Regular-529b" transform="translate(99.999985 0)"/>
      <use xlink:href="#NotoSansCJKjp-Regular-63d0" transform="translate(199.999969 0)"/>
      <use xlink:href="#NotoSansCJKjp-Regular-5347" transform="translate(299.999954 0)"/>
      <use xlink:href="#NotoSansCJKjp-Regular-20" transform="translate(399.999939 0)"/>
      <use xlink:href="#NotoSansCJKjp-Regular-2f" transform="translate(422.399933 0)"/>
      <use xlink:href="#NotoSansCJKjp-Regular-20" transform="translate(461.59993 0)"/>
      <use xlink:href="#NotoSansCJKjp-Regular-5956" transform="translate(483.999924 0)"/>
      <use xlink:href="#NotoSansCJKjp-Regular-52b1" transform="translate(583.999908 0)"/>
     </g>
    </g>
   </g>
   <g id="line2d_46">
    <path d="M 44.379688 158.055088 
L 603.200748 158.055088 
" clip-path="url(#p71d6685883)" style="fill: none; stroke-dasharray: 4.81,2.08; stroke-dashoffset: 0; stroke: #c0392b; stroke-opacity: 0.7; stroke-width: 1.3"/>
   </g>
   <g id="patch_3">
    <path d="M 44.379688 339.5195 
L 44.379688 31.03 
" style="fill: none; stroke: #000000; stroke-width: 0.8; stroke-linejoin: miter; stroke-linecap: square"/>
   </g>
   <g id="patch_4">
    <path d="M 44.379687 339.5195 
L 603.200748 339.5195 
" style="fill: none; stroke: #000000; stroke-width: 0.8; stroke-linejoin: miter; stroke-linecap: square"/>
   </g>
   <g id="line2d_47">
    <path d="M 44.379687 339.5195 
L 603.200748 31.853566 
L 603.200748 31.853566 
" clip-path="url(#p71d6685883)" style="fill: none; stroke: #2c6fbb; stroke-width: 2.8; stroke-linecap: square"/>
   </g>
   <g id="line2d_48">
    <path d="M 44.379687 338.403219 
L 74.633848 337.75938 
L 98.116234 337.016557 
L 117.310679 336.186092 
L 133.543971 335.277063 
L 147.608814 334.297103 
L 160.016853 333.252841 
L 171.117611 332.150161 
L 181.160483 330.994379 
L 190.329674 329.790343 
L 198.765102 328.542523 
L 206.575555 327.255058 
L 213.847287 325.931801 
L 227.040113 323.192088 
L 238.764679 320.349551 
L 249.315313 317.427255 
L 258.905849 314.445568 
L 267.69654 311.422475 
L 275.810591 308.373824 
L 283.344762 305.313538 
L 290.376439 302.253795 
L 296.968478 299.205199 
L 306.143016 294.672917 
L 314.58297 290.211724 
L 322.397302 285.841718 
L 331.99003 280.182875 
L 340.782564 274.738773 
L 350.833137 268.259057 
L 363.466564 259.817343 
L 383.540479 246.058058 
L 401.589506 233.775121 
L 412.819267 226.380422 
L 422.967592 219.957042 
L 432.224594 214.36355 
L 440.734277 209.47661 
L 449.36436 204.791799 
L 457.341394 200.71727 
L 465.406315 196.85487 
L 473.499057 193.241504 
L 481.571404 189.897679 
L 489.585337 186.830608 
L 497.511428 184.037367 
L 505.769568 181.371131 
L 514.245385 178.880788 
L 522.843792 176.594224 
L 531.487627 174.522639 
L 540.750965 172.536058 
L 550.428202 170.696616 
L 560.349013 169.037224 
L 570.854596 167.503588 
L 582.133404 166.083436 
L 594.24644 164.785782 
L 603.200748 163.958697 
L 603.200748 163.958697 
" clip-path="url(#p71d6685883)" style="fill: none; stroke: #c0392b; stroke-width: 2.8; stroke-linecap: square"/>
   </g>
   <g id="text_15">
    <!-- 天花板 A（砸多少算力都过不去） -->
    <g style="fill: #c0392b" transform="translate(437.917596 150.091468) scale(0.11 -0.11)">
     <defs>
      <path id="NotoSansCJKjp-Regular-5929" d="M 384 4883 
L 384 4390 
L 2899 4390 
L 2899 3251 
L 2893 2893 
L 582 2893 
L 582 2400 
L 2835 2400 
C 2662 1466 2093 518 262 -109 
C 358 -205 506 -403 557 -525 
C 2272 64 2970 947 3245 1875 
C 3731 653 4538 -147 5850 -525 
C 5926 -384 6067 -179 6176 -77 
C 4794 269 3968 1133 3552 2400 
L 5850 2400 
L 5850 2893 
L 3405 2893 
L 3411 3251 
L 3411 4390 
L 6010 4390 
L 6010 4883 
L 384 4883 
z
" transform="scale(0.015625)"/>
      <path id="NotoSansCJKjp-Regular-82b1" d="M 1914 3648 
C 1517 2835 864 2042 173 1549 
C 288 1472 486 1299 576 1210 
C 851 1434 1120 1702 1382 2003 
L 1382 -512 
L 1856 -512 
L 1856 2611 
C 2054 2899 2234 3200 2387 3507 
L 1914 3648 
z
M 5498 3040 
C 5082 2720 4403 2349 3744 2061 
L 3744 3590 
L 3270 3590 
L 3270 358 
C 3270 -250 3456 -416 4102 -416 
C 4237 -416 5178 -416 5325 -416 
C 5926 -416 6067 -134 6131 832 
C 5997 864 5798 941 5690 1024 
C 5651 198 5600 32 5299 32 
C 5094 32 4294 32 4141 32 
C 3808 32 3744 83 3744 358 
L 3744 1619 
C 4486 1926 5293 2291 5862 2669 
L 5498 3040 
z
M 4019 5376 
L 4019 4787 
L 2394 4787 
L 2394 5376 
L 1926 5376 
L 1926 4787 
L 384 4787 
L 384 4326 
L 1926 4326 
L 1926 3648 
L 2394 3648 
L 2394 4326 
L 4019 4326 
L 4019 3616 
L 4499 3616 
L 4499 4326 
L 6010 4326 
L 6010 4787 
L 4499 4787 
L 4499 5376 
L 4019 5376 
z
" transform="scale(0.015625)"/>
      <path id="NotoSansCJKjp-Regular-677f" d="M 2912 4986 
L 2912 3187 
C 2912 2170 2842 781 2106 -205 
C 2208 -256 2406 -410 2483 -493 
C 3194 454 3354 1837 3379 2893 
L 3405 2893 
C 3622 2099 3930 1389 4346 800 
C 3968 384 3533 70 3066 -128 
C 3168 -218 3296 -397 3360 -506 
C 3827 -282 4256 32 4640 435 
C 4992 32 5408 -294 5894 -518 
C 5965 -397 6106 -218 6221 -122 
C 5722 77 5299 390 4941 787 
C 5427 1421 5792 2234 5984 3251 
L 5690 3354 
L 5606 3334 
L 3379 3334 
L 3379 4538 
L 6048 4538 
L 6048 4986 
L 2912 4986 
z
M 3840 2893 
L 5440 2893 
C 5267 2227 4992 1645 4640 1165 
C 4288 1658 4019 2246 3840 2893 
z
M 1293 5376 
L 1293 4006 
L 333 4006 
L 333 3552 
L 1235 3552 
C 1030 2669 602 1664 173 1120 
C 256 1011 378 819 429 691 
C 749 1120 1062 1824 1293 2554 
L 1293 -506 
L 1747 -506 
L 1747 2438 
C 1965 2118 2221 1722 2336 1504 
L 2630 1882 
C 2502 2061 1933 2790 1747 2995 
L 1747 3552 
L 2579 3552 
L 2579 4006 
L 1747 4006 
L 1747 5376 
L 1293 5376 
z
" transform="scale(0.015625)"/>
      <path id="NotoSansCJKjp-Regular-41" d="M 26 0 
L 621 0 
L 1075 1434 
L 2790 1434 
L 3238 0 
L 3866 0 
L 2272 4691 
L 1613 4691 
L 26 0 
z
M 1222 1901 
L 1453 2624 
C 1619 3155 1773 3661 1920 4211 
L 1946 4211 
C 2099 3667 2246 3155 2419 2624 
L 2643 1901 
L 1222 1901 
z
" transform="scale(0.015625)"/>
      <path id="NotoSansCJKjp-Regular-7838" d="M 6029 5024 
L 2598 5024 
L 2598 -275 
L 6112 -275 
L 6112 166 
L 3034 166 
L 3034 4576 
L 6029 4576 
L 6029 5024 
z
M 307 5037 
L 307 4595 
L 1101 4595 
C 922 3616 640 2707 179 2099 
C 256 1971 371 1696 403 1581 
C 518 1728 627 1894 723 2074 
L 723 -218 
L 1126 -218 
L 1126 294 
L 2278 294 
L 2278 3066 
L 1158 3066 
C 1325 3546 1459 4064 1562 4595 
L 2413 4595 
L 2413 5037 
L 307 5037 
z
M 1126 2630 
L 1862 2630 
L 1862 723 
L 1126 723 
L 1126 2630 
z
M 3424 3610 
L 3424 1133 
L 3795 1133 
L 3795 3200 
L 4397 3200 
L 4397 480 
L 4794 480 
L 4794 3200 
L 5421 3200 
L 5421 1600 
C 5421 1549 5402 1536 5350 1530 
C 5293 1530 5133 1523 4941 1530 
C 4998 1427 5050 1261 5069 1158 
C 5357 1158 5536 1158 5651 1229 
C 5779 1299 5811 1414 5811 1594 
L 5811 3610 
L 4794 3610 
L 4794 4301 
L 4397 4301 
L 4397 3610 
L 3424 3610 
z
" transform="scale(0.015625)"/>
      <path id="NotoSansCJKjp-Regular-591a" d="M 2899 5389 
C 2458 4845 1619 4243 461 3840 
C 570 3763 723 3597 794 3482 
C 1120 3610 1427 3757 1709 3910 
C 2106 3706 2554 3424 2835 3187 
C 2086 2778 1222 2483 416 2336 
C 499 2227 602 2035 640 1907 
C 2336 2278 4224 3181 5056 4672 
L 4749 4858 
L 4666 4838 
L 3014 4838 
C 3174 4979 3315 5126 3443 5274 
L 2899 5389 
z
M 3251 3437 
C 2989 3661 2528 3942 2118 4154 
C 2259 4243 2394 4333 2522 4429 
L 4352 4429 
C 4070 4058 3686 3725 3251 3437 
z
M 3936 3194 
C 3443 2586 2464 1920 1114 1498 
C 1216 1414 1350 1242 1408 1126 
C 1798 1267 2157 1421 2490 1587 
C 2925 1344 3418 998 3712 723 
C 2893 288 1901 32 896 -90 
C 979 -198 1069 -390 1107 -525 
C 3194 -224 5190 582 6003 2445 
L 5690 2618 
L 5600 2598 
L 4006 2598 
C 4179 2752 4333 2912 4474 3072 
L 3936 3194 
z
M 4147 973 
C 3853 1242 3360 1574 2925 1818 
C 3123 1933 3309 2054 3488 2182 
L 5325 2182 
C 5043 1696 4634 1293 4147 973 
z
" transform="scale(0.015625)"/>
      <path id="NotoSansCJKjp-Regular-5c11" d="M 2950 5370 
L 2950 2125 
C 2950 2022 2918 1997 2810 1997 
C 2694 1997 2304 1990 1875 1997 
C 1952 1862 2029 1651 2054 1510 
C 2592 1510 2944 1517 3155 1600 
C 3373 1677 3443 1824 3443 2118 
L 3443 5370 
L 2950 5370 
z
M 4339 4403 
C 4890 3738 5478 2835 5696 2253 
L 6176 2515 
C 5933 3110 5331 3981 4774 4627 
L 4339 4403 
z
M 4762 2656 
C 4211 1011 2989 243 723 -51 
C 819 -179 928 -378 979 -525 
C 3354 -160 4659 698 5261 2502 
L 4762 2656 
z
M 1536 4563 
C 1299 3859 806 3002 243 2464 
C 371 2394 563 2266 672 2176 
C 1242 2758 1747 3661 2061 4435 
L 1536 4563 
z
" transform="scale(0.015625)"/>
      <path id="NotoSansCJKjp-Regular-90fd" d="M 3251 5158 
C 3123 4851 2976 4563 2810 4288 
L 2810 4634 
L 2003 4634 
L 2003 5325 
L 1555 5325 
L 1555 4634 
L 570 4634 
L 570 4205 
L 1555 4205 
L 1555 3437 
L 275 3437 
L 275 3008 
L 1811 3008 
C 1318 2522 755 2118 134 1811 
C 224 1722 378 1523 435 1421 
C 614 1517 787 1619 954 1734 
L 954 -480 
L 1389 -480 
L 1389 -102 
L 2835 -102 
L 2835 -390 
L 3296 -390 
L 3296 2387 
L 1798 2387 
C 2016 2579 2221 2790 2413 3008 
L 3584 3008 
L 3584 3437 
L 2758 3437 
C 3123 3917 3430 4448 3686 5024 
L 3251 5158 
z
M 2003 4205 
L 2758 4205 
C 2592 3936 2406 3680 2202 3437 
L 2003 3437 
L 2003 4205 
z
M 1389 301 
L 1389 979 
L 2835 979 
L 2835 301 
L 1389 301 
z
M 1389 1363 
L 1389 1990 
L 2835 1990 
L 2835 1363 
L 1389 1363 
z
M 3859 5011 
L 3859 -512 
L 4333 -512 
L 4333 4557 
L 5530 4557 
C 5318 4045 5030 3354 4742 2810 
C 5414 2253 5619 1766 5619 1357 
C 5626 1126 5574 941 5427 851 
C 5344 806 5242 781 5126 781 
C 4986 768 4794 774 4582 794 
C 4666 659 4717 454 4723 320 
C 4928 307 5152 307 5325 326 
C 5491 346 5638 397 5760 474 
C 5990 621 6086 922 6086 1318 
C 6086 1773 5914 2278 5235 2874 
C 5549 3469 5901 4205 6163 4813 
L 5818 5030 
L 5741 5011 
L 3859 5011 
z
" transform="scale(0.015625)"/>
      <path id="NotoSansCJKjp-Regular-8fc7" d="M 506 4954 
C 864 4621 1274 4154 1453 3853 
L 1856 4134 
C 1658 4435 1235 4883 877 5203 
L 506 4954 
z
M 2438 3053 
C 2765 2656 3155 2093 3334 1760 
L 3738 2003 
C 3552 2336 3149 2874 2822 3264 
L 2438 3053 
z
M 1677 2976 
L 320 2976 
L 320 2528 
L 1203 2528 
L 1203 851 
C 915 749 582 461 237 90 
L 570 -365 
C 896 77 1210 454 1421 454 
C 1568 454 1773 237 2042 70 
C 2490 -211 3027 -275 3821 -275 
C 4435 -275 5568 -243 6022 -218 
C 6029 -70 6112 173 6170 301 
C 5549 237 4582 179 3834 179 
C 3117 179 2573 230 2150 486 
C 1933 614 1798 742 1677 819 
L 1677 2976 
z
M 4608 5357 
L 4608 4224 
L 2125 4224 
L 2125 3770 
L 4608 3770 
L 4608 1229 
C 4608 1114 4563 1082 4435 1075 
C 4307 1069 3859 1069 3392 1088 
C 3462 947 3539 736 3565 595 
C 4166 595 4557 602 4781 685 
C 5011 762 5094 902 5094 1229 
L 5094 3770 
L 5984 3770 
L 5984 4224 
L 5094 4224 
L 5094 5357 
L 4608 5357 
z
" transform="scale(0.015625)"/>
      <path id="NotoSansCJKjp-Regular-4e0d" d="M 3578 3059 
C 4339 2547 5299 1792 5754 1299 
L 6144 1670 
C 5664 2163 4691 2880 3936 3366 
L 3578 3059 
z
M 442 4928 
L 442 4435 
L 3290 4435 
C 2656 3341 1555 2259 282 1632 
C 384 1523 531 1331 608 1210 
C 1498 1677 2291 2336 2938 3078 
L 2938 -499 
L 3456 -499 
L 3456 3738 
C 3622 3962 3770 4198 3904 4435 
L 5958 4435 
L 5958 4928 
L 442 4928 
z
" transform="scale(0.015625)"/>
      <path id="NotoSansCJKjp-Regular-53bb" d="M 4096 1510 
C 4371 1197 4672 813 4928 442 
L 2016 314 
C 2336 883 2682 1619 2963 2240 
L 6086 2240 
L 6086 2720 
L 3437 2720 
L 3437 3930 
L 5613 3930 
L 5613 4410 
L 3437 4410 
L 3437 5382 
L 2931 5382 
L 2931 4410 
L 832 4410 
L 832 3930 
L 2931 3930 
L 2931 2720 
L 339 2720 
L 339 2240 
L 2349 2240 
C 2125 1626 1779 851 1466 294 
L 563 262 
L 634 -243 
C 1798 -198 3565 -109 5235 -13 
C 5363 -218 5472 -403 5549 -563 
L 6022 -314 
C 5734 256 5114 1094 4538 1722 
L 4096 1510 
z
" transform="scale(0.015625)"/>
     </defs>
     <use xlink:href="#NotoSansCJKjp-Regular-5929"/>
     <use xlink:href="#NotoSansCJKjp-Regular-82b1" transform="translate(99.999985 0)"/>
     <use xlink:href="#NotoSansCJKjp-Regular-677f" transform="translate(199.999969 0)"/>
     <use xlink:href="#NotoSansCJKjp-Regular-20" transform="translate(299.999954 0)"/>
     <use xlink:href="#NotoSansCJKjp-Regular-41" transform="translate(322.399948 0)"/>
     <use xlink:href="#NotoSansCJKjp-Regular-ff08" transform="translate(383.199936 0)"/>
     <use xlink:href="#NotoSansCJKjp-Regular-7838" transform="translate(483.199921 0)"/>
     <use xlink:href="#NotoSansCJKjp-Regular-591a" transform="translate(583.199905 0)"/>
     <use xlink:href="#NotoSansCJKjp-Regular-5c11" transform="translate(683.19989 0)"/>
     <use xlink:href="#NotoSansCJKjp-Regular-7b97" transform="translate(783.199875 0)"/>
     <use xlink:href="#NotoSansCJKjp-Regular-529b" transform="translate(883.19986 0)"/>
     <use xlink:href="#NotoSansCJKjp-Regular-90fd" transform="translate(983.199844 0)"/>
     <use xlink:href="#NotoSansCJKjp-Regular-8fc7" transform="translate(1083.199829 0)"/>
     <use xlink:href="#NotoSansCJKjp-Regular-4e0d" transform="translate(1183.199814 0)"/>
     <use xlink:href="#NotoSansCJKjp-Regular-53bb" transform="translate(1283.199799 0)"/>
     <use xlink:href="#NotoSansCJKjp-Regular-ff09" transform="translate(1383.199783 0)"/>
    </g>
   </g>
   <g id="patch_5">
    <path d="M 580.95977 63.453128 
Q 587.234139 50.967613 592.85588 39.78078 
" style="fill: none; stroke: #1a5276; stroke-width: 1.3; stroke-linecap: round"/>
    <path d="M 588.735279 42.858222 
L 592.85588 39.78078 
L 592.845473 44.923726 
" style="fill: none; stroke: #1a5276; stroke-width: 1.3; stroke-linecap: round"/>
   </g>
   <g id="text_16">
    <!-- 一直涨，没有上限 -->
    <g style="fill: #1a5276" transform="translate(530.09353 76.396103) scale(0.115 -0.115)">
     <defs>
      <path id="NotoSansCJKjp-Regular-4e00" d="M 282 2758 
L 282 2234 
L 6144 2234 
L 6144 2758 
L 282 2758 
z
" transform="scale(0.015625)"/>
      <path id="NotoSansCJKjp-Regular-76f4" d="M 2374 2586 
L 4832 2586 
L 4832 2061 
L 2374 2061 
L 2374 2586 
z
M 2374 1715 
L 4832 1715 
L 4832 1178 
L 2374 1178 
L 2374 1715 
z
M 2374 3456 
L 4832 3456 
L 4832 2931 
L 2374 2931 
L 2374 3456 
z
M 736 3635 
L 736 -518 
L 1203 -518 
L 1203 -179 
L 6080 -179 
L 6080 269 
L 1203 269 
L 1203 3635 
L 736 3635 
z
M 3053 5395 
L 3008 4787 
L 397 4787 
L 397 4339 
L 2963 4339 
L 2899 3814 
L 1914 3814 
L 1914 813 
L 5306 813 
L 5306 3814 
L 3379 3814 
L 3469 4339 
L 6029 4339 
L 6029 4787 
L 3533 4787 
L 3603 5363 
L 3053 5395 
z
" transform="scale(0.015625)"/>
      <path id="NotoSansCJKjp-Regular-6da8" d="M 429 4979 
C 736 4736 1101 4384 1267 4147 
L 1594 4442 
C 1421 4666 1050 5005 742 5235 
L 429 4979 
z
M 211 3245 
C 518 3008 883 2669 1062 2445 
L 1382 2746 
C 1197 2970 819 3290 518 3514 
L 211 3245 
z
M 352 -211 
L 774 -422 
C 973 166 1197 947 1357 1613 
L 979 1830 
C 800 1114 544 294 352 -211 
z
M 5536 5210 
C 5242 4499 4755 3814 4230 3373 
C 4326 3296 4493 3130 4557 3053 
C 5094 3546 5626 4301 5958 5088 
L 5536 5210 
z
M 1728 3699 
C 1702 3085 1645 2278 1581 1779 
L 2662 1779 
C 2605 595 2534 141 2426 26 
C 2374 -32 2323 -51 2214 -45 
C 2118 -45 1862 -45 1581 -19 
C 1651 -141 1690 -320 1702 -454 
C 1984 -474 2266 -474 2413 -454 
C 2586 -442 2688 -397 2790 -275 
C 2957 -90 3034 480 3110 1997 
C 3117 2061 3117 2195 3117 2195 
L 2035 2195 
C 2061 2522 2093 2899 2112 3258 
L 3123 3258 
L 3123 5139 
L 1645 5139 
L 1645 4704 
L 2720 4704 
L 2720 3699 
L 1728 3699 
z
M 3610 -518 
C 3706 -435 3878 -352 5043 115 
C 5024 205 4998 390 4998 518 
L 4128 205 
L 4128 2464 
L 4557 2464 
C 4794 1242 5222 179 5894 -416 
C 5958 -301 6106 -147 6202 -64 
C 5594 422 5184 1389 4960 2464 
L 6150 2464 
L 6150 2906 
L 4128 2906 
L 4128 5299 
L 3686 5299 
L 3686 2906 
L 3162 2906 
L 3162 2464 
L 3686 2464 
L 3686 314 
C 3686 58 3520 -58 3411 -115 
C 3482 -211 3578 -403 3610 -518 
z
" transform="scale(0.015625)"/>
      <path id="NotoSansCJKjp-Regular-6ca1" d="M 589 4979 
C 1005 4787 1504 4474 1747 4230 
L 2029 4627 
C 1779 4858 1267 5146 858 5325 
L 589 4979 
z
M 243 3245 
C 666 3066 1178 2765 1427 2547 
L 1696 2944 
C 1440 3155 915 3443 499 3603 
L 243 3245 
z
M 454 -109 
L 864 -422 
C 1216 166 1645 973 1958 1651 
L 1600 1958 
C 1248 1229 781 390 454 -109 
z
M 2746 5146 
L 2746 4410 
C 2746 3923 2624 3373 1869 2963 
C 1971 2899 2144 2714 2208 2611 
C 3034 3085 3219 3802 3219 4397 
L 3219 4698 
L 4563 4698 
L 4563 3597 
C 4563 3213 4608 3104 4710 3021 
C 4813 2938 4986 2906 5126 2906 
C 5203 2906 5421 2906 5510 2906 
C 5632 2906 5786 2925 5875 2963 
C 5978 3008 6054 3078 6093 3194 
C 6138 3302 6157 3603 6170 3872 
C 6035 3917 5862 4000 5766 4090 
C 5766 3802 5754 3590 5741 3494 
C 5728 3405 5690 3354 5651 3341 
C 5619 3322 5542 3309 5478 3309 
C 5402 3309 5286 3309 5229 3309 
C 5165 3309 5120 3315 5082 3341 
C 5043 3360 5037 3443 5037 3571 
L 5037 5146 
L 2746 5146 
z
M 4986 2099 
C 4755 1632 4416 1242 4013 922 
C 3622 1254 3322 1651 3110 2099 
L 4986 2099 
z
M 2182 2547 
L 2182 2099 
L 2982 2099 
L 2662 1990 
C 2899 1472 3226 1024 3622 646 
C 3046 294 2381 51 1690 -83 
C 1779 -192 1894 -390 1939 -525 
C 2682 -352 3392 -77 4000 333 
C 4531 -64 5165 -352 5894 -525 
C 5965 -390 6106 -192 6214 -90 
C 5523 45 4915 288 4403 627 
C 4954 1088 5389 1677 5658 2432 
L 5331 2566 
L 5242 2547 
L 2182 2547 
z
" transform="scale(0.015625)"/>
      <path id="NotoSansCJKjp-Regular-6709" d="M 2502 5376 
C 2426 5101 2336 4819 2221 4544 
L 403 4544 
L 403 4096 
L 2022 4096 
C 1613 3251 1024 2470 256 1946 
C 346 1856 499 1683 563 1574 
C 966 1862 1325 2208 1632 2598 
L 1632 -506 
L 2106 -506 
L 2106 762 
L 4787 762 
L 4787 96 
C 4787 0 4755 -38 4646 -38 
C 4525 -45 4134 -51 3712 -32 
C 3776 -166 3846 -365 3872 -493 
C 4422 -493 4774 -493 4986 -422 
C 5197 -339 5261 -192 5261 90 
L 5261 3354 
L 2150 3354 
C 2298 3597 2426 3840 2541 4096 
L 6010 4096 
L 6010 4544 
L 2733 4544 
C 2829 4781 2912 5024 2989 5261 
L 2502 5376 
z
M 2106 1850 
L 4787 1850 
L 4787 1178 
L 2106 1178 
L 2106 1850 
z
M 2106 2259 
L 2106 2918 
L 4787 2918 
L 4787 2259 
L 2106 2259 
z
" transform="scale(0.015625)"/>
      <path id="NotoSansCJKjp-Regular-4e0a" d="M 2733 5280 
L 2733 275 
L 326 275 
L 326 -205 
L 6080 -205 
L 6080 275 
L 3238 275 
L 3238 2822 
L 5638 2822 
L 5638 3302 
L 3238 3302 
L 3238 5280 
L 2733 5280 
z
" transform="scale(0.015625)"/>
      <path id="NotoSansCJKjp-Regular-9650" d="M 3309 3482 
L 5261 3482 
L 5261 2675 
L 3309 2675 
L 3309 3482 
z
M 3309 3885 
L 3309 4672 
L 5261 4672 
L 5261 3885 
L 3309 3885 
z
M 5632 2106 
C 5414 1862 5082 1562 4774 1325 
C 4634 1613 4518 1926 4422 2253 
L 5734 2253 
L 5734 5094 
L 2842 5094 
L 2842 179 
L 2118 45 
L 2278 -422 
C 2906 -282 3757 -90 4570 96 
L 4531 512 
L 3309 269 
L 3309 2253 
L 4000 2253 
C 4314 992 4896 -6 5850 -493 
C 5920 -371 6061 -186 6170 -96 
C 5670 128 5274 506 4966 986 
C 5299 1222 5696 1536 6003 1830 
L 5632 2106 
z
M 525 5101 
L 525 -512 
L 979 -512 
L 979 4666 
L 1920 4666 
C 1766 4224 1555 3635 1350 3168 
C 1856 2662 1990 2240 1990 1888 
C 1990 1696 1952 1530 1850 1459 
C 1779 1414 1702 1402 1619 1389 
C 1504 1389 1363 1389 1197 1408 
C 1274 1280 1318 1088 1325 966 
C 1485 960 1664 954 1805 973 
C 1939 992 2067 1024 2163 1094 
C 2349 1222 2438 1485 2432 1843 
C 2432 2240 2310 2694 1792 3226 
C 2035 3731 2298 4390 2502 4922 
L 2182 5120 
L 2106 5101 
L 525 5101 
z
" transform="scale(0.015625)"/>
     </defs>
     <use xlink:href="#NotoSansCJKjp-Regular-4e00"/>
     <use xlink:href="#NotoSansCJKjp-Regular-76f4" transform="translate(99.999985 0)"/>
     <use xlink:href="#NotoSansCJKjp-Regular-6da8" transform="translate(199.999969 0)"/>
     <use xlink:href="#NotoSansCJKjp-Regular-ff0c" transform="translate(299.999954 0)"/>
     <use xlink:href="#NotoSansCJKjp-Regular-6ca1" transform="translate(399.999939 0)"/>
     <use xlink:href="#NotoSansCJKjp-Regular-6709" transform="translate(499.999924 0)"/>
     <use xlink:href="#NotoSansCJKjp-Regular-4e0a" transform="translate(599.999908 0)"/>
     <use xlink:href="#NotoSansCJKjp-Regular-9650" transform="translate(699.999893 0)"/>
    </g>
   </g>
   <g id="patch_6">
    <path d="M 553.982895 226.595113 
Q 559.587279 198.401818 564.908285 171.634074 
" style="fill: none; stroke: #922b21; stroke-width: 1.3; stroke-linecap: round"/>
    <path d="M 561.755564 175.697367 
L 564.908285 171.634074 
L 566.267287 176.594226 
" style="fill: none; stroke: #922b21; stroke-width: 1.3; stroke-linecap: round"/>
   </g>
   <g id="text_17">
    <!-- 趋于平坦：再加算力也不涨 -->
    <g style="fill: #922b21" transform="translate(483.022996 239.714074) scale(0.115 -0.115)">
     <defs>
      <path id="NotoSansCJKjp-Regular-8d8b" d="M 3930 4371 
L 5011 4371 
C 4877 4090 4710 3750 4550 3456 
L 3341 3456 
C 3578 3744 3770 4058 3930 4371 
z
M 3373 2349 
L 3373 1933 
L 5293 1933 
L 5293 1222 
L 3142 1222 
L 3142 787 
L 5766 787 
L 5766 3456 
L 5056 3456 
C 5254 3859 5459 4314 5619 4691 
L 5306 4794 
L 5229 4768 
L 4109 4768 
C 4173 4915 4224 5069 4275 5210 
L 3814 5280 
C 3648 4742 3322 4064 2822 3546 
C 2931 3488 3091 3366 3174 3270 
L 3290 3398 
L 3290 3021 
L 5293 3021 
L 5293 2349 
L 3373 2349 
z
M 691 2438 
C 672 1338 608 378 198 -230 
C 307 -294 493 -448 563 -518 
C 794 -147 934 320 1018 858 
C 1574 -134 2496 -314 3859 -314 
L 6010 -314 
C 6035 -179 6125 38 6202 154 
C 5830 141 4160 141 3859 141 
C 3155 141 2573 186 2106 390 
L 2106 1600 
L 2970 1600 
L 2970 2022 
L 2106 2022 
L 2106 2886 
L 2989 2886 
L 2989 3341 
L 1990 3341 
L 1990 4077 
L 2848 4077 
L 2848 4512 
L 1990 4512 
L 1990 5376 
L 1536 5376 
L 1536 4512 
L 550 4512 
L 550 4077 
L 1536 4077 
L 1536 3341 
L 333 3341 
L 333 2886 
L 1651 2886 
L 1651 672 
C 1421 877 1235 1152 1094 1523 
C 1120 1805 1133 2106 1139 2413 
L 691 2438 
z
" transform="scale(0.015625)"/>
      <path id="NotoSansCJKjp-Regular-4e8e" d="M 794 4922 
L 794 4442 
L 3008 4442 
L 3008 2822 
L 352 2822 
L 352 2342 
L 3008 2342 
L 3008 192 
C 3008 58 2957 19 2816 19 
C 2675 13 2182 6 1658 26 
C 1734 -115 1824 -339 1856 -480 
C 2515 -480 2938 -474 3174 -390 
C 3418 -314 3514 -160 3514 192 
L 3514 2342 
L 6054 2342 
L 6054 2822 
L 3514 2822 
L 3514 4442 
L 5606 4442 
L 5606 4922 
L 794 4922 
z
" transform="scale(0.015625)"/>
      <path id="NotoSansCJKjp-Regular-5e73" d="M 1114 4032 
C 1363 3558 1613 2938 1702 2554 
L 2157 2714 
C 2067 3085 1805 3699 1549 4160 
L 1114 4032 
z
M 4832 4192 
C 4672 3725 4378 3072 4134 2669 
L 4550 2534 
C 4800 2918 5101 3533 5338 4051 
L 4832 4192 
z
M 333 2227 
L 333 1747 
L 2938 1747 
L 2938 -506 
L 3437 -506 
L 3437 1747 
L 6074 1747 
L 6074 2227 
L 3437 2227 
L 3437 4467 
L 5715 4467 
L 5715 4947 
L 672 4947 
L 672 4467 
L 2938 4467 
L 2938 2227 
L 333 2227 
z
" transform="scale(0.015625)"/>
      <path id="NotoSansCJKjp-Regular-5766" d="M 1907 186 
L 1907 -275 
L 6150 -275 
L 6150 186 
L 1907 186 
z
M 2790 5088 
L 2790 1018 
L 5677 1018 
L 5677 5088 
L 2790 5088 
z
M 5190 2842 
L 5190 1472 
L 3251 1472 
L 3251 2842 
L 5190 2842 
z
M 3251 4634 
L 5190 4634 
L 5190 3290 
L 3251 3290 
L 3251 4634 
z
M 218 1050 
L 378 563 
C 954 781 1709 1069 2419 1350 
L 2336 1792 
L 1587 1523 
L 1587 3373 
L 2298 3373 
L 2298 3827 
L 1587 3827 
L 1587 5306 
L 1126 5306 
L 1126 3827 
L 333 3827 
L 333 3373 
L 1126 3373 
L 1126 1357 
L 218 1050 
z
" transform="scale(0.015625)"/>
      <path id="NotoSansCJKjp-Regular-ff1a" d="M 3200 3482 
C 3456 3482 3686 3667 3686 3962 
C 3686 4256 3456 4442 3200 4442 
C 2944 4442 2714 4256 2714 3962 
C 2714 3667 2944 3482 3200 3482 
z
M 3200 346 
C 3456 346 3686 538 3686 826 
C 3686 1120 3456 1312 3200 1312 
C 2944 1312 2714 1120 2714 826 
C 2714 538 2944 346 3200 346 
z
" transform="scale(0.015625)"/>
      <path id="NotoSansCJKjp-Regular-518d" d="M 1011 3910 
L 1011 1485 
L 256 1485 
L 256 1037 
L 1011 1037 
L 1011 -525 
L 1485 -525 
L 1485 1037 
L 4909 1037 
L 4909 83 
C 4909 -26 4870 -58 4749 -64 
C 4640 -70 4224 -77 3802 -58 
C 3878 -186 3949 -390 3981 -518 
C 4531 -518 4890 -512 5101 -435 
C 5312 -358 5382 -218 5382 77 
L 5382 1037 
L 6157 1037 
L 6157 1485 
L 5382 1485 
L 5382 3910 
L 3418 3910 
L 3418 4538 
L 5920 4538 
L 5920 4986 
L 493 4986 
L 493 4538 
L 2931 4538 
L 2931 3910 
L 1011 3910 
z
M 4909 1485 
L 3418 1485 
L 3418 2278 
L 4909 2278 
L 4909 1485 
z
M 1485 1485 
L 1485 2278 
L 2931 2278 
L 2931 1485 
L 1485 1485 
z
M 4909 2701 
L 3418 2701 
L 3418 3469 
L 4909 3469 
L 4909 2701 
z
M 1485 2701 
L 1485 3469 
L 2931 3469 
L 2931 2701 
L 1485 2701 
z
" transform="scale(0.015625)"/>
      <path id="NotoSansCJKjp-Regular-52a0" d="M 3661 4582 
L 3661 -416 
L 4122 -416 
L 4122 58 
L 5363 58 
L 5363 -365 
L 5843 -365 
L 5843 4582 
L 3661 4582 
z
M 4122 518 
L 4122 4115 
L 5363 4115 
L 5363 518 
L 4122 518 
z
M 1248 5293 
L 1242 4160 
L 339 4160 
L 339 3693 
L 1229 3693 
C 1184 2080 986 659 179 -186 
C 301 -262 474 -410 550 -518 
C 1414 422 1638 1958 1696 3693 
L 2669 3693 
C 2618 1229 2560 352 2426 166 
C 2368 83 2304 58 2208 64 
C 2093 64 1818 64 1517 90 
C 1600 -45 1645 -250 1658 -390 
C 1946 -410 2240 -416 2419 -390 
C 2605 -365 2726 -307 2842 -141 
C 3040 134 3085 1069 3136 3917 
C 3136 3987 3136 4160 3136 4160 
L 1709 4160 
L 1722 5293 
L 1248 5293 
z
" transform="scale(0.015625)"/>
      <path id="NotoSansCJKjp-Regular-4e5f" d="M 1370 4941 
L 1370 3110 
L 192 2746 
L 326 2310 
L 1370 2637 
L 1370 640 
C 1370 -179 1664 -384 2618 -384 
C 2842 -384 4634 -384 4870 -384 
C 5805 -384 5990 -45 6099 1005 
C 5965 1030 5766 1114 5645 1197 
C 5562 275 5459 58 4858 58 
C 4480 58 2906 58 2598 58 
C 1965 58 1837 166 1837 627 
L 1837 2778 
L 3174 3194 
L 3174 858 
L 3648 858 
L 3648 3341 
L 5107 3795 
C 5101 2874 5062 2266 4966 1984 
C 4877 1728 4774 1683 4627 1683 
C 4512 1683 4211 1683 3981 1702 
C 4045 1594 4096 1382 4109 1261 
C 4339 1248 4666 1254 4864 1286 
C 5082 1325 5267 1440 5382 1773 
C 5523 2144 5574 2931 5594 4134 
L 5619 4224 
L 5274 4378 
L 5171 4301 
L 5133 4269 
L 3648 3808 
L 3648 5363 
L 3174 5363 
L 3174 3667 
L 1837 3251 
L 1837 4941 
L 1370 4941 
z
" transform="scale(0.015625)"/>
     </defs>
     <use xlink:href="#NotoSansCJKjp-Regular-8d8b"/>
     <use xlink:href="#NotoSansCJKjp-Regular-4e8e" transform="translate(99.999985 0)"/>
     <use xlink:href="#NotoSansCJKjp-Regular-5e73" transform="translate(199.999969 0)"/>
     <use xlink:href="#NotoSansCJKjp-Regular-5766" transform="translate(299.999954 0)"/>
     <use xlink:href="#NotoSansCJKjp-Regular-ff1a" transform="translate(399.999939 0)"/>
     <use xlink:href="#NotoSansCJKjp-Regular-518d" transform="translate(499.999924 0)"/>
     <use xlink:href="#NotoSansCJKjp-Regular-52a0" transform="translate(599.999908 0)"/>
     <use xlink:href="#NotoSansCJKjp-Regular-7b97" transform="translate(699.999893 0)"/>
     <use xlink:href="#NotoSansCJKjp-Regular-529b" transform="translate(799.999878 0)"/>
     <use xlink:href="#NotoSansCJKjp-Regular-4e5f" transform="translate(899.999863 0)"/>
     <use xlink:href="#NotoSansCJKjp-Regular-4e0d" transform="translate(999.999847 0)"/>
     <use xlink:href="#NotoSansCJKjp-Regular-6da8" transform="translate(1099.999832 0)"/>
    </g>
   </g>
   <g id="text_18">
    <!-- power law vs sigmoid：预训练无界，RL 后训练有天花板 -->
    <g transform="translate(145.877562 19.03) scale(0.14 -0.14)">
     <defs>
      <path id="NotoSansCJKjp-Regular-70" d="M 589 -1466 
L 1178 -1466 
L 1178 -288 
L 1158 320 
C 1472 58 1805 -83 2118 -83 
C 2912 -83 3629 602 3629 1792 
C 3629 2867 3142 3565 2246 3565 
C 1843 3565 1453 3334 1139 3072 
L 1126 3072 
L 1069 3475 
L 589 3475 
L 589 -1466 
z
M 2022 410 
C 1792 410 1485 499 1178 768 
L 1178 2598 
C 1510 2906 1811 3072 2099 3072 
C 2765 3072 3021 2560 3021 1786 
C 3021 928 2598 410 2022 410 
z
" transform="scale(0.015625)"/>
      <path id="NotoSansCJKjp-Regular-6f" d="M 1939 -83 
C 2790 -83 3546 582 3546 1734 
C 3546 2893 2790 3565 1939 3565 
C 1088 3565 333 2893 333 1734 
C 333 582 1088 -83 1939 -83 
z
M 1939 403 
C 1338 403 934 934 934 1734 
C 934 2534 1338 3072 1939 3072 
C 2541 3072 2950 2534 2950 1734 
C 2950 934 2541 403 1939 403 
z
" transform="scale(0.015625)"/>
      <path id="NotoSansCJKjp-Regular-77" d="M 1139 0 
L 1818 0 
L 2310 1862 
C 2400 2195 2470 2522 2547 2874 
L 2579 2874 
C 2662 2522 2726 2202 2816 1875 
L 3315 0 
L 4026 0 
L 4966 3475 
L 4403 3475 
L 3898 1466 
C 3821 1133 3757 819 3686 499 
L 3654 499 
C 3571 819 3494 1133 3411 1466 
L 2867 3475 
L 2298 3475 
L 1754 1466 
C 1670 1133 1594 819 1523 499 
L 1491 499 
C 1421 819 1357 1133 1286 1466 
L 768 3475 
L 173 3475 
L 1139 0 
z
" transform="scale(0.015625)"/>
      <path id="NotoSansCJKjp-Regular-65" d="M 1997 -83 
C 2464 -83 2835 70 3136 269 
L 2931 659 
C 2669 486 2400 384 2061 384 
C 1402 384 947 858 909 1600 
L 3251 1600 
C 3264 1690 3277 1805 3277 1933 
C 3277 2925 2778 3565 1888 3565 
C 1094 3565 333 2867 333 1734 
C 333 589 1069 -83 1997 -83 
z
M 902 2016 
C 973 2707 1408 3098 1901 3098 
C 2445 3098 2765 2720 2765 2016 
L 902 2016 
z
" transform="scale(0.015625)"/>
      <path id="NotoSansCJKjp-Regular-72" d="M 589 0 
L 1178 0 
L 1178 2234 
C 1408 2822 1760 3040 2048 3040 
C 2195 3040 2272 3021 2387 2982 
L 2496 3488 
C 2387 3546 2278 3565 2125 3565 
C 1741 3565 1382 3283 1139 2842 
L 1126 2842 
L 1069 3475 
L 589 3475 
L 589 0 
z
" transform="scale(0.015625)"/>
      <path id="NotoSansCJKjp-Regular-6c" d="M 1203 -83 
C 1363 -83 1459 -58 1542 -32 
L 1459 416 
C 1395 403 1370 403 1338 403 
C 1248 403 1178 474 1178 653 
L 1178 5094 
L 589 5094 
L 589 691 
C 589 198 768 -83 1203 -83 
z
" transform="scale(0.015625)"/>
      <path id="NotoSansCJKjp-Regular-61" d="M 1389 -83 
C 1818 -83 2208 141 2541 416 
L 2560 416 
L 2611 0 
L 3091 0 
L 3091 2138 
C 3091 3002 2739 3565 1888 3565 
C 1325 3565 838 3315 525 3110 
L 749 2707 
C 1024 2893 1389 3078 1792 3078 
C 2362 3078 2509 2650 2509 2202 
C 1030 2035 378 1658 378 902 
C 378 275 806 -83 1389 -83 
z
M 1555 390 
C 1210 390 941 544 941 941 
C 941 1389 1338 1677 2509 1811 
L 2509 845 
C 2170 544 1888 390 1555 390 
z
" transform="scale(0.015625)"/>
      <path id="NotoSansCJKjp-Regular-76" d="M 1338 0 
L 2022 0 
L 3251 3475 
L 2675 3475 
L 2016 1498 
C 1914 1158 1798 806 1696 474 
L 1664 474 
C 1562 806 1453 1158 1344 1498 
L 691 3475 
L 83 3475 
L 1338 0 
z
" transform="scale(0.015625)"/>
      <path id="NotoSansCJKjp-Regular-73" d="M 1498 -83 
C 2317 -83 2758 384 2758 947 
C 2758 1606 2208 1811 1702 2003 
C 1312 2150 954 2278 954 2605 
C 954 2880 1158 3110 1600 3110 
C 1907 3110 2150 2976 2387 2803 
L 2669 3168 
C 2406 3386 2022 3565 1594 3565 
C 832 3565 397 3130 397 2579 
C 397 1984 922 1754 1408 1574 
C 1792 1434 2202 1267 2202 915 
C 2202 614 1978 371 1517 371 
C 1101 371 794 538 486 787 
L 205 397 
C 531 122 1005 -83 1498 -83 
z
" transform="scale(0.015625)"/>
      <path id="NotoSansCJKjp-Regular-69" d="M 589 0 
L 1178 0 
L 1178 3475 
L 589 3475 
L 589 0 
z
M 883 4192 
C 1114 4192 1274 4346 1274 4582 
C 1274 4806 1114 4960 883 4960 
C 653 4960 499 4806 499 4582 
C 499 4346 653 4192 883 4192 
z
" transform="scale(0.015625)"/>
      <path id="NotoSansCJKjp-Regular-67" d="M 1760 -1600 
C 2835 -1600 3520 -1043 3520 -397 
C 3520 179 3110 429 2310 429 
L 1626 429 
C 1158 429 1018 589 1018 806 
C 1018 998 1114 1114 1242 1222 
C 1395 1146 1587 1101 1754 1101 
C 2470 1101 3027 1568 3027 2310 
C 3027 2611 2912 2867 2746 3027 
L 3456 3027 
L 3456 3475 
L 2246 3475 
C 2125 3526 1952 3565 1754 3565 
C 1056 3565 454 3085 454 2323 
C 454 1907 678 1568 909 1389 
L 909 1363 
C 723 1235 525 1005 525 717 
C 525 442 659 256 838 147 
L 838 115 
C 512 -83 326 -371 326 -672 
C 326 -1267 915 -1600 1760 -1600 
z
M 1754 1498 
C 1357 1498 1018 1818 1018 2323 
C 1018 2835 1350 3136 1754 3136 
C 2170 3136 2496 2835 2496 2323 
C 2496 1818 2157 1498 1754 1498 
z
M 1843 -1197 
C 1210 -1197 838 -960 838 -589 
C 838 -390 941 -179 1190 0 
C 1344 -38 1510 -51 1638 -51 
L 2240 -51 
C 2701 -51 2944 -166 2944 -493 
C 2944 -851 2515 -1197 1843 -1197 
z
" transform="scale(0.015625)"/>
      <path id="NotoSansCJKjp-Regular-6d" d="M 589 0 
L 1178 0 
L 1178 2522 
C 1491 2880 1786 3053 2048 3053 
C 2490 3053 2694 2778 2694 2125 
L 2694 0 
L 3277 0 
L 3277 2522 
C 3603 2880 3885 3053 4154 3053 
C 4595 3053 4800 2778 4800 2125 
L 4800 0 
L 5382 0 
L 5382 2202 
C 5382 3085 5043 3565 4333 3565 
C 3904 3565 3546 3290 3181 2899 
C 3040 3309 2758 3565 2221 3565 
C 1805 3565 1446 3302 1139 2970 
L 1126 2970 
L 1069 3475 
L 589 3475 
L 589 0 
z
" transform="scale(0.015625)"/>
      <path id="NotoSansCJKjp-Regular-64" d="M 1773 -83 
C 2189 -83 2560 141 2829 410 
L 2848 410 
L 2899 0 
L 3379 0 
L 3379 5094 
L 2790 5094 
L 2790 3757 
L 2822 3162 
C 2515 3411 2253 3565 1843 3565 
C 1050 3565 339 2861 339 1734 
C 339 576 902 -83 1773 -83 
z
M 1901 410 
C 1293 410 941 902 941 1741 
C 941 2534 1389 3072 1946 3072 
C 2234 3072 2502 2970 2790 2707 
L 2790 883 
C 2502 563 2221 410 1901 410 
z
" transform="scale(0.015625)"/>
      <path id="NotoSansCJKjp-Regular-9884" d="M 4288 3168 
L 4288 1888 
C 4288 1229 4141 365 2624 -134 
C 2733 -224 2861 -384 2918 -480 
C 4544 115 4742 1075 4742 1882 
L 4742 3168 
L 4288 3168 
z
M 4640 563 
C 5043 243 5562 -218 5811 -506 
L 6144 -166 
C 5888 109 5357 550 4960 858 
L 4640 563 
z
M 563 3891 
C 954 3629 1453 3277 1805 3008 
L 243 3008 
L 243 2579 
L 1299 2579 
L 1299 64 
C 1299 -19 1274 -38 1178 -45 
C 1088 -45 794 -45 461 -38 
C 531 -173 595 -365 614 -499 
C 1056 -499 1344 -493 1523 -416 
C 1709 -339 1760 -205 1760 51 
L 1760 2579 
L 2445 2579 
C 2330 2234 2202 1882 2086 1638 
L 2451 1542 
C 2624 1888 2822 2451 2989 2944 
L 2688 3027 
L 2618 3008 
L 2182 3008 
L 2310 3174 
C 2163 3290 1958 3443 1728 3597 
C 2106 3936 2522 4429 2797 4890 
L 2502 5094 
L 2419 5069 
L 378 5069 
L 378 4640 
L 2099 4640 
C 1901 4352 1638 4038 1395 3827 
L 826 4198 
L 563 3891 
z
M 3200 4019 
L 3200 973 
L 3648 973 
L 3648 3578 
L 5414 3578 
L 5414 986 
L 5882 986 
L 5882 4019 
L 4634 4019 
L 4858 4659 
L 6138 4659 
L 6138 5094 
L 2970 5094 
L 2970 4659 
L 4333 4659 
C 4288 4448 4230 4218 4173 4019 
L 3200 4019 
z
" transform="scale(0.015625)"/>
      <path id="NotoSansCJKjp-Regular-65e0" d="M 3277 2330 
L 3277 294 
C 3277 -282 3456 -448 4128 -448 
C 4269 -448 5190 -448 5338 -448 
C 5965 -448 6112 -179 6176 851 
C 6042 883 5824 960 5715 1050 
C 5677 173 5626 26 5306 26 
C 5101 26 4326 26 4173 26 
C 3840 26 3776 70 3776 288 
L 3776 2330 
L 3277 2330 
z
M 730 4947 
L 730 4486 
L 2861 4486 
C 2854 3981 2848 3501 2803 3053 
L 333 3053 
L 333 2598 
L 2746 2598 
C 2534 1350 1958 397 256 -122 
C 365 -224 506 -397 563 -525 
C 2400 70 3008 1171 3226 2598 
L 6074 2598 
L 6074 3053 
L 3283 3053 
C 3328 3507 3341 3981 3347 4486 
L 5709 4486 
L 5709 4947 
L 730 4947 
z
" transform="scale(0.015625)"/>
      <path id="NotoSansCJKjp-Regular-754c" d="M 1990 1734 
L 1990 1357 
C 1990 877 1882 256 755 -166 
C 858 -256 1018 -429 1082 -550 
C 2330 -51 2483 730 2483 1344 
L 2483 1734 
L 1990 1734 
z
M 1478 3699 
L 2950 3699 
L 2950 3002 
L 1478 3002 
L 1478 3699 
z
M 3430 3699 
L 4915 3699 
L 4915 3002 
L 3430 3002 
L 3430 3699 
z
M 1478 4762 
L 2950 4762 
L 2950 4077 
L 1478 4077 
L 1478 4762 
z
M 3430 4762 
L 4915 4762 
L 4915 4077 
L 3430 4077 
L 3430 4762 
z
M 4026 1734 
L 4026 -499 
L 4518 -499 
L 4518 1722 
C 4922 1446 5376 1222 5830 1082 
C 5901 1203 6048 1389 6157 1491 
C 5395 1690 4627 2099 4134 2598 
L 5408 2598 
L 5408 5171 
L 1005 5171 
L 1005 2598 
L 2285 2598 
C 1792 2093 1024 1664 288 1453 
C 397 1350 538 1178 608 1050 
C 1453 1350 2342 1926 2874 2598 
L 3578 2598 
C 3821 2278 4141 1984 4499 1734 
L 4026 1734 
z
" transform="scale(0.015625)"/>
      <path id="NotoSansCJKjp-Regular-540e" d="M 5222 5325 
C 4352 5088 2829 4902 1446 4787 
L 954 4883 
L 954 3085 
C 954 2099 883 774 205 -198 
C 326 -256 512 -416 582 -518 
C 1338 538 1434 2048 1434 3078 
L 1434 3142 
L 6163 3142 
L 6163 3603 
L 1434 3603 
L 1434 4358 
C 2886 4461 4518 4653 5626 4947 
L 5222 5325 
z
M 1997 2227 
L 1997 -518 
L 2458 -518 
L 2458 -186 
L 5114 -186 
L 5114 -506 
L 5600 -506 
L 5600 2227 
L 1997 2227 
z
M 2458 262 
L 2458 1779 
L 5114 1779 
L 5114 262 
L 2458 262 
z
" transform="scale(0.015625)"/>
     </defs>
     <use xlink:href="#NotoSansCJKjp-Regular-70"/>
     <use xlink:href="#NotoSansCJKjp-Regular-6f" transform="translate(61.999985 0)"/>
     <use xlink:href="#NotoSansCJKjp-Regular-77" transform="translate(122.599976 0)"/>
     <use xlink:href="#NotoSansCJKjp-Regular-65" transform="translate(202.799957 0)"/>
     <use xlink:href="#NotoSansCJKjp-Regular-72" transform="translate(258.199951 0)"/>
     <use xlink:href="#NotoSansCJKjp-Regular-20" transform="translate(296.999939 0)"/>
     <use xlink:href="#NotoSansCJKjp-Regular-6c" transform="translate(319.399933 0)"/>
     <use xlink:href="#NotoSansCJKjp-Regular-61" transform="translate(347.799927 0)"/>
     <use xlink:href="#NotoSansCJKjp-Regular-77" transform="translate(404.099915 0)"/>
     <use xlink:href="#NotoSansCJKjp-Regular-20" transform="translate(484.299896 0)"/>
     <use xlink:href="#NotoSansCJKjp-Regular-76" transform="translate(506.69989 0)"/>
     <use xlink:href="#NotoSansCJKjp-Regular-73" transform="translate(558.799881 0)"/>
     <use xlink:href="#NotoSansCJKjp-Regular-20" transform="translate(605.599869 0)"/>
     <use xlink:href="#NotoSansCJKjp-Regular-73" transform="translate(627.999863 0)"/>
     <use xlink:href="#NotoSansCJKjp-Regular-69" transform="translate(674.79985 0)"/>
     <use xlink:href="#NotoSansCJKjp-Regular-67" transform="translate(702.299835 0)"/>
     <use xlink:href="#NotoSansCJKjp-Regular-6d" transform="translate(758.699829 0)"/>
     <use xlink:href="#NotoSansCJKjp-Regular-6f" transform="translate(851.29982 0)"/>
     <use xlink:href="#NotoSansCJKjp-Regular-69" transform="translate(911.899811 0)"/>
     <use xlink:href="#NotoSansCJKjp-Regular-64" transform="translate(939.399796 0)"/>
     <use xlink:href="#NotoSansCJKjp-Regular-ff1a" transform="translate(1001.39978 0)"/>
     <use xlink:href="#NotoSansCJKjp-Regular-9884" transform="translate(1101.399765 0)"/>
     <use xlink:href="#NotoSansCJKjp-Regular-8bad" transform="translate(1201.39975 0)"/>
     <use xlink:href="#NotoSansCJKjp-Regular-7ec3" transform="translate(1301.399734 0)"/>
     <use xlink:href="#NotoSansCJKjp-Regular-65e0" transform="translate(1401.399719 0)"/>
     <use xlink:href="#NotoSansCJKjp-Regular-754c" transform="translate(1501.399704 0)"/>
     <use xlink:href="#NotoSansCJKjp-Regular-ff0c" transform="translate(1601.399689 0)"/>
     <use xlink:href="#NotoSansCJKjp-Regular-52" transform="translate(1701.399673 0)"/>
     <use xlink:href="#NotoSansCJKjp-Regular-4c" transform="translate(1764.899658 0)"/>
     <use xlink:href="#NotoSansCJKjp-Regular-20" transform="translate(1819.199646 0)"/>
     <use xlink:href="#NotoSansCJKjp-Regular-540e" transform="translate(1841.59964 0)"/>
     <use xlink:href="#NotoSansCJKjp-Regular-8bad" transform="translate(1941.599625 0)"/>
     <use xlink:href="#NotoSansCJKjp-Regular-7ec3" transform="translate(2041.599609 0)"/>
     <use xlink:href="#NotoSansCJKjp-Regular-6709" transform="translate(2141.599594 0)"/>
     <use xlink:href="#NotoSansCJKjp-Regular-5929" transform="translate(2241.599579 0)"/>
     <use xlink:href="#NotoSansCJKjp-Regular-82b1" transform="translate(2341.599564 0)"/>
     <use xlink:href="#NotoSansCJKjp-Regular-677f" transform="translate(2441.599548 0)"/>
    </g>
   </g>
   <g id="legend_1">
    <g id="patch_7">
     <path d="M 52.079688 74.930312 
L 253.775 74.930312 
Q 255.975 74.930312 255.975 72.730312 
L 255.975 38.73 
Q 255.975 36.53 253.775 36.53 
L 52.079688 36.53 
Q 49.879688 36.53 49.879688 38.73 
L 49.879688 72.730312 
Q 49.879688 74.930312 52.079688 74.930312 
z
" style="fill: #ffffff; opacity: 0.9; stroke: #cccccc; stroke-linejoin: miter"/>
    </g>
    <g id="line2d_49">
     <path d="M 54.279688 46.495312 
L 65.279687 46.495312 
L 76.279687 46.495312 
" style="fill: none; stroke: #2c6fbb; stroke-width: 2.8; stroke-linecap: square"/>
    </g>
    <g id="text_19">
     <!-- 预训练（power law）：无天花板 -->
     <g transform="translate(85.079688 50.345312) scale(0.11 -0.11)">
      <use xlink:href="#NotoSansCJKjp-Regular-9884"/>
      <use xlink:href="#NotoSansCJKjp-Regular-8bad" transform="translate(99.999985 0)"/>
      <use xlink:href="#NotoSansCJKjp-Regular-7ec3" transform="translate(199.999969 0)"/>
      <use xlink:href="#NotoSansCJKjp-Regular-ff08" transform="translate(299.999954 0)"/>
      <use xlink:href="#NotoSansCJKjp-Regular-70" transform="translate(399.999939 0)"/>
      <use xlink:href="#NotoSansCJKjp-Regular-6f" transform="translate(461.999924 0)"/>
      <use xlink:href="#NotoSansCJKjp-Regular-77" transform="translate(522.599915 0)"/>
      <use xlink:href="#NotoSansCJKjp-Regular-65" transform="translate(602.799896 0)"/>
      <use xlink:href="#NotoSansCJKjp-Regular-72" transform="translate(658.19989 0)"/>
      <use xlink:href="#NotoSansCJKjp-Regular-20" transform="translate(696.999878 0)"/>
      <use xlink:href="#NotoSansCJKjp-Regular-6c" transform="translate(719.399872 0)"/>
      <use xlink:href="#NotoSansCJKjp-Regular-61" transform="translate(747.799866 0)"/>
      <use xlink:href="#NotoSansCJKjp-Regular-77" transform="translate(804.099854 0)"/>
      <use xlink:href="#NotoSansCJKjp-Regular-ff09" transform="translate(884.299835 0)"/>
      <use xlink:href="#NotoSansCJKjp-Regular-ff1a" transform="translate(984.29982 0)"/>
      <use xlink:href="#NotoSansCJKjp-Regular-65e0" transform="translate(1084.299805 0)"/>
      <use xlink:href="#NotoSansCJKjp-Regular-5929" transform="translate(1184.299789 0)"/>
      <use xlink:href="#NotoSansCJKjp-Regular-82b1" transform="translate(1284.299774 0)"/>
      <use xlink:href="#NotoSansCJKjp-Regular-677f" transform="translate(1384.299759 0)"/>
     </g>
    </g>
    <g id="line2d_50">
     <path d="M 54.279688 63.930312 
L 65.279687 63.930312 
L 76.279687 63.930312 
" style="fill: none; stroke: #c0392b; stroke-width: 2.8; stroke-linecap: square"/>
    </g>
    <g id="text_20">
     <!-- RL 后训练（sigmoid）：有天花板 -->
     <g transform="translate(85.079688 67.780312) scale(0.11 -0.11)">
      <use xlink:href="#NotoSansCJKjp-Regular-52"/>
      <use xlink:href="#NotoSansCJKjp-Regular-4c" transform="translate(63.499985 0)"/>
      <use xlink:href="#NotoSansCJKjp-Regular-20" transform="translate(117.799973 0)"/>
      <use xlink:href="#NotoSansCJKjp-Regular-540e" transform="translate(140.199966 0)"/>
      <use xlink:href="#NotoSansCJKjp-Regular-8bad" transform="translate(240.199951 0)"/>
      <use xlink:href="#NotoSansCJKjp-Regular-7ec3" transform="translate(340.199936 0)"/>
      <use xlink:href="#NotoSansCJKjp-Regular-ff08" transform="translate(440.199921 0)"/>
      <use xlink:href="#NotoSansCJKjp-Regular-73" transform="translate(540.199905 0)"/>
      <use xlink:href="#NotoSansCJKjp-Regular-69" transform="translate(586.999893 0)"/>
      <use xlink:href="#NotoSansCJKjp-Regular-67" transform="translate(614.499878 0)"/>
      <use xlink:href="#NotoSansCJKjp-Regular-6d" transform="translate(670.899872 0)"/>
      <use xlink:href="#NotoSansCJKjp-Regular-6f" transform="translate(763.499863 0)"/>
      <use xlink:href="#NotoSansCJKjp-Regular-69" transform="translate(824.099854 0)"/>
      <use xlink:href="#NotoSansCJKjp-Regular-64" transform="translate(851.599838 0)"/>
      <use xlink:href="#NotoSansCJKjp-Regular-ff09" transform="translate(913.599823 0)"/>
      <use xlink:href="#NotoSansCJKjp-Regular-ff1a" transform="translate(1013.599808 0)"/>
      <use xlink:href="#NotoSansCJKjp-Regular-6709" transform="translate(1113.599792 0)"/>
      <use xlink:href="#NotoSansCJKjp-Regular-5929" transform="translate(1213.599777 0)"/>
      <use xlink:href="#NotoSansCJKjp-Regular-82b1" transform="translate(1313.599762 0)"/>
      <use xlink:href="#NotoSansCJKjp-Regular-677f" transform="translate(1413.599747 0)"/>
     </g>
    </g>
   </g>
  </g>
 </g>
 <defs>
  <clipPath id="p71d6685883">
   <rect x="44.379688" y="31.03" width="558.821061" height="308.4895"/>
  </clipPath>
 </defs>
</svg>
