<svg xmlns="http://www.w3.org/2000/svg" viewBox="0 0 900 383" width="900" height="383">
  <defs>
    <linearGradient id="bgGrad" x1="0%" y1="0%" x2="100%" y2="100%">
      <stop offset="0%" style="stop-color:#0a0a18;stop-opacity:1" />
      <stop offset="50%" style="stop-color:#0e0e24;stop-opacity:1" />
      <stop offset="100%" style="stop-color:#14102a;stop-opacity:1" />
    </linearGradient>

    <radialGradient id="coreGlow" cx="50%" cy="50%" r="50%">
      <stop offset="0%" style="stop-color:#4da6ff;stop-opacity:0.6" />
      <stop offset="50%" style="stop-color:#4da6ff;stop-opacity:0.15" />
      <stop offset="100%" style="stop-color:#4da6ff;stop-opacity:0" />
    </radialGradient>

    <radialGradient id="goldGlow" cx="50%" cy="50%" r="50%">
      <stop offset="0%" style="stop-color:#ffbb33;stop-opacity:0.25" />
      <stop offset="100%" style="stop-color:#ffbb33;stop-opacity:0" />
    </radialGradient>

    <filter id="glow" x="-50%" y="-50%" width="200%" height="200%">
      <feGaussianBlur stdDeviation="8" result="coloredBlur"/>
      <feMerge>
        <feMergeNode in="coloredBlur"/>
        <feMergeNode in="SourceGraphic"/>
      </feMerge>
    </filter>

    <filter id="softGlow" x="-30%" y="-30%" width="160%" height="160%">
      <feGaussianBlur stdDeviation="4" result="coloredBlur"/>
      <feMerge>
        <feMergeNode in="coloredBlur"/>
        <feMergeNode in="SourceGraphic"/>
      </feMerge>
    </filter>

    <filter id="goldFilter" x="-30%" y="-30%" width="160%" height="160%">
      <feGaussianBlur stdDeviation="3" result="coloredBlur"/>
      <feMerge>
        <feMergeNode in="coloredBlur"/>
        <feMergeNode in="SourceGraphic"/>
      </feMerge>
    </filter>
  </defs>

  <!-- Background -->
  <rect width="900" height="383" fill="url(#bgGrad)"/>

  <!-- Subtle grid -->
  <g opacity="0.04">
    <line x1="50" y1="0" x2="50" y2="383" stroke="#ffffff" stroke-width="0.5"/>
    <line x1="100" y1="0" x2="100" y2="383" stroke="#ffffff" stroke-width="0.5"/>
    <line x1="150" y1="0" x2="150" y2="383" stroke="#ffffff" stroke-width="0.5"/>
    <line x1="200" y1="0" x2="200" y2="383" stroke="#ffffff" stroke-width="0.5"/>
    <line x1="250" y1="0" x2="250" y2="383" stroke="#ffffff" stroke-width="0.5"/>
    <line x1="300" y1="0" x2="300" y2="383" stroke="#ffffff" stroke-width="0.5"/>
    <line x1="350" y1="0" x2="350" y2="383" stroke="#ffffff" stroke-width="0.5"/>
    <line x1="400" y1="0" x2="400" y2="383" stroke="#ffffff" stroke-width="0.5"/>
    <line x1="450" y1="0" x2="450" y2="383" stroke="#ffffff" stroke-width="0.5"/>
    <line x1="500" y1="0" x2="500" y2="383" stroke="#ffffff" stroke-width="0.5"/>
    <line x1="550" y1="0" x2="550" y2="383" stroke="#ffffff" stroke-width="0.5"/>
    <line x1="600" y1="0" x2="600" y2="383" stroke="#ffffff" stroke-width="0.5"/>
    <line x1="650" y1="0" x2="650" y2="383" stroke="#ffffff" stroke-width="0.5"/>
    <line x1="700" y1="0" x2="700" y2="383" stroke="#ffffff" stroke-width="0.5"/>
    <line x1="750" y1="0" x2="750" y2="383" stroke="#ffffff" stroke-width="0.5"/>
    <line x1="800" y1="0" x2="800" y2="383" stroke="#ffffff" stroke-width="0.5"/>
    <line x1="850" y1="0" x2="850" y2="383" stroke="#ffffff" stroke-width="0.5"/>
    <line x1="0" y1="50" x2="900" y2="50" stroke="#ffffff" stroke-width="0.5"/>
    <line x1="0" y1="100" x2="900" y2="100" stroke="#ffffff" stroke-width="0.5"/>
    <line x1="0" y1="150" x2="900" y2="150" stroke="#ffffff" stroke-width="0.5"/>
    <line x1="0" y1="200" x2="900" y2="200" stroke="#ffffff" stroke-width="0.5"/>
    <line x1="0" y1="250" x2="900" y2="250" stroke="#ffffff" stroke-width="0.5"/>
    <line x1="0" y1="300" x2="900" y2="300" stroke="#ffffff" stroke-width="0.5"/>
    <line x1="0" y1="350" x2="900" y2="350" stroke="#ffffff" stroke-width="0.5"/>
  </g>

  <!-- Corner decorations (L-shaped) -->
  <path d="M10,10 L30,10 L30,12 L12,12 L12,30 L10,30 Z" fill="#4da6ff" fill-opacity="0.3"/>
  <path d="M890,10 L870,10 L870,12 L888,12 L888,30 L890,30 Z" fill="#4da6ff" fill-opacity="0.3"/>
  <path d="M10,373 L30,373 L30,371 L12,371 L12,353 L10,353 Z" fill="#4da6ff" fill-opacity="0.3"/>
  <path d="M890,373 L870,373 L870,371 L888,371 L888,353 L890,353 Z" fill="#4da6ff" fill-opacity="0.3"/>

  <!-- Top title -->
  <text x="450" y="40" text-anchor="middle" font-family="'Noto Sans CJK SC', sans-serif" font-size="26" font-weight="bold" fill="#e8e8f0" filter="url(#softGlow)" letter-spacing="8">&#x793C;&#x4E0D;&#x4E0B;&#x5EB6;&#x4EBA;</text>

  <!-- Floating code fragments in background -->
  <g opacity="0.06" font-family="monospace" font-size="8" fill="#8899bb">
    <text x="40" y="80">const isInternal = process.env.USER_TYPE === 'ant'</text>
    <text x="560" y="75">getSubAgent(isInternal ? 'opus' : 'haiku')</text>
    <text x="30" y="330">enableVerification: isInternal</text>
    <text x="590" y="325">honestyMode: isInternal ? 'strict' : 'relaxed'</text>
    <text x="340" y="72">// Two worlds, one model</text>
  </g>

  <!-- Central hexagon: Claude core -->
  <g transform="translate(450, 192)">
    <!-- Core glow -->
    <ellipse cx="0" cy="0" rx="80" ry="80" fill="url(#coreGlow)" opacity="0.6"/>

    <!-- Hexagon shape -->
    <polygon points="0,-52 45,-26 45,26 0,52 -45,26 -45,-26" fill="#0e0e24" fill-opacity="0.85" stroke="#4da6ff" stroke-width="2.5" filter="url(#glow)"/>

    <!-- Claude label inside hex -->
    <text x="0" y="-6" text-anchor="middle" font-family="monospace" font-size="16" font-weight="bold" fill="#4da6ff" filter="url(#softGlow)">Claude</text>
    <text x="0" y="14" text-anchor="middle" font-family="monospace" font-size="10" fill="#6688bb">Model Core</text>

    <!-- if-else hint above hex -->
    <text x="0" y="-66" text-anchor="middle" font-family="monospace" font-size="9" fill="#4da6ff" opacity="0.5">if (USER_TYPE === 'ant')</text>
  </g>

  <!-- === LEFT PATH: Gold / ant internal === -->

  <!-- Gold connecting path -->
  <g filter="url(#goldFilter)">
    <line x1="412" y1="192" x2="298" y2="192" stroke="#ffbb33" stroke-width="2" opacity="0.8"/>
    <polygon points="301,187 291,192 301,197" fill="#ffbb33" opacity="0.8"/>
  </g>

  <!-- Gold ambient glow -->
  <ellipse cx="175" cy="192" rx="120" ry="90" fill="url(#goldGlow)" opacity="0.5"/>

  <!-- Left box: ant / collaborator -->
  <g transform="translate(175, 192)">
    <rect x="-112" y="-82" width="224" height="164" rx="6" fill="#0e0e24" fill-opacity="0.9" stroke="#ffbb33" stroke-width="1.5" opacity="0.9"/>

    <!-- Header stripe -->
    <rect x="-112" y="-82" width="224" height="24" rx="6" fill="#ffbb33" fill-opacity="0.12"/>
    <text x="0" y="-64" text-anchor="middle" font-family="monospace" font-size="10" fill="#ffbb33" font-weight="bold">USER_TYPE: 'ant'</text>

    <!-- Role label -->
    <text x="-92" y="-40" font-family="'Noto Sans CJK SC', sans-serif" font-size="17" fill="#ffe0a0" font-weight="bold">&#x534F;&#x4F5C;&#x8005;</text>
    <text x="30" y="-40" font-family="monospace" font-size="11" fill="#cc9944">Collaborator</text>

    <line x1="-92" y1="-28" x2="92" y2="-28" stroke="#ffbb33" stroke-opacity="0.2" stroke-width="0.5"/>

    <!-- Sub-agent -->
    <text x="-92" y="-8" font-family="monospace" font-size="10" fill="#aa8844">sub-agent:</text>
    <text x="20" y="-8" font-family="monospace" font-size="11" fill="#ffcc66" font-weight="bold">Opus</text>

    <!-- Verification -->
    <text x="-92" y="14" font-family="monospace" font-size="10" fill="#aa8844">verification:</text>
    <text x="38" y="14" font-family="monospace" font-size="11" fill="#66dd88">ENABLED</text>
    <text x="98" y="15" text-anchor="end" font-family="monospace" font-size="13" fill="#66dd88">&#x2713;</text>

    <!-- Honesty -->
    <text x="-92" y="36" font-family="monospace" font-size="10" fill="#aa8844">honesty:</text>
    <text x="10" y="36" font-family="monospace" font-size="11" fill="#66dd88">ENFORCED</text>
    <text x="98" y="37" text-anchor="end" font-family="monospace" font-size="13" fill="#66dd88">&#x2713;</text>

    <!-- Experience -->
    <text x="-92" y="58" font-family="monospace" font-size="10" fill="#aa8844">experience:</text>
    <text x="30" y="58" font-family="monospace" font-size="11" fill="#ffcc66">PREMIUM</text>

    <!-- Subtle gold inner border glow -->
    <rect x="-112" y="-82" width="224" height="164" rx="6" fill="none" stroke="#ffbb33" stroke-width="0.5" opacity="0.3"/>
  </g>

  <!-- === RIGHT PATH: Gray / external === -->

  <!-- Gray connecting path (dashed, dim) -->
  <line x1="495" y1="192" x2="602" y2="192" stroke="#556677" stroke-width="1.5" opacity="0.45" stroke-dasharray="6 4"/>
  <polygon points="599,187 609,192 599,197" fill="#556677" opacity="0.45"/>

  <!-- Right box: external / executor -->
  <g transform="translate(725, 192)">
    <rect x="-112" y="-82" width="224" height="164" rx="6" fill="#0a0a14" fill-opacity="0.9" stroke="#556677" stroke-width="1.2" opacity="0.7"/>

    <!-- Header stripe -->
    <rect x="-112" y="-82" width="224" height="24" rx="6" fill="#445566" fill-opacity="0.08"/>
    <text x="0" y="-64" text-anchor="middle" font-family="monospace" font-size="10" fill="#556677">USER_TYPE: 'external'</text>

    <!-- Role label -->
    <text x="-92" y="-40" font-family="'Noto Sans CJK SC', sans-serif" font-size="17" fill="#667788">&#x6267;&#x884C;&#x8005;</text>
    <text x="30" y="-40" font-family="monospace" font-size="11" fill="#556677">Executor</text>

    <line x1="-92" y1="-28" x2="92" y2="-28" stroke="#445566" stroke-opacity="0.2" stroke-width="0.5"/>

    <!-- Sub-agent -->
    <text x="-92" y="-8" font-family="monospace" font-size="10" fill="#445566">sub-agent:</text>
    <text x="20" y="-8" font-family="monospace" font-size="11" fill="#667788">Haiku</text>

    <!-- Verification -->
    <text x="-92" y="14" font-family="monospace" font-size="10" fill="#445566">verification:</text>
    <text x="38" y="14" font-family="monospace" font-size="11" fill="#884444">DISABLED</text>
    <text x="98" y="15" text-anchor="end" font-family="monospace" font-size="13" fill="#884444">&#x2717;</text>

    <!-- FC rate -->
    <text x="-92" y="36" font-family="monospace" font-size="10" fill="#445566">FC rate:</text>
    <text x="10" y="36" font-family="monospace" font-size="11" fill="#884444">29%</text>
    <text x="98" y="37" text-anchor="end" font-family="monospace" font-size="13" fill="#884444">&#x2717;</text>

    <!-- Experience -->
    <text x="-92" y="58" font-family="monospace" font-size="10" fill="#445566">experience:</text>
    <text x="30" y="58" font-family="monospace" font-size="11" fill="#667788">BASIC</text>
  </g>

  <!-- Bottom annotation bar -->
  <rect x="0" y="358" width="900" height="25" fill="#000000" fill-opacity="0.3"/>
  <text x="450" y="375" text-anchor="middle" font-family="monospace" font-size="12" fill="#5577aa" opacity="0.8" letter-spacing="1">process.env.USER_TYPE === 'ant' ? collaborator : executor</text>
</svg>