<svg xmlns="http://www.w3.org/2000/svg" viewBox="0 0 400 400">
  <!-- 背景 -->
  <rect width="400" height="400" fill="#1a1a2e"/>

  <!-- 英伟达logo风格的眼睛（缩放并居中） -->
  <g transform="translate(200, 170) scale(0.5)">
    <!-- 原始英伟达眼睛路径 -->
    <g transform="translate(-450, -490)">
      <path d="M404.043 427.501V405.95C406.13 405.804 408.248 405.688 410.397 405.619C469.306 403.77 507.96 456.264 507.96 456.264C507.96 456.264 466.218 514.266 421.456 514.266C415.01 514.266 409.241 513.226 404.043 511.477V446.132C426.978 448.905 431.591 459.037 445.377 482.029L476.045 456.163C476.045 456.163 453.656 426.792 415.926 426.792C411.821 426.792 407.894 427.085 404.043 427.493M404.043 356.315V388.506C406.161 388.337 408.271 388.206 410.397 388.129C492.326 385.371 545.698 455.347 545.698 455.347C545.698 455.347 484.393 529.931 420.524 529.931C414.671 529.931 409.195 529.391 404.043 528.474V548.368C408.448 548.931 413.007 549.255 417.767 549.255C477.208 549.255 520.19 518.889 561.81 482.946C568.703 488.47 596.96 501.923 602.767 507.817C563.188 540.964 470.962 567.677 418.676 567.677C413.639 567.677 408.795 567.377 404.035 566.914V594.875H629.938V356.315H404.035H404.043ZM404.043 511.485V528.474C349.069 518.666 333.812 461.503 333.812 461.503C333.812 461.503 360.205 432.247 404.043 427.509V446.147C404.043 446.147 403.989 446.139 403.958 446.139C380.953 443.373 362.978 464.878 362.978 464.878C362.978 464.878 373.052 501.076 404.043 511.493M306.402 459.022C306.402 459.022 338.98 410.928 404.043 405.95V388.506C331.987 394.293 269.589 455.347 269.589 455.347C269.589 455.347 304.931 557.56 404.043 566.922V548.376C331.309 539.223 306.402 459.03 306.402 459.03V459.022Z" fill="#76B900"/>
    </g>
  </g>

  <!-- 大红叉（打在logo上） -->
  <g stroke="#ff3333" stroke-width="16" stroke-linecap="round">
    <line x1="80" y1="60" x2="320" y2="280"/>
    <line x1="320" y1="60" x2="80" y2="280"/>
  </g>

  <!-- 底部：红色美元符号 + 禁止标志 -->
  <g transform="translate(200, 350)">
    <!-- 禁止圆圈 -->
    <circle cx="0" cy="0" r="45" fill="none" stroke="#ff3333" stroke-width="6"/>
    <!-- 禁止斜杠 -->
    <line x1="-32" y1="32" x2="32" y2="-32" stroke="#ff3333" stroke-width="6"/>
    <!-- 美元符号在禁止标志中间 -->
    <text x="0" y="12" font-family="Arial Black, sans-serif" font-size="50"
          fill="#ff3333" text-anchor="middle" font-weight="bold">$</text>
  </g>
</svg>
